<?xml version="1.0" encoding="UTF-8"?>
<!DOCTYPE svg PUBLIC "-//W3C//DTD SVG 1.1//EN" "http://www.w3.org/Graphics/SVG/1.1/DTD/svg11.dtd">
<!-- Creator: CorelDRAW 2020 (64-Bit) -->
<svg xmlns="http://www.w3.org/2000/svg" xml:space="preserve" width="71.7088mm" height="56.3866mm" version="1.1" style="shape-rendering:geometricPrecision; text-rendering:geometricPrecision; image-rendering:optimizeQuality; fill-rule:evenodd; clip-rule:evenodd"
viewBox="0 0 4480.15 3522.86"
 xmlns:xlink="http://www.w3.org/1999/xlink"
 xmlns:xodm="http://www.corel.com/coreldraw/odm/2003">
 <defs>
  <style type="text/css">
   <![CDATA[
    .fil3 {fill:#F2F3F4}
    .fil0 {fill:#F5F6F6}
    .fil2 {fill:#FE0108}
    .fil1 {fill:#FEFEFE}
   ]]>
  </style>
 </defs>
 <g id="Capa_x0020_1">
  <metadata id="CorelCorpID_0Corel-Layer"/>
  <g id="_2766693283776">
   <path class="fil0" d="M667.02 1283.13c-39.29,0 -131.53,10.13 -131.53,-46.98l0 -1108.58c99.73,0 190.86,-8.28 270.07,49.35 196.35,142.88 190.27,421.34 190.27,645.86 0,219.85 -114.86,460.34 -328.82,460.34zm-394.58 -1249.5l-272.44 0 0 46.97c175.64,0 197.28,61.36 197.28,234.87 0,91.3 5.09,697.16 -3.96,757.01 -7.64,50.5 -0.51,102.96 -8.79,150.92 -30.74,178.02 -181.91,26.77 -184.53,144.28 414.98,0 986.49,79.44 1226.88,-229.3 284.39,-365.24 155.16,-919.32 -290.72,-1063.88 -188.31,-61.05 -471.39,-40.88 -663.72,-40.88z"/>
   <path class="fil0" d="M2517.79 1856.2c221.49,0 150.31,72.05 150.31,394.58 0,195.18 24.38,358.64 176.87,405.6 233.03,71.78 344.8,-126.31 405.6,-142.55l0 159.71c68.16,-5.67 299.55,-77.92 347.6,-103.34l0 -46.97c-187.68,43.72 -150.31,-24.28 -150.31,-328.82 0,-122.89 15.41,-278.72 -9.39,-385.18 -29.39,-2.45 -33.38,-9.4 -65.77,-9.4l-244.26 0c-35.92,0 -3.42,-2.89 -28.18,9.4 4.17,50.18 24.74,47.35 68.23,53.89 40.02,6.02 82.08,8.75 82.08,49.44l0 488.53c0,119.39 -351.81,224.28 -375.04,46.23l-0.42 -563.26c1.83,-111.23 39.75,-84.23 -357.32,-84.23l0 56.37z"/>
   <path class="fil1" d="M3428.47 522.15l1.04 826.73c79.99,-6.78 176.92,-21.27 246.25,-35.16 37.14,-7.44 214.33,-40.68 232.21,-49.39l-1.06 -789.16c-87.91,0 -180.31,-2.97 -254.07,7.68 -45.46,6.57 -73.25,11.96 -111.81,19.72 -35.78,7.19 -75.1,18.76 -112.56,19.57z"/>
   <path class="fil0" d="M2489.6 616.1l0 -169.11 -403.97 0 0 46.98c54.34,4.52 103.34,25.52 103.34,84.55l0 638.84c0,75.16 -27.63,103.35 -103.34,103.35l0 46.97 516.71 0 0 -46.97c-176.64,0 -111.73,-166.48 -112.68,-347.55 -0.45,-87.11 -2.59,-136.87 14.71,-210.77 10.84,-46.35 53.4,-136.89 97.97,-136.89 76.46,0 163.03,133.44 256.47,40.4 78.99,-78.66 29.63,-237.69 -40.39,-237.69 -93.91,0 -149.51,-6.87 -223.51,67.73 -39.22,39.52 -59.82,89.7 -105.31,120.17z"/>
   <path class="fil0" d="M1428 1856.2c126.53,0 197.29,81.2 197.29,206.69l-422.76 0c2.45,-110 96.23,-206.69 225.47,-206.69zm9.39 817.34c359.66,0 495.41,-379.15 389.38,-354.39 -46.35,10.82 -22.22,110.36 -162.54,167.86 -202.59,83.01 -432.72,-47.98 -462.39,-293.02 -4.82,-39.79 -18.49,-65.34 19.47,-65.34l638.85 0c0,-112.38 -27.4,-183.14 -95.91,-251.69 -224.4,-224.55 -758.95,-56.14 -730.71,344.77 13.13,186.46 40.5,314.32 232.09,407.5 39.27,19.09 117.71,44.31 171.76,44.31z"/>
   <path class="fil2" d="M3429.5 1348.88l-1.04 -826.73c-35.36,17.62 -156.2,18.63 -215.5,18.82 -101.84,0.32 -129.55,-1.78 -197.26,-37.61l0 798.56c60.55,14.11 118.26,32.84 188.2,37.28 76.82,4.87 137.39,9.69 225.6,9.69z"/>
   <path class="fil2" d="M3907.97 1264.33c130.63,0 33.04,-20.54 225.14,0.57 37.96,4.17 63.2,11.7 98.34,23.78 41.55,14.3 59.62,33.27 90.12,41.41l0 -770.37c-67.29,-35.61 -309.02,-84.56 -414.67,-84.56l1.06 789.16z"/>
   <path class="fil0" d="M65.76 2203.81c0,634.17 788.9,567.52 826.74,112.73 -103.69,0 -41.81,47.69 -129,124.65 -124.24,109.67 -327.02,89.2 -422.85,-23.75 -132.23,-155.86 -149.54,-561.25 176.07,-561.25 82.21,0 107.42,36.13 121.38,104.09 6.88,33.45 9.06,60.42 32.53,80.21 47.56,40.1 193.7,52.32 193.7,-43.38 0,-196.4 -405.61,-333.25 -650.78,-96.49 -77,74.36 -147.78,156.32 -147.78,303.18z"/>
   <path class="fil3" d="M1484.36 493.97c58.68,4.88 112.74,20.6 112.74,84.55l0 657.63c0,36.62 -22.89,64.06 -47.07,75.07 -52.22,23.78 -64.06,-15.88 -65.67,56.46l516.71 0 0 -46.97c-48.98,0 -56.13,-9.98 -93.95,-18.79 0,-71.11 -19.74,-133.54 -18.86,-216.01 0.91,-83.8 -9.33,-143.47 -9.33,-234.93 0,-143.47 9.4,-256.99 9.4,-403.98l-403.98 0 0 46.98z"/>
   <path class="fil3" d="M1935.32 1884.39l150.31 0 0 582.48c0,229.19 254.82,220.98 363.81,128.94 44.75,-37.79 62.85,-65.04 77.74,-128.94 -96.65,2.15 -48.38,58.12 -154.21,72.46 -81.09,10.99 -99.44,-54.64 -99.44,-128.83l0 -526.11 225.47 0 0 -84.55 -225.47 0 0 -263.05c-122.73,10.21 -19.55,95.65 -248,259.32 -30.26,21.67 -23.05,13.96 -56.1,28.45 -38.06,16.69 -34.11,10.8 -34.11,59.84z"/>
   <path class="fil0" d="M3616.97 1884.39l0 37.58c195.38,0 150.31,-63.27 150.31,610.66 0,58.93 -100.14,65.77 -150.31,65.77l0 46.97 507.31 0 0 -46.97c-102.59,0 -169.1,-30.26 -169.1,-159.72l0 -357c0,-54.92 82.69,-159.71 140.92,-159.71 73.15,0 44.7,56.37 159.7,56.37 119.34,0 128.6,-197.29 -65.76,-197.29 -112.19,0 -164.68,112.71 -234.87,159.72l0 -169.11c-35.21,16.89 -184.73,47.1 -261.92,76.29 -29.68,11.23 -48.44,29.01 -76.29,36.44z"/>
   <path class="fil0" d="M2057.45 2983.57l0 497.93c0,47.05 52.37,37.57 93.95,37.57 55.8,0 47.25,-83.16 47,-140.89 -0.29,-65.75 -0.02,-131.56 -0.02,-197.31 29.52,19.77 221.89,304.81 244.26,338.21 186.72,0 150.31,85.34 150.31,-554.29 0,-43.62 -74.93,-28.18 -122.13,-28.18 -21.97,94.29 -18.79,193.99 -18.79,310.02l-205.74 -273.39c-26.74,-45.83 -0.49,-36.64 -141.86,-36.64 -21.9,0 -46.97,25.07 -46.97,46.97z"/>
   <path class="fil0" d="M178.5 2992.96l0 488.53c0,50.04 62.25,37.57 122.14,37.57 74.39,0 37.57,-168.16 37.57,-234.87l216.08 0c0,264.07 -26.51,234.87 122.14,234.87 38.99,0 37.58,-89.86 37.58,-150.31 0,-104.07 11.13,-334.68 -9.4,-422.76 -216.71,-50.49 -150.32,68.05 -150.32,216.08l-216.08 0c0,-239.21 40.45,-225.47 -122.13,-225.47 -28.88,0 -37.58,27.52 -37.58,56.37z"/>
   <path class="fil0" d="M4190.05 3406.34c-130.87,0 -131.53,-89.87 -131.53,-206.69 0,-144.26 73.64,-150.31 150.31,-150.31 138.37,0 168.26,357 -18.79,357zm-300.63 -197.29c0,162.3 99.56,310.02 234.86,310.02 106.52,0 214.48,13.83 292.95,-92.23 86.39,-116.76 85.46,-308.7 -13.1,-413.1 -164.31,-174.05 -514.72,-70.39 -514.72,195.3z"/>
   <path class="fil0" d="M1672.26 3105.7l33.54 79.2c13.83,34.46 23.94,54.38 32.22,89.91l-131.53 0c13.62,-58.45 52.15,-110.66 65.77,-169.11zm-253.66 413.37l46.98 0c93.85,0 60.05,-140.92 122.13,-140.92l206.69 0c0,43.6 29.44,140.92 65.76,140.92 79.99,0 191.02,44.38 75.26,-188l-114.18 -271c-56.29,-140.86 -25.68,-123.47 -177.16,-123.47 -69.08,0 -74.28,71.59 -92.75,123.32l-160.7 394.99c-10.48,28.86 -13.69,64.16 27.98,64.16z"/>
   <path class="fil0" d="M2724.47 3359.36c0,165.9 194.88,159.71 310.03,159.71 249.81,0 178.5,-416.05 178.5,-573.08 -91.93,-21.42 -88.72,-9.88 -131.53,18.79 0,110.08 4.49,229.55 0.21,338.43 -5.29,134.23 -112.21,110.68 -197.51,65.55l0.96 -367.35c-1.06,-80.39 -34.39,-64.81 -160.67,-64.81l0 422.76z"/>
   <path class="fil0" d="M826.73 3246.62c0,273.37 125.83,272.45 319.43,272.45 121.65,0 176.81,-102.84 178.7,-225.52l-0.22 -187.84c0.27,-150.04 21.25,-169.12 -75.15,-169.12 -53.46,0 -64.89,41.61 -66.44,94.02l10.08 159.64c0,151.21 23.82,195.6 -78.85,212.73 -31.21,5.21 -86.38,-13.96 -109.04,-24.84 -42.77,-183.56 37.39,-441.55 -56.37,-441.55 -140.35,0 -108.28,-5.43 -112.43,141.22 -1.57,55.46 -9.7,99.36 -9.7,168.8z"/>
   <path class="fil0" d="M3297.55 3218.44c0,164.56 89.75,280.18 235.38,300.76 143.95,20.34 309.52,-52.89 309.52,-216.21l-150.31 -9.4c0,168.2 -230.34,148.6 -230,-65.76 0.28,-178.37 132.31,-235.5 203.88,-142.99 25.25,32.63 19.96,54.19 35.52,86.62 32.59,0 125.79,-4.86 136.74,-23.33 15.9,-26.83 -32.76,-220.94 -258.88,-220.94 -89.82,0 -153.89,34.03 -199.99,81.85 -44.28,45.95 -81.85,122.85 -81.85,209.39z"/>
   <path class="fil0" d="M1587.71 155.76c0,294.67 437.13,131.25 302.67,-67.79l-26.08 -30.3c-131.76,-130.85 -276.59,-13.27 -276.59,98.09z"/>
   <path class="fil0" d="M1615.89 2870.83l9.4 56.37c95.51,0 156.02,-47.4 234.87,-65.76 -3.93,-47.22 -17.54,-64.02 -37.58,-93.95 -48.52,11.3 -111.81,44.32 -161.55,63.92 -24.56,9.67 -45.13,9.88 -45.13,39.42z"/>
  </g>
 </g>
</svg>
