<?xml version="1.0" encoding="UTF-8"?>
<!DOCTYPE svg PUBLIC "-//W3C//DTD SVG 1.1//EN" "http://www.w3.org/Graphics/SVG/1.1/DTD/svg11.dtd">
<!-- Creator: CorelDRAW 2020 (64-Bit) -->
<svg xmlns="http://www.w3.org/2000/svg" xml:space="preserve" width="191.482mm" height="65.9578mm" version="1.1" style="shape-rendering:geometricPrecision; text-rendering:geometricPrecision; image-rendering:optimizeQuality; fill-rule:evenodd; clip-rule:evenodd"
viewBox="0 0 6419.5 2211.26"
 xmlns:xlink="http://www.w3.org/1999/xlink"
 xmlns:xodm="http://www.corel.com/coreldraw/odm/2003">
 <defs>
  <style type="text/css">
   <![CDATA[
    .fil26 {fill:#089A4E}
    .fil23 {fill:#15B4C8}
    .fil7 {fill:#2F9762}
    .fil28 {fill:#329963}
    .fil31 {fill:#389868}
    .fil30 {fill:#4CAE77}
    .fil6 {fill:#54C9EC}
    .fil17 {fill:#5DC28C}
    .fil5 {fill:#62C08C}
    .fil29 {fill:#646464}
    .fil35 {fill:#64C6B1}
    .fil21 {fill:#686A68}
    .fil9 {fill:#727374}
    .fil36 {fill:#767858}
    .fil27 {fill:#7A7466}
    .fil2 {fill:#7BBE4C}
    .fil14 {fill:#7EBE4D}
    .fil13 {fill:#847369}
    .fil11 {fill:#869358}
    .fil38 {fill:#888888}
    .fil39 {fill:#8B8B8B}
    .fil37 {fill:#939393}
    .fil32 {fill:#9C685E}
    .fil1 {fill:#A85275}
    .fil18 {fill:#D64B8D}
    .fil33 {fill:#E06335}
    .fil25 {fill:#E54892}
    .fil34 {fill:#ECECEC}
    .fil24 {fill:#EE945C}
    .fil22 {fill:#EF9B13}
    .fil19 {fill:#F4B032}
    .fil15 {fill:#F84658}
    .fil12 {fill:#F9B538}
    .fil20 {fill:#F9C527}
    .fil10 {fill:#FAFAFA}
    .fil8 {fill:#FDAC05}
    .fil0 {fill:#FDFDFD}
    .fil3 {fill:#FEFEFE}
    .fil16 {fill:#FFEC18}
    .fil4 {fill:#FFF112}
   ]]>
  </style>
 </defs>
 <g id="Capa_x0020_1">
  <metadata id="CorelCorpID_0Corel-Layer"/>
  <g id="_2766527268544">
   <path class="fil0" d="M632.72 1537.63l-3.52 573.6c-31.48,62.42 -137.76,41.61 -258.98,41.68 -82.79,0.04 -224.38,12.94 -290.48,-13.8 -18.49,-62.71 -16.01,-887.19 -7.43,-1002.1l-0.15 -10.29c-14.29,-201.91 -1.1,-456.82 -1.13,-664.82 -0.02,-185.21 -27.49,-152.16 95.38,-243.9 44.25,-33.04 146.36,-116.03 195.79,-135.34 37.14,14.08 236.26,174.97 258.69,201.6 23.94,23.94 11.38,520.68 12.61,596.33 9.24,30.06 21.86,39.49 53.5,48.01l131.93 1.29c20.56,7.36 1.97,-1.89 14.43,13.39 0.84,1.03 2.56,3.82 3.25,4.71 0.71,0.95 2.7,6.42 3.2,5.13 0.53,-1.33 1.81,3.78 3.16,5.36l10.93 -20.14c20.83,-20.16 398.23,-9.8 448.43,-9.95 30.88,-10.67 30.35,-13.23 45.63,-37.36l1.26 -533.61c-0.91,-59.84 5.68,-49.24 6.57,-58.03 0.31,-3.03 1.56,-3.83 2.75,-5.49 9.57,-23.8 36.32,-38.22 64.94,-60.88l212.75 -152.62 207.1 150.25c49.61,39.69 54.79,29.61 57.36,55.5 20.14,20.66 13.72,17.18 13.55,55.07l-0.59 168.74c-0.28,248.61 4.92,1574.8 -5.11,1599.92l-1.07 9.33c-36.71,47.89 -84.91,33.1 -159.06,33.33 -62.74,0.19 -126.19,-1.04 -188.68,0.3l-30.96 -0.17 -10.52 0.36 -25.44 -0.57 -103 -6.01 -26.55 -8.75 -8.68 -28.39 -4.68 -567.32c-17.77,-62.3 -45.05,-55.59 -110.6,-53.11l-512.36 -1.2c-63.42,1.78 -77.59,-3.77 -94.22,49.93zm-623.61 -1263.45c-17.21,102.75 -4.75,340.45 -4.68,460.15 0.08,154.91 0.22,309.82 0.13,464.73 -0.09,154.93 -0.03,309.8 -0.06,464.73 -0.03,125.35 -12,345.31 6.07,455.9 20.19,60.92 56.65,85.68 134.98,87.33 74.12,1.56 150.31,-0.09 224.66,-0.09 131.5,0 321.11,30.24 335.11,-112.98l0.61 -541.35c65.46,-5.93 524.36,-8.25 566.1,2.69l2.06 549.17c36.66,131.73 160.46,102.48 306.04,102.48 107.63,0 312.56,25.35 368.23,-46.75 48.19,-62.41 28.39,-294.04 28.38,-392.22l-1.33 -1474.68c-7.68,-54.02 -60.46,-83.98 -97.48,-113.17l-249.72 -178.96c-43.46,19.34 -317.23,220.81 -343.64,261.68 -30.67,47.46 -6.87,490.73 -14.78,591.06l-560.37 -0.11c-3.6,-92.94 13.83,-547.93 -12.49,-590.58 -26.33,-42.68 -289.79,-244.22 -333.01,-263.19 -74.6,55.04 -323.15,214.78 -354.82,274.18z"/>
   <path class="fil1" d="M629.2 2111.22l-1.95 -46.76c-42.7,-13.92 -63.41,-91.84 -179.01,-68.67 -103.02,20.65 -102.7,105.73 -118.08,143.34 -65.19,20.29 -104.57,15.32 -143.18,-23.41l-1.82 -13.61c-6.68,-16.73 -14.61,-43.63 8.08,-55.26 6.54,-39.13 -4.14,-12.53 13.34,-26.23 8.59,-28.18 13.97,-27.67 44.57,-36.97l5.5 -16.7c-92.1,22.53 -101.53,-35.84 -56.37,-56.6l131.88 -27.97c1.14,-0.41 3.58,-1.4 5.24,-2.35 -40.59,0.13 -83.86,16.14 -119.85,15.22 -52.84,-1.35 -60.63,-53.61 -15.14,-71.79 -28.05,-20.28 -29.53,-7.7 -47.45,-39.48 15.23,-27.31 9.69,-30.42 49.41,-40.25l-19.52 -9.4c-18.47,-8.36 -28.39,-3.62 -26.82,-38.49 1.22,-27.11 7.67,-27.34 29.98,-32.65l-8.56 -8.76c-20.91,-24.57 -15.46,-24.56 -14.38,-47.65l19.68 -11.16c31.16,-33.6 56.99,-11.7 97.39,-19.17 42.33,-7.83 11.34,-1.43 25.33,-11.51 -68.57,9.61 -99.45,-71.36 -75.47,-109.48 55.78,-37.16 98.45,47.22 97.06,88.14l-22.61 21.3 21.26 -2.3c46.85,-12.16 60.09,-38.55 125.84,-28.16l-3.93 51.54 42.43 -2.17c38.39,52.25 19.3,37.68 -9.39,76.8 61.38,-7.04 55.46,3.37 68.46,45.31 -0.24,0.14 -11.78,7.15 -11.79,7.16 -13,10.3 -5.9,4.75 -15.5,15.45 29.7,2.06 53.15,8.96 50.5,38.09 -2.45,26.87 -16.85,23.07 -33.95,43.77l67.53 0.3c10.51,55.55 -6.43,57.85 -53.04,67.19l5.83 11.22c27.49,-4.92 44.53,-10.79 63.33,4.58 22.31,-63.13 -4.21,-274.25 8.7,-356.06 16.63,-53.71 30.8,-48.15 94.22,-49.93 -9.52,-33.05 -63.99,-80.04 -84.24,-96.25 -30.88,-24.73 -76.65,-52.45 -88.52,-77.6 -43.99,-11.25 -156.56,-103.01 -341.91,-148.46 -26.41,-6.48 -119.69,-15.08 -129.42,-27.19l-10.54 -1.18c-8.58,114.91 -11.07,939.39 7.43,1002.1 66.1,26.73 207.69,13.84 290.48,13.8 121.22,-0.06 227.5,20.74 258.98,-41.68z"/>
   <path class="fil2" d="M1480.11 1275.36c-11.82,18.52 -105.56,82.45 -129.72,102.64 -32.15,26.88 -87.5,74.94 -111.1,110.89 65.55,-2.48 92.84,-9.19 110.6,53.11 -2.25,47.42 -5.68,99.82 11.59,144.15l98.5 12.99 164.69 -3.11 87.16 -16.69 24.36 0.53c16.85,-16.33 47.07,-20.5 76.84,-18.92 10,-12.55 -4.79,-7.65 25.08,-17.66 6.9,-2.31 29.56,-4.73 38.14,-6.08l31.63 -7.43 0.19 -476.84 -30.53 -0.99c-72.51,-3.33 -150.88,25.64 -215.96,47.75 -47.6,16.17 -150.24,72.92 -181.49,75.64z"/>
   <path class="fil3" d="M4074.86 1524.97c39.56,11.01 99.87,8.65 140.83,1.86l2.81 -334.39c28.04,30.39 185.19,289.16 211.07,336.89l152.34 -3.19 2.01 -503.36c-0.09,-43.24 7.46,-59.25 -38.45,-61.35 -25.99,-1.19 -79.93,-2.01 -102.96,5.26 -14.93,93.02 -6.44,208.48 -6.84,305.63 -25,-18.6 -149.24,-220.35 -174.31,-262.58 -35.37,-59.59 -17.74,-47.58 -149.21,-47.55 -60.24,0.02 -40.59,46.92 -40.43,108.66 0.25,101.42 -6.62,392.47 3.16,454.12z"/>
   <path class="fil3" d="M6074.57 1099.48c202.82,-49.56 241.83,254.14 74.44,293.51 -204.15,48.03 -253.87,-249.67 -74.44,-293.51zm330.66 201.32l-1.4 -109.5c-31.96,-136.8 -149.13,-250.36 -320.98,-236.23 -150.11,12.35 -272.5,134.45 -271.63,292.02 1.82,329.6 488.63,422.86 594.01,53.71z"/>
   <path class="fil4" d="M428.98 385.12c-53.98,1.69 -114.09,-1.54 -146.07,-27.39 -3.85,-133.37 63.93,-31.2 57.28,-159.91 -33.73,-1.37 -27.16,6.38 -44.55,-16.37l12.59 -6.75c1.86,-0.81 4.31,-1.98 6.28,-2.77l24.24 -6.5c4.63,-42.65 -7.64,-29.5 15.46,-39.87 19.75,9.94 5.5,19.48 27.57,37 19.53,15.5 19.77,-10.92 33.09,29.85l-44.99 13.05 -1.01 50.62c58.76,32.01 59.4,42.78 60.13,129.05zm-356.82 741.6l132.77 -23.81c19.53,-128.12 34.78,-49.84 2.44,-120.13 -33.08,-1.25 -79,13.72 -84.19,-25.09 -3.97,-29.64 29.62,-45.26 52.63,-56.88 -18.75,-21.36 -12.8,-21.13 -15.4,-53.03 -37.48,-5.47 -32.09,-1.74 -63.77,-15.82 -13.33,-61.56 20.82,-56.16 64.58,-65.31 4.13,-49.98 11.72,-44.69 -17.34,-70.35 -19.73,-17.43 -32.85,-18.77 -14.05,-58.65 29.72,-10.54 43.01,-4.1 72.12,-0.97 8.07,-10.4 19.26,-31.28 25.29,-46.59 -20.71,-36.83 -26.59,-18.31 -16.4,-77.36 69.57,-14.12 33.72,4.67 79.93,21.81l43.55 -32.59c-6.47,-30.37 -26.63,-36.96 2.88,-62.74 35.92,-30.07 54.61,10.23 73.37,32.73l49.13 -8.33c16.33,-45.47 2.44,-69.39 62.61,-64.95 10.05,17.2 8.88,15.13 14.77,33.52 9.7,30.27 -6.47,17.01 15.48,31.99 82.71,56.4 86.42,-133.89 68.32,-179.92 -22.43,-26.63 -221.55,-187.52 -258.69,-201.6 -49.43,19.3 -151.54,102.3 -195.79,135.34 -122.88,91.74 -95.4,58.68 -95.38,243.9 0.02,208 -13.17,462.91 1.13,664.82z"/>
   <path class="fil3" d="M2405.93 1524.54l1.98 -230.53 197.65 2.19 0.89 224.18c22,16.01 132.28,17.35 145,-2.21 7.43,-26.06 7.18,-525.2 -1.47,-550.03 -3.16,-1.19 -130.2,-30.09 -143.74,16.06l-2.89 173.95 -194.42 2.2 -0.68 -193.87 -148.1 -3.79 -2.59 565.8c43.96,3.49 112.6,9.18 148.37,-3.94z"/>
   <path class="fil5" d="M1402.99 714.75c-4.99,15.51 -3.39,3.71 -0.16,12.64 0.21,0.58 1.4,3 1.66,3.56l4.81 6c-46.27,13.03 -60.55,-10.22 -44.41,-46.4l65.27 -7.48c-1.92,43.24 3.43,30.71 -27.17,31.67zm410.14 -78.48l-17.15 16.99c-10.42,7.42 -3.41,2.49 -15.53,6.73 -13.07,-27.92 12.42,4.96 0,-20.69 -63.22,4.33 17.54,10.5 -48.08,29.2 -13.47,-26.88 2.6,3.47 4.87,-16.39 0.29,-2.53 2.4,-3.11 3.29,-4.86 -42.03,-2.36 23.82,-2.28 -15.04,1.2 -27.88,2.49 -18.23,6.59 -33.34,-2.27 2.41,-31.77 -0.93,-19.83 38.44,-34.35 27.74,-10.23 28.39,-10.82 58.29,-12.24l18.64 24.83 -3 -42.26c38.52,-3.26 33.13,-6.96 68.55,4.61 2.93,17.33 3.86,11.49 3.98,27.36 0.16,21.87 -2.84,20.23 -3.65,23.18 -22.54,6.78 -43.53,21.81 -60.28,-1.05zm-454.59 -342.35c-1.19,1.66 -2.44,2.46 -2.75,5.49 -0.89,8.79 -7.48,-1.81 -6.57,58.03l-1.26 533.61c45.16,-4.52 16.49,13.99 59.72,24.55l37.35 -234.1 165.96 -52.85c25.87,-8.35 37.12,-16.53 56.35,-5.28 27.27,47.86 17.51,358.78 33.64,447.5 37.58,18.3 108.12,32.04 152.62,38.96 29.35,4.57 37.78,-0.13 47.08,17.13l-25.53 5.3 2.41 19.72 30.53 0.99 -0.19 476.84 1.57 44.71 0.48 12.73 -1.91 26.09 1.85 51.65 -1.35 344.93c10.03,-25.12 4.83,-1351.31 5.11,-1599.92l0.59 -168.74c0.17,-37.89 6.58,-34.41 -13.55,-55.07l0.09 259.34 -46.27 3.4 -7.18 -49.17c-27.21,-9.24 -39.64,1.64 -78.13,4.08l-8.18 -45.9c-28.25,0.14 -385.69,128.09 -399.77,138.54l-2.7 -302.53z"/>
   <path class="fil6" d="M554.18 1313.83c47.74,-40.94 57.9,-8.1 94.56,-67.2 54.76,13.24 24.93,9.2 76.75,-1.02 7.85,15.21 33.19,65.87 44.51,74.8 16.14,12.72 67.41,24.88 97,24.26 46.73,-11.97 104.75,-159.6 256.86,-97.93 105.79,42.89 245.84,-4.42 356.25,28.62 31.24,-2.73 133.89,-59.47 181.49,-75.64 65.08,-22.11 143.45,-51.08 215.96,-47.75l-2.41 -19.72 -893.26 1.35c-299,6.04 -599.92,-0.86 -899.04,4.59 9.73,12.1 103,20.71 129.42,27.19 185.35,45.45 297.92,137.21 341.91,148.46z"/>
   <path class="fil7" d="M1457.07 706.81c32.03,-20.37 92.79,-34.22 133.59,-50.51 80.66,-32.22 65.47,-13.82 69.42,69.92 4.03,85.48 23.6,259.41 12.87,335.94l-48.47 -19.19 -16.25 -325.58c-10.95,-5.92 -1.28,-3.8 -19.83,-4.97 -28.69,-1.81 5.56,-1.51 -13.09,0.58 -0.34,0.03 -23.26,6.12 -25.28,6.69 -73.68,20.82 -51.17,4.37 -83.38,240.46l-35.78 -20.83c-8.31,-44.5 15.89,-181.75 26.21,-232.51zm-109.11 184.23c-15.28,24.13 -14.75,26.69 -45.63,37.36 -59.42,22.01 -240.42,-12.6 -318.89,10.45l-1.55 194.75 893.26 -1.35 25.53 -5.3c-9.3,-17.26 -17.73,-12.56 -47.08,-17.13 -44.5,-6.92 -115.05,-20.66 -152.62,-38.96 -16.13,-88.72 -6.37,-399.64 -33.64,-447.5 -19.23,-11.25 -30.48,-3.07 -56.35,5.28l-165.96 52.85 -37.35 234.1c-43.23,-10.56 -14.56,-29.07 -59.72,-24.55z"/>
   <path class="fil3" d="M3363.31 968.34c-23.01,-14.05 -101.05,-11.27 -131.94,-1.64 -47.8,95.37 71.06,432.43 -97.13,440.69 -163.06,8.01 -76.5,-239.31 -104.89,-439.47 -25.88,-7.47 -70.45,-7.12 -103.95,-6.45 -49.34,0.99 -45.54,12.84 -45.17,60.67 0.59,75.01 0.53,149.99 0.47,225.02 -0.12,152.18 33.05,253.13 169.81,283.51 150.18,33.37 270.93,-20.2 310.31,-129.65 23.6,-65.57 15.93,-285.16 15.71,-378.78l-13.22 -53.9z"/>
   <path class="fil3" d="M4711.7 962.53l-2.27 324.67c0.01,160.71 80.96,250.42 243.97,252.1 170.47,1.76 250.3,-86.12 251.16,-252.1l-2.02 -320.62 -147.08 -4.17 -2.39 316.78c-0.64,171.34 -162.54,153.98 -186.82,63.51 -21.42,-79.84 5.3,-276.27 -8.32,-376.33l-146.23 -3.84z"/>
   <path class="fil3" d="M3691.46 1187.4c3.36,-9.51 5.73,-15.68 10.01,-23.42 6.42,-11.59 5.41,-9.26 10.21,-15.66l52.53 167.53 -112.11 -1.11 39.36 -127.33zm-266.34 338.5l144.95 3.11c41.55,-113.65 5.41,-90.21 213.54,-90.5 31.71,-0.04 30.91,4.91 43.64,37.52 7.07,18.12 13.96,36.37 19.68,51.62l145.38 0.8c-4.14,-46.18 -91.8,-247.69 -114.48,-303.41 -19.72,-48.44 -39.09,-98.82 -58.99,-149.35 -45.04,-114.39 -30.54,-113.41 -99.33,-113.54 -99.88,0.09 -82.31,15.15 -115,97.83 -33.37,84.44 -175.16,428.54 -179.4,465.92z"/>
   <path class="fil7" d="M1621.09 168.69c-1.06,-30.67 -5.08,-22.33 7.12,-44.62 21.9,7.65 9.15,-4.94 24.03,41.94 17.58,2.77 29.26,3.36 42.49,15.44l-46.14 18.97 -0.55 57.76c27.42,12.86 36.84,11.44 50.21,37.6 11.95,23.37 10.92,47.48 5.51,72.77l-142.14 23.49c-8.57,-193.3 61.52,-55.77 58.17,-186.56l-23.26 -9.39c-6.66,-1.91 -15.84,-2.45 -23.76,-4.85 10.1,-30.05 7.21,-21.77 48.32,-22.57zm-262.55 125.23l2.7 302.53c14.08,-10.45 371.52,-138.4 399.77,-138.54l8.18 45.9c38.49,-2.43 50.92,-13.32 78.13,-4.08l7.18 49.17 46.27 -3.4 -0.09 -259.34c-2.56,-25.88 -7.74,-15.81 -57.36,-55.5l-207.1 -150.25 -212.75 152.62c-28.62,22.66 -55.37,37.09 -64.94,60.88z"/>
   <path class="fil7" d="M554.18 1313.83c11.87,25.16 57.64,52.87 88.52,77.6 20.24,16.22 74.71,63.21 84.24,96.25l512.36 1.2c23.6,-35.95 78.95,-84 111.1,-110.89 24.16,-20.19 117.9,-84.13 129.72,-102.64 -110.41,-33.03 -250.46,14.28 -356.25,-28.62 -152.11,-61.67 -210.13,85.96 -256.86,97.93 -29.59,0.62 -80.86,-11.54 -97,-24.26 -11.32,-8.93 -36.66,-59.59 -44.51,-74.8 -51.82,10.22 -21.99,14.26 -76.75,1.02 -36.66,59.11 -46.82,26.26 -94.56,67.2z"/>
   <path class="fil8" d="M371.47 1040.25c43.56,-6.27 104.57,-47.58 139.01,-70.08 25.54,-16.69 107.6,-60.35 112.67,-89.57 -8.57,-43.18 -9.78,-277.29 -0.98,-318.33 -155.13,-64.85 -292.53,11.15 -352.11,119.82 -73.86,134.7 -4.9,310.17 101.41,358.16z"/>
   <path class="fil3" d="M5771.16 1479.51c-5.08,-31.97 -51.68,-87.47 -72.51,-113.12 -57.25,9.77 -83.86,54.3 -168.38,17.06 -111.32,-49.05 -115.5,-214.93 -7.6,-272.19 83.59,-44.36 118.78,3.43 178.16,15.7 16.68,-30.24 63.36,-80.1 69.83,-112.18 -139.67,-133.56 -467.74,-44.14 -475.23,224.2 -7.96,285.39 344.33,369.47 475.73,240.53z"/>
   <path class="fil9" d="M826.85 1040.62l24.13 -1.77 13.43 33.73c2.11,15.34 1.77,21.13 1.43,35.72l-49.43 -0.39 10.43 -67.29zm6.19 -65.04c24.16,7.48 25.08,5.39 21.47,42.69l-27.13 -0.24 5.66 -42.45zm-473.39 77.8l-14.69 -1.21c-23.98,24.86 -100.01,43.57 -140.03,50.74l-132.77 23.81 0.15 10.29 10.54 1.18c299.12,-5.45 600.04,1.45 899.04,-4.59l1.55 -194.75c78.47,-23.04 259.47,11.57 318.89,-10.45 -50.2,0.14 -427.6,-10.22 -448.43,9.95l-10.93 20.14c-1.35,-1.58 -2.64,-6.69 -3.16,-5.36 -0.51,1.29 -2.49,-4.18 -3.2,-5.13 -0.68,-0.9 -2.4,-3.68 -3.25,-4.71 -12.45,-15.27 6.13,-6.02 -14.43,-13.39l-131.93 -1.29 60.62 1.82c-9.45,59.69 -86.79,118.68 -147.23,138.25 -132.39,42.87 -158.44,-16.58 -240.74,-15.29z"/>
   <path class="fil10" d="M5376.1 1842.52c6.45,-54.79 49.14,-135.01 104.46,-129.62 2.51,65.85 -47.3,120.53 -104.46,129.62zm344.62 -129.4c6.05,56.98 -0.09,9.24 -14.67,37.83 -13.06,25.62 -0.43,25.87 -10.45,53.53 -5.64,15.57 -44.26,61.66 -64.65,31.17 -20.71,-30.96 28.35,-151.55 89.77,-122.54zm-829.65 52.61c-9.28,50.11 3.08,17.96 -20.35,29.06 -1.74,33.28 -13.78,22.78 -7.03,64.01 43.03,10.27 76.13,-15.8 93.66,-43.61 10.33,-18.09 -0.54,-9.54 19.17,-23.81 4.1,7.62 12.63,-3.87 -1.36,21.09 -0.53,0.96 -2.82,3.01 -4.14,4.59 -20.94,123.98 134.64,-32.53 140.33,-38.63 -12.73,32.29 -37.51,56.21 -31.83,81.36 34.98,7.91 31.51,-2.07 86.24,-63.67 22.91,-25.78 51.06,-66.98 92.04,-78.99 -17.98,49.93 -71.02,84.61 -57.11,139.89 52.07,12.94 86.63,-25.68 142.88,-79.58 -23.34,102.06 52.89,104.77 79.66,60.06 2.1,1.04 4.66,1.15 5.64,4.22 1.51,4.76 27.74,42.33 84.37,-2.57 31.22,-24.75 47.7,-43.75 73.16,-63.38 -8.05,74.37 40.77,120.17 95.72,71.93 11.1,-9.75 13.28,-16.94 22.88,-25.01 25.04,-21.06 -0.06,-5.43 33.34,-14 35.13,-9.02 45.11,-16.83 60.95,-38.78 -37.19,3.26 -13.45,20.4 -69.82,22.18 7.1,-33.66 28.59,-77.23 -3.07,-100.14 -54.34,-39.33 -107.61,38.46 -124.86,59.38 -8.45,10.25 -99.76,81.97 -124.1,85.7 19.23,-55.14 122.78,-190.77 127.33,-216.9 2.39,-13.74 1.45,-8.42 -1.13,-15.44 -39.71,-9.99 -85.04,80.34 -96.04,111.3 -17.71,-13.93 -13.73,-19.24 -33.6,-28.33 -14.44,-6.6 -25.97,-4.35 -38.62,0.54 -49.68,19.19 -56.52,56.2 -95.97,81.37 -51.26,32.71 -54.61,50.85 -103.26,67.78 12.41,-47.47 73.91,-100.3 64.79,-135.56 -28.06,-45.15 -104.36,34.61 -121.97,48.84 11.63,-26.25 40.79,-53.36 6.57,-58.28 -26.67,-3.83 -40.82,38.69 -52.25,55.13 -16.45,23.65 -99.78,87.18 -128.09,88.99 17,-50.12 68.28,-102.02 75.83,-140.11 -70.53,-12.2 -87.04,101.97 -182.76,143.21 16.65,-55.22 65.3,-101 76.05,-140.73 -48.03,-16.15 -56.21,33.68 -83.23,66.89z"/>
   <path class="fil11" d="M1522.51 1788.76c-27.69,2.59 -79.82,5.84 -97.9,-12.79 22.22,-5.85 -20.22,-7.15 27.22,-10.23 51.09,-3.31 62.23,0.32 70.67,23.02zm-163.27 -45.68c31.2,12.28 40.08,3.77 47.98,34.97l-44.21 -7.25 -3.77 -27.72zm311.48 24.88c10.78,-20.25 -15.23,-11.96 24.17,-20.69l81.96 -11.4 -52.54 29.5c-64.85,22.75 -44.72,6.97 -53.59,2.58zm-65.67 -56.09c2.69,39.61 -3.72,33.95 -48.34,37.97 -26.49,2.39 -49.45,7.11 -74.1,-3.43l3.47 -40.65 118.97 6.1zm-250.48 397.45c-9.44,-47.2 -11.08,-102.21 6.45,-146.91l0.43 -31.09 23.26 25.53c18.89,13.84 19.52,19.04 27.3,13.21l-9.26 27.07 25.94 -1.88 13.31 23.9 -32.52 1.44c1.19,2.03 2.91,2.71 3.47,6.14 0.89,5.47 38.13,60.27 28.22,118.25l-51.36 1.48 103 6.01c0.58,-28.52 -2.91,-52.2 -8.66,-78.02l-23.55 -65.23c-22.75,-39.92 -35.65,-72.28 -104.89,-97.02l1.25 -65.17c89.19,39.11 292.92,11.77 402.29,-8.54 15.66,-2.91 53.16,-12.42 58.76,-14.5l63.49 -23.97c-32.05,-21.94 -32.49,1.57 -81.64,0l110.04 -35.04 -1.85 -51.65c-74.93,8.82 -75.99,38.32 -110.5,22.59 15,-24.64 80.65,-36.68 112.41,-48.68l-0.48 -12.73 -49.95 5.79 -10.29 -24.51c2.6,-1.24 11.63,-5.4 12.31,-5.83 11.85,-7.66 6.99,-4.84 14.72,-12.73 -8.58,1.35 -31.25,3.77 -38.14,6.08 -29.87,10 -15.08,5.11 -25.08,17.66l22.27 2.84c1.92,30.18 -3.36,32.4 -36.06,40.22 -21.05,5.04 -49.74,14.01 -55.2,16.9l-7.86 -41.04 -24.36 -0.53 9.19 40.54c-26.58,9.07 -58.83,24.16 -94.28,16.57l-2.07 -40.41 -164.69 3.11 -0.25 46.35 -100.59 -15.81 2.34 -43.53c-17.26,-44.33 -13.84,-96.73 -11.59,-144.15l4.68 567.32z"/>
   <path class="fil12" d="M204.93 1102.91c40.01,-7.18 116.04,-25.88 140.03,-50.74 -120.15,33.91 -286.58,-410.52 47.32,-535.64 46.77,-17.53 88.57,-22.44 137.78,-17.15 60.56,6.5 102,-0.91 92.11,62.9 -8.8,41.04 -7.59,275.15 0.98,318.33l10.35 0c-1.23,-75.66 11.33,-572.39 -12.61,-596.33 18.1,46.03 14.39,236.32 -68.32,179.92 -21.96,-14.97 -5.78,-1.72 -15.48,-31.99 -5.9,-18.4 -4.73,-16.32 -14.77,-33.52 -60.16,-4.44 -46.27,19.48 -62.61,64.95l-49.13 8.33c-18.76,-22.51 -37.45,-62.8 -73.37,-32.73 -29.52,25.77 -9.36,32.36 -2.88,62.74l-43.55 32.59c-46.22,-17.13 -10.36,-35.93 -79.93,-21.81 -10.18,59.04 -4.31,40.53 16.4,77.36 -6.02,15.31 -17.22,36.19 -25.29,46.59 -29.11,-3.13 -42.4,-9.57 -72.12,0.97 -18.8,39.88 -5.68,41.22 14.05,58.65 29.05,25.66 21.46,20.37 17.34,70.35 -43.76,9.15 -77.9,3.75 -64.58,65.31 31.68,14.08 26.28,10.35 63.77,15.82 2.6,31.89 -3.35,31.66 15.4,53.03 -23.01,11.62 -56.59,27.24 -52.63,56.88 5.19,38.81 51.12,23.84 84.19,25.09 32.34,70.29 17.08,-7.99 -2.44,120.13z"/>
   <path class="fil13" d="M1492.8 2152.47l25.44 0.57c4.57,-37.51 17.35,-114.26 46.14,-142.87 30.66,-111.68 212.66,-165.84 310.33,-49.91 -26.76,19.48 -20.34,5.2 -29.93,24.04 15.58,32.17 16.11,7.37 37.14,59.88 9.34,23.3 14.72,54.04 25.55,75.04l1.07 -9.33 1.35 -344.93 -110.04 35.04c49.15,1.57 49.59,-21.94 81.64,0l-63.49 23.97c-5.59,2.08 -43.1,11.59 -58.76,14.5 -109.37,20.32 -313.1,47.66 -402.29,8.54l-1.25 65.17c69.24,24.74 82.14,57.1 104.89,97.02l23.55 65.23c5.75,25.82 9.24,49.5 8.66,78.02z"/>
   <path class="fil14" d="M1548.08 2105.1c-25.02,-39.19 -12.07,-40.5 26.96,-43.32 -2.93,32.2 2.03,33.3 -26.96,43.32zm16.29 -94.92l32.7 3.43c-7.13,41.99 -0.58,34.31 -32.97,38.73 -8.17,-15.49 -7.55,8.65 -5.76,-24.39 0.02,-0.28 5.34,-15.2 6.03,-17.78zm18.92 -4.99c5.94,-44.59 16.19,-55.88 47.75,-28.89 -14.74,23.2 -15.79,26.44 -47.75,28.89zm226.81 -42.12c-46.54,-31.73 46.94,-56.15 38.81,0.54 -15.84,6.71 19.09,7.47 -20.16,5.75 -10.49,-0.46 -10.3,-0.6 -18.65,-6.3zm-162.67 -41.26c32.45,-7.87 24.79,1.69 33.22,11.1 2.02,35.56 -35.9,34.12 -63.38,23.18 6.72,-18.38 6.21,-28.46 30.16,-34.27zm135.59 -13.08c25.6,11.36 16.22,13.07 15.94,20.89 -0.75,0.53 -4.39,18.7 -34.64,10.75 -28.54,-7.5 -14.47,-2.66 -19.02,-28.17 18.29,-11.43 16,-13.12 37.72,-3.47zm-59.71 28.59c-25.47,8.74 -33.19,-6.01 -34.33,-6.59 -12.87,-42.03 25.77,-30.5 53.75,-20.75 -7.46,23.26 1.76,20.08 -19.42,27.35zm-158.94 72.86c-28.79,28.61 -41.57,105.36 -46.14,142.87l10.52 -0.36c2.98,-40.78 -5.93,-27.74 19.32,-42.91 24.29,13.5 23.11,11.92 11.64,43.09 62.49,-1.33 125.94,-0.1 188.68,-0.3 74.16,-0.23 122.35,14.56 159.06,-33.33 -10.83,-21.01 -16.21,-51.74 -25.55,-75.04 -21.03,-52.51 -21.57,-27.71 -37.14,-59.88 9.59,-18.84 3.17,-4.55 29.93,-24.04 -97.67,-115.93 -279.67,-61.77 -310.33,49.91z"/>
   <path class="fil10" d="M3319.97 1840.84c6.78,-60.76 49.78,-126.48 104.78,-130.83 0.36,41.82 -9.45,61.16 -30.13,85.66 -21.1,25.01 -34.62,43.28 -74.66,45.17zm-248.9 -8.78c18.68,-49.75 76.84,-104.08 128.75,-118.77 -0.89,37.68 -16.01,60.13 -37.53,82.45 -21.99,22.81 -41.58,44.53 -91.22,36.31zm526.76 -73.61l-6.47 -2.29c11.51,-30.07 41.82,-58.95 7.68,-63.8 -34.33,-4.88 -30.99,44.56 -76.55,79.02 -29.8,22.54 -70.65,58.46 -101.12,66.8 13.51,-58.83 64.91,-91.59 74.34,-142.48 -42.39,-6.27 -34.48,-5.28 -51.21,22.18 -39.7,-64.25 -83.44,-25.11 -117.25,10.43 -33.83,35.56 -66.6,68.55 -123.02,89.87 5.36,-10.19 76.73,-102.6 16.86,-127.4 -49.58,-3.55 -60.19,25.4 -92.8,43.67 28.54,-54.75 17.33,-103.24 -70.02,37.42 -22.83,36.77 -87.43,134.53 -94.34,172.91 63.02,2.65 33.86,-19.42 98.56,-98.92 121.26,43.47 143.06,-7.18 223.04,-64.5l-2.17 67.84c51.42,24.32 56.45,13.63 94.54,-13.18 20.34,36.82 33.4,35.93 68.01,11.27 31.23,-22.25 44.14,-36.03 72.32,-59.2 -9.41,28.3 -30.57,47.58 -25.27,71.82 40.96,8.64 17.12,3.08 84.17,-66.03l20.72 -35.43z"/>
   <path class="fil15" d="M186.97 2115.73c38.61,38.74 77.99,43.7 143.18,23.41 15.38,-37.62 15.07,-122.69 118.08,-143.34 115.6,-23.17 136.31,54.75 179.01,68.67l-1.93 -139.26c-63.7,25.23 -47.09,1.23 -78.82,-23.06 -21.45,10.04 -19.95,19.64 -41.76,23.62 -26.15,4.77 -30.31,-7.93 -62.41,-8.62 -43.24,51.28 -42.45,34.99 -96.71,19.38l-26.43 47.79 -50.19 -3.99 -13.5 49.22c-16.1,6.96 -23.56,9.59 -46.06,5.71 0.46,8.52 5.19,48.01 4.58,53.55 -2.9,26.63 1.89,26.8 -27.06,26.92z"/>
   <path class="fil16" d="M344.96 1052.17l14.69 1.21 11.83 -13.14c-106.31,-47.99 -175.27,-223.46 -101.41,-358.16 59.58,-108.67 196.97,-184.67 352.11,-119.82 9.88,-63.81 -31.55,-56.39 -92.11,-62.9 -49.21,-5.28 -91,-0.37 -137.78,17.15 -333.91,125.12 -167.47,569.56 -47.32,535.64z"/>
   <path class="fil17" d="M1457.07 706.81c-10.32,50.76 -34.52,188.01 -26.21,232.51l35.78 20.83c32.21,-236.1 9.71,-219.65 83.38,-240.46 2.02,-0.57 24.94,-6.65 25.28,-6.69 18.66,-2.09 -15.59,-2.38 13.09,-0.58 18.55,1.17 8.88,-0.96 19.83,4.97l16.25 325.58 48.47 19.19c10.72,-76.54 -8.84,-250.46 -12.87,-335.94 -3.94,-83.74 11.24,-102.14 -69.42,-69.92 -40.79,16.29 -101.56,30.14 -133.59,50.51z"/>
   <path class="fil14" d="M371.47 1040.25l-11.83 13.14c82.3,-1.29 108.35,58.17 240.74,15.29 60.44,-19.57 137.78,-78.56 147.23,-138.25l-60.62 -1.82c-31.63,-8.53 -44.26,-17.95 -53.5,-48.01l-10.35 0c-5.07,29.22 -87.14,72.88 -112.67,89.57 -34.44,22.51 -95.44,63.82 -139.01,70.08z"/>
   <path class="fil0" d="M3784.09 726.32c-37.17,70.95 -25.09,104.02 -120.8,121.99 25.64,37.72 42.42,8.07 -38.16,50.95 54.86,10.4 56.83,-4.07 92.02,-23.69 49.85,-27.79 156.25,-7.11 178.83,-198.94l36.22 -4.85c0.94,-0.23 3.46,-0.75 5.01,-1.55 -3.6,-125.08 -116.07,74.09 -273.53,-86.27 -3.45,38.71 8.63,68.47 31.22,94.78 10.08,11.74 17.37,19.52 36.49,27.71l52.7 19.87z"/>
   <path class="fil18" d="M380.42 1700.67c-1.86,1.75 -4.28,3.85 -6,4.79l-93.92 23.52c-35.6,0.59 -68.75,12.66 -95.66,5.36l19.52 9.4c-39.72,9.83 -34.18,12.94 -49.41,40.25 17.92,31.78 19.4,19.2 47.45,39.48l129.89 -23.71 42.94 -9.3 148.59 -61.92c9.6,-10.7 2.5,-5.14 15.5,-15.45 0.01,-0.01 11.55,-7.02 11.79,-7.16 -12.99,-41.94 -7.08,-52.35 -68.46,-45.31 -32.02,9.32 -77.57,29.57 -102.23,40.04z"/>
   <path class="fil10" d="M4870.72 1794.79l-0.05 -21.4c-31.55,24.13 -48.78,48.7 -93.3,63.92 7.63,-50.34 59.21,-81.83 68.44,-131.04 -38.36,-34.39 -83.09,-0.16 -109.19,27.53l-30.97 34.24c1.36,-3.59 7.63,-21.02 8.22,-22.04 13.12,-22.53 1.35,-3.8 13.35,-14.15 22.36,-40.18 -9.96,-51.51 -45.74,-36.55 -26.36,11.02 -54.94,41.54 -71.83,55.21 11.55,-25.25 35.66,-46.28 11.74,-56.64 -19.89,-8.62 -39.78,23.68 -48.67,37.73 -14.78,23.38 -59.75,91.48 -62.75,117.82 -0.14,1.23 0.12,4.29 0.07,5.29 -0.05,1 -0.02,3.56 0.36,5.28 34.32,7.4 31.95,-2.85 86.31,-64.06 22.81,-25.68 50.97,-66.92 91.97,-78.81 -11.98,38.96 -41.06,69.61 -58.38,105.48 -2.97,6.15 -4.56,6.88 -6.22,15.43l0.72 13.75c5.4,44.6 79.44,-55.66 81.61,-58.44 25.77,-32.97 46.18,-58.81 91.39,-75.67 -17.48,47.24 -70.11,88.88 -56.74,134.02 31.4,45.22 103.05,-50.85 129.66,-56.91z"/>
   <path class="fil10" d="M4162.95 1765.68c11.88,-26.94 34.57,-61.47 66.27,-66.65 0.77,38.38 -31.32,60.77 -66.27,66.65zm-17.85 74.54l6.39 -56.58c44.5,-20.32 119.11,-15.74 93.23,-91.95 -84.12,-36.18 -158.87,76.95 -143.21,160.29 74.72,29.58 128.75,-40.57 171.69,-67.56 -2.65,6.89 -15.36,32.85 -15.83,34.88 -21.59,94.17 115.47,0.99 141.66,-52.18 -41.16,16.59 -60.51,61.47 -107.74,70.37 16.7,-40.72 40.23,-77.8 64.31,-114.64l57.09 -87.99c0.1,-0.18 12.04,-10.57 4.77,-29.85 -37.6,-10.65 -85.43,85.05 -113.12,130.77l-30.99 33.4c-19.05,12.21 -18.22,9.29 -36.82,27.01 -24.59,23.43 -47.31,47.13 -91.43,44.03z"/>
   <path class="fil19" d="M338.74 165.43l-24.24 6.5c-1.97,0.79 -4.42,1.95 -6.28,2.77l-12.59 6.75c17.39,22.75 10.82,15 44.55,16.37 6.65,128.7 -61.13,26.54 -57.28,159.91 31.98,25.84 92.1,29.07 146.07,27.39 -0.73,-86.26 -1.37,-97.04 -60.13,-129.05l1.01 -50.62 44.99 -13.05c-13.31,-40.77 -13.55,-14.35 -33.09,-29.85 -22.07,-17.51 -7.82,-27.06 -27.57,-37 -23.09,10.37 -10.83,-2.78 -15.46,39.87z"/>
   <path class="fil5" d="M1698.24 295.78c-13.37,-26.16 -22.78,-24.74 -50.21,-37.6l0.55 -57.76 46.14 -18.97c-13.23,-12.08 -24.91,-12.67 -42.49,-15.44 -14.88,-46.88 -2.13,-34.3 -24.03,-41.94 -12.2,22.29 -8.18,13.95 -7.12,44.62 -41.11,0.79 -38.22,-7.49 -48.32,22.57 7.92,2.4 17.09,2.94 23.76,4.85l23.26 9.39c3.36,130.79 -66.74,-6.74 -58.17,186.56l142.14 -23.49c5.4,-25.29 6.43,-49.4 -5.51,-72.77z"/>
   <path class="fil10" d="M3750.44 1842.48c7.55,-63.32 47.89,-131.35 104.82,-131.11 1.95,65.88 -45.31,122.46 -104.82,131.11zm-30.88 -67.31c-8.29,32.63 -9.93,44.46 -2.22,76.05 54.74,23.55 52.96,6.72 94.95,-12.85 18.59,46.33 53.22,19.32 79.46,-2.29 28.04,-23.1 55.34,-40.09 67.91,-69.72 -42.21,21.58 -59.12,60.19 -108.87,71.02 17.6,-50.48 69.51,-105.42 75.5,-140.37 -30.78,-6.62 -32.55,0.48 -49.42,20.62 -13.97,-21.96 -5.76,-25.34 -33.4,-32.59 -48.98,-12.86 -98.53,55.57 -123.9,90.14z"/>
   <path class="fil20" d="M375.23 1790.46l16.66 68.89 36.84 -6.41c33.94,-7.77 75.45,-29.96 111.64,-42.55 17.1,-20.7 31.5,-16.9 33.95,-43.77 2.65,-29.13 -20.8,-36.03 -50.5,-38.09l-148.59 61.92z"/>
   <path class="fil10" d="M5678.32 792.93l-62.53 3.51c-7.13,-36.63 -5.27,-38.01 7.21,-64.62l63.09 -4.05c8.45,50.71 -6.7,43.85 -7.77,65.17zm1.24 23.49c-16.45,50.1 -33.26,38.25 -73.54,33.42 -34.31,-4.11 -9.85,-12.7 -33.69,5.37 19.58,47.36 104.76,24.75 124.31,-2.85 19.58,-27.64 31.01,-113 36.89,-152.67 -45.03,4.6 -22.4,9.87 -35.53,10.15 -2.7,0.06 -78.5,-36.56 -110.2,26.18 -35.06,69.38 23.33,101.6 91.75,80.4z"/>
   <path class="fil10" d="M5308.94 685.53l68.32 9.17c10.39,58.09 -27.26,59.58 -80.02,59.55l11.7 -68.72zm-50.99 146.48c42.38,-7.42 11.26,5.66 26.05,-23.26 16.94,-33.13 -15.9,-12.7 22.03,-27.49 68.89,5.68 14.89,55.33 85.85,48.31l-23.72 -47.22c1.32,-1.39 3.66,-5.52 4.36,-4.1 0.52,1.03 63.19,-44.49 33.41,-94.7 -19.94,-33.62 -85.08,-24.91 -125.8,-24.68 -3.21,29.7 -10.25,59.66 -16.5,89.94 -2.81,13.58 -6.1,25.97 -8.67,39.82 -5.05,27.32 -5.16,29.16 2.99,43.38z"/>
   <path class="fil20" d="M202.4 1823.47c-45.49,18.18 -37.71,70.44 15.14,71.79 35.99,0.92 79.26,-15.09 119.85,-15.22l10.84 -5.96c20.19,-7.23 -8.33,1.27 12.46,-3.61 5.96,-1.39 15.65,-1.26 21.82,-1.88l-17.67 -71.49 -32.54 2.67 -129.89 23.71z"/>
   <path class="fil21" d="M705.32 2093.96c13.41,-10.47 7.84,-477.8 6.99,-536.67l551.68 -0.01 0.59 524.05c6.5,28.76 5.85,15.99 9.5,23.12l-2.06 -549.17c-41.74,-10.94 -500.63,-8.62 -566.1,-2.69l-0.61 541.35z"/>
   <path class="fil10" d="M4399.03 799.74c-14.25,-58.74 8.1,-83.02 68.73,-68.91 13.11,59.82 -8.75,86.36 -68.73,68.91zm-47.6 31.94c15.18,-1.25 19.5,-4.22 21.59,-4.53 34.45,-4.98 100.58,25.71 124.95,-36.1 26.52,-67.29 -28.28,-107.27 -88.23,-83.89 0.68,-31.06 11.21,-38.5 -1.13,-58.55 -27.59,3.5 -18.45,-6.79 -27.71,25.87l-29.47 157.2z"/>
   <path class="fil10" d="M4160.21 743.6c-48.76,7.79 -11.16,36.08 -41.85,56.43 -63.29,41.97 -117.18,-72.4 -40.1,-107.49 65.98,-30.04 68.43,29.72 103.29,-6.55 -57.63,-67.84 -179.33,-15.15 -173.64,80.13 3.02,50.64 44.96,72.13 96.52,67.41 41.01,-3.76 58.47,-26.62 61.45,-63.39 3.31,-40.86 0.3,-16.66 -5.67,-26.54z"/>
   <path class="fil22" d="M340.42 1631.42l-0.39 10.78c3.12,52.73 9.87,27.09 16.59,53.65 12.1,7.39 -12.49,3.9 23.81,4.82 24.66,-10.47 70.22,-30.72 102.23,-40.04 28.7,-39.12 47.78,-24.55 9.39,-76.8l-42.43 2.17c-28.63,14 -75.82,41.86 -109.2,45.43z"/>
   <path class="fil2" d="M1354.57 2109.32l8.68 28.39 26.55 8.75 51.36 -1.48c9.91,-57.99 -27.33,-112.78 -28.22,-118.25 -0.56,-3.43 -2.27,-4.11 -3.47,-6.14l-6.73 -23.46c-16.63,-12.02 -13.51,-10.92 -23.72,-21.74 -16.25,-17.23 7.62,-7.35 -18,-12.97 -17.53,44.71 -15.88,99.71 -6.45,146.91z"/>
   <path class="fil22" d="M188 1663.2c-22.3,5.31 -28.75,5.54 -29.98,32.65 -1.57,34.87 8.34,30.13 26.82,38.49 26.91,7.3 60.05,-4.77 95.66,-5.36l45.96 -13.87 -9.21 -67.28 -14.36 -0.92 -114.89 16.29z"/>
   <path class="fil10" d="M6255.31 730.4c15.69,67.78 -34.87,99.28 -65.93,65.9 -26.93,-28.94 0.05,-80.63 65.93,-65.9zm23.31 101.79l24.81 -132.24c-12.41,0.95 -23.26,4.34 -23.85,4.42 -38.47,5.05 -108.57,-30.8 -127.1,50.92 -6.88,30.32 -0.78,61.67 29.94,73.09 23.74,8.82 35.56,-0.02 96.2,3.81z"/>
   <path class="fil23" d="M256.64 1966.96l36.32 -21.4 21.83 -9.28c17.7,-17.51 11.34,-13.24 45,-20.25l24.24 -10.15 4.19 -29.31 -50.83 3.47c-1.66,0.95 -4.1,1.94 -5.24,2.35l-131.88 27.97c-45.16,20.76 -35.73,79.13 56.37,56.6z"/>
   <path class="fil23" d="M428.73 1852.95c-30.76,25.5 -20.12,2.84 -29.16,39.78l62.57 -6.35 34.49 -1.35 58.23 -7.14c46.61,-9.34 63.54,-11.64 53.04,-67.19l-67.53 -0.3c-36.19,12.59 -77.7,34.78 -111.64,42.55z"/>
   <path class="fil10" d="M5876.32 733.82c52.71,-34.25 74.12,49.45 33.86,68.19 -24.98,11.62 -47.8,3.45 -54.97,-15.81 -14.3,-38.42 20.32,-51.87 21.11,-52.39zm-11.88 -27.49c-72.22,33.81 -52.86,159.39 54.72,120.7 79.96,-28.76 47.89,-168.76 -54.72,-120.7z"/>
   <path class="fil10" d="M4665.85 755.47c-5.85,0.49 -30.32,-1.02 -37.42,-1.06 10.85,-38.38 47.32,-41.35 70.14,-12.07 -17.33,15.47 27.07,8.16 -32.71,13.13zm40.63 50.97c-33.71,-17.3 -56.39,26.91 -82.17,-24.04 24.07,-12.91 58.56,-5.02 103.67,-8.78 4.4,-99.93 -95.67,-89.49 -125.92,-38.07 -17.9,30.41 -9.24,70.87 14.82,86.83 14.45,9.59 28.44,12.12 48.21,10.85 49.32,-3.18 41.2,-26.3 41.38,-26.8z"/>
   <path class="fil10" d="M5499.16 755.47c-5.84,0.48 -30.28,-1.03 -37.45,-1.06 11.41,-38.58 47.67,-41.21 70.43,-12.07 -16.93,14.92 26.04,8.28 -32.98,13.13zm40.64 50.97c-1.61,-0.83 -4.24,-3.86 -5.01,-2.13l-16.44 -1.76c-33.74,2.09 -50.04,18.05 -60.33,-27.25l103.26 -0.48c4.86,-101.54 -95.59,-90.54 -125.82,-39.24 -17.91,30.39 -8.98,70.75 14.8,86.73 14.61,9.82 28.02,12.23 48.17,10.95 49.9,-3.15 41.21,-26.33 41.37,-26.82z"/>
   <path class="fil10" d="M5055.38 801.01c-14.63,-59.23 7.3,-86.84 68.47,-69.52 13.14,58.86 -7.84,83.19 -68.47,69.52zm4.52 -91.34c-40.73,19.41 -51.89,54.71 -36.1,90.38 14.99,33.84 64.83,42.25 99.44,24 67.56,-35.62 40.46,-163.87 -63.35,-114.38z"/>
   <path class="fil10" d="M4229.74 801.09c-15.17,-59.65 7.84,-86.63 68.87,-69.42 12.54,59.87 -8.17,82.97 -68.87,69.42zm4.59 -91.34c-20.92,9.85 -23.08,0.79 -35.49,31.84 -28.95,72.4 43.24,112.07 98.95,82.41 66.51,-35.4 40.93,-163.39 -63.46,-114.24z"/>
   <path class="fil24" d="M624.02 1893.68l-10.11 32.21 -44.87 -11.61 -8.35 -25.18 -5.83 -11.22 -58.23 7.14 36.3 -0.13c-7.57,18.63 -5.9,28.32 -34.89,30.43 -8.44,0.61 -21.1,-1.89 -27.93,-6.02 -16.67,-10.09 -3.26,3.72 -9.97,-16.4l-29.46 10.22 -15.09 29.52c-13.25,3.43 -20.75,9.07 -36.93,4.08 -33.68,-10.39 -9.63,0.49 -18.86,-20.68 -33.66,7.01 -27.3,2.74 -45,20.25 18.49,4.71 4.81,-5.59 14.39,7.96 -14.46,31.86 -17.81,30.47 -57.39,26.44 11.48,-23.92 -12.34,-4.61 21.16,-25.12l-36.32 21.4 -5.5 16.7c2.49,28.98 9.43,13.85 -9.52,43.62l-35.04 -6.66c-17.48,13.7 -6.8,-12.9 -13.34,26.23 12.46,22.24 10.74,19.87 8.92,51.66l-17 3.6 1.82 13.61c28.95,-0.12 24.16,-0.28 27.06,-26.92 0.6,-5.54 -4.12,-45.03 -4.58,-53.55 22.49,3.88 29.95,1.26 46.06,-5.71l13.5 -49.22 50.19 3.99 26.43 -47.79c54.25,15.61 53.47,31.9 96.71,-19.38 32.09,0.69 36.25,13.39 62.41,8.62 21.81,-3.98 20.31,-13.58 41.76,-23.62 31.73,24.29 15.12,48.29 78.82,23.06l1.93 139.26 1.95 46.76 3.52 -573.6c-12.91,81.81 13.61,292.92 -8.7,356.06z"/>
   <path class="fil10" d="M4857.32 831.84c59.6,-10.24 6.33,-90.99 66.4,-104.44 69.28,-15.52 18.65,70.59 29.75,103.42 26.29,-1.73 23.15,18.4 35.22,-52.64 17.09,-100.62 -25.46,-72.39 -116.43,-78.16 -8.08,63.19 -28.94,104.04 -14.93,131.82z"/>
   <path class="fil0" d="M5987.11 831.18c45.59,-4.76 13.71,9.85 37.47,-68.08 12.05,-39.48 62.5,-57.1 66.97,-12.04 1.22,12.38 -0.22,16.36 -2.5,28.54 -1.35,7.2 -6,20.69 -5.94,27.38 0.21,23.81 -1.33,11.96 8.16,25.13 40.17,-13.14 35.28,-92.85 25.37,-123.12l-112.18 -6.83 -20.42 102.38c-2.86,24.68 -4.17,10.17 3.07,26.64z"/>
   <path class="fil25" d="M307.47 1564.95l-1.02 -0.04 22.61 -21.3c1.39,-40.91 -41.27,-125.3 -97.06,-88.14 -23.98,38.12 6.9,119.09 75.47,109.48z"/>
   <path class="fil26" d="M327.7 1562.61c-6.94,19.46 -10.33,14.16 -4.1,44.76 5.61,27.57 3.43,15.49 16.82,24.05 33.37,-3.57 80.57,-31.43 109.2,-45.43l3.93 -51.54c-65.75,-10.39 -78.99,16 -125.84,28.16z"/>
   <path class="fil26" d="M184.75 1595.63l-19.68 11.16c-1.08,23.09 -6.53,23.08 14.38,47.65l8.56 8.76 114.89 -16.29 -3.25 -56.32c-29.49,-12.06 -77.02,2.24 -114.89,5.04z"/>
   <path class="fil10" d="M3597.83 1758.46c19.85,-3.59 7.19,1.2 23.51,-8.61 13.94,-8.37 -1.23,-1.03 14.66,-11.97 -5.01,10.52 -18.7,31.27 -16.39,45.18 8.7,52.29 76.82,14.53 99.94,-7.89 -7.67,-8.39 18.09,-8.82 -15.81,-6.12 -17.86,16.56 -22.02,23.18 -53.76,26.99 -0.33,-34.2 36.59,-50.36 42.31,-72.57 17.06,-66.27 -72.96,-8.24 -94.46,34.98z"/>
   <path class="fil10" d="M6331.65 832.29c32.24,-11.52 48.55,-145.28 51.41,-181.57l-26.66 -2.5 -34.06 158.53c0.95,25.87 -2.38,10.78 9.31,25.54z"/>
   <path class="fil10" d="M4753.15 831.68c44.35,-7.5 13.92,-2.88 36.5,-69.27 5.42,-15.92 9.29,-20.53 19.89,-27.35 24.53,-15.78 -18.45,14.25 16.65,-7.1 16.91,-10.29 7.98,1.28 18.82,-17.67 -11.17,-7.2 1.17,-4.81 -19.07,-6.98l-57.38 -2.82c-8.56,68 -29.09,102.85 -15.4,131.19z"/>
   <path class="fil27" d="M1482.61 1746.42c24.64,10.54 47.61,5.82 74.1,3.43 44.62,-4.02 51.04,1.63 48.34,-37.97l-118.97 -6.1 -3.47 40.65z"/>
   <path class="fil28" d="M1813.13 636.26c-1.97,1.8 1.95,4.65 -1.58,-1.88 -0.18,-0.34 -1.6,-2.34 -1.75,-4.15 -0.21,-2.51 -1.46,-3.9 -2.28,-5.81l-18.64 -24.83c-29.9,1.42 -30.56,2.01 -58.29,12.24 -39.38,14.52 -36.04,2.58 -38.44,34.35 15.11,8.86 5.47,4.76 33.34,2.27 38.87,-3.48 -26.99,-3.56 15.04,-1.2 -0.88,1.75 -3,2.33 -3.29,4.86 -2.27,19.85 -18.35,-10.49 -4.87,16.39 65.62,-18.71 -15.14,-24.88 48.08,-29.2 12.42,25.64 -13.07,-7.23 0,20.69 12.12,-4.24 5.11,0.69 15.53,-6.73l17.15 -16.99z"/>
   <path class="fil29" d="M2405.93 1524.54c4.18,-6.74 6.72,-5.4 9.8,-20.65l1.07 -88.48c-0.01,-38.6 -0.11,-77.16 -0.35,-115.76l181.86 -0.05 -0.66 196.3c2.51,19.57 -2.12,-3.49 2.89,13.66 0.52,1.76 2.23,4.27 2.73,5.62 0.49,1.32 2.11,3.47 3.18,5.2l-0.89 -224.18 -197.65 -2.19 -1.98 230.53z"/>
   <polygon class="fil27" points="1459.98,1699.15 1361.48,1686.15 1359.14,1729.68 1459.73,1745.49 "/>
   <path class="fil30" d="M1807.52 624.43c0.82,1.91 2.07,3.3 2.28,5.81 0.16,1.81 1.58,3.82 1.75,4.15 3.53,6.53 -0.4,3.68 1.58,1.88 16.74,22.87 37.74,7.83 60.28,1.05 0.81,-2.95 3.81,-1.31 3.65,-23.18 -0.12,-15.86 -1.06,-10.03 -3.98,-27.36 -35.42,-11.57 -30.03,-7.87 -68.55,-4.61l3 42.26z"/>
   <path class="fil13" d="M1624.67 1696.04l2.07 40.41c35.45,7.59 67.7,-7.5 94.28,-16.57l-9.19 -40.54 -87.16 16.69z"/>
   <path class="fil13" d="M1736.19 1679.88l7.86 41.04c5.45,-2.88 34.15,-11.86 55.2,-16.9 32.7,-7.82 37.98,-10.04 36.06,-40.22l-22.27 -2.84c-29.77,-1.58 -59.99,2.59 -76.84,18.92z"/>
   <path class="fil0" d="M5750.07 832.17c36.94,-3.8 31.92,6.63 49.14,-94.5 5.63,-33.04 0.89,-28.22 -4.41,-37.85 -32.67,8.46 -23.38,14.09 -30.32,52.28 -5.06,27.82 -10.46,51.07 -14.41,80.07z"/>
   <path class="fil10" d="M4528.8 831.83c34.21,-5.11 27.01,-15.91 41.36,-96.32 0.82,-4.62 2.81,-14.45 2.73,-18.51 -0.22,-11.98 -2.06,-11.19 -4.03,-16.56 -37.72,4.44 -14.42,-9.48 -26.98,15.88 -0.18,0.37 -6.83,37.32 -7.31,40.04l-10.73 58.93c0.68,14.1 1.9,9.7 4.96,16.54z"/>
   <path class="fil21" d="M184.75 1595.63c37.87,-2.8 85.4,-17.09 114.89,-5.04l3.25 56.32 14.36 0.92 22.78 -5.63 0.39 -10.78c-13.39,-8.57 -11.22,3.52 -16.82,-24.05 -6.22,-30.6 -2.84,-25.29 4.1,-44.76l-21.26 2.3 1.02 0.04c-13.98,10.08 17.01,3.67 -25.33,11.51 -40.4,7.48 -66.24,-14.42 -97.39,19.17z"/>
   <path class="fil31" d="M1402.99 714.75c30.59,-0.96 25.24,11.57 27.17,-31.67l-65.27 7.48c-16.14,36.17 -1.86,59.42 44.41,46.4l-4.81 -6c-0.26,-0.56 -1.45,-2.98 -1.66,-3.56 -3.22,-8.93 -4.83,2.87 0.16,-12.64z"/>
   <path class="fil32" d="M337.39 1880.04l50.83 -3.47 -4.19 29.31 46.65 -2.76 29.46 -10.22 1.99 -6.52 -62.57 6.35c9.04,-36.93 -1.6,-14.28 29.16,-39.78l-36.84 6.41 -16.66 -68.89 -42.94 9.3 32.54 -2.67 17.67 71.49c-6.17,0.62 -15.86,0.49 -21.82,1.88 -20.8,4.88 7.72,-3.62 -12.46,3.61l-10.84 5.96z"/>
   <path class="fil10" d="M816.42 1107.91l49.43 0.39c0.33,-14.59 0.68,-20.38 -1.43,-35.72l-13.43 -33.73 -24.13 1.77 -10.43 67.29z"/>
   <path class="fil27" d="M1908.03 1713.32l1.91 -26.09c-31.76,12 -97.41,24.03 -112.41,48.68 34.51,15.73 35.56,-13.77 110.5,-22.59z"/>
   <path class="fil27" d="M1876.26 1637.22c-7.74,7.89 -2.87,5.08 -14.72,12.73 -0.68,0.44 -9.71,4.59 -12.31,5.83l10.29 24.51 49.95 -5.79 -1.57 -44.71 -31.63 7.43z"/>
   <path class="fil27" d="M1617.27 1956.07c27.48,10.94 65.4,12.38 63.38,-23.18 -8.43,-9.4 -0.77,-18.97 -33.22,-11.1 -23.95,5.81 -23.44,15.89 -30.16,34.27z"/>
   <path class="fil33" d="M317.25 1647.83l9.21 67.28 -45.96 13.87 93.92 -23.52c1.72,-0.94 4.14,-3.03 6,-4.79 -36.29,-0.93 -11.71,2.57 -23.81,-4.82 -6.72,-26.56 -13.47,-0.92 -16.59,-53.65l-22.78 5.63z"/>
   <path class="fil27" d="M1424.61 1775.97c18.08,18.63 70.21,15.38 97.9,12.79 -8.45,-22.7 -19.59,-26.33 -70.67,-23.02 -47.44,3.08 -5.01,4.38 -27.22,10.23z"/>
   <path class="fil13" d="M1670.72 1767.96c8.86,4.4 -11.26,20.18 53.59,-2.58l52.54 -29.5 -81.96 11.4c-39.4,8.73 -13.39,0.44 -24.17,20.69z"/>
   <path class="fil15" d="M624.02 1893.68c-18.8,-15.36 -35.84,-9.5 -63.33,-4.58l8.35 25.18 44.87 11.61 10.11 -32.21z"/>
   <path class="fil15" d="M496.63 1885.03l-34.49 1.35 -1.99 6.52c6.71,20.13 -6.7,6.31 9.97,16.4 6.83,4.14 19.49,6.63 27.93,6.02 28.99,-2.11 27.32,-11.8 34.89,-30.43l-36.3 0.13z"/>
   <path class="fil15" d="M359.79 1916.04c9.23,21.17 -14.81,10.29 18.86,20.68 16.18,4.99 23.68,-0.65 36.93,-4.08l15.09 -29.52 -46.65 2.76 -24.24 10.15z"/>
   <path class="fil27" d="M1688.98 1930.71c1.14,0.58 8.87,15.34 34.33,6.59 21.18,-7.26 11.96,-4.09 19.42,-27.35 -27.98,-9.75 -66.62,-21.28 -53.75,20.75z"/>
   <path class="fil27" d="M1745.3 1912.19c4.55,25.51 -9.52,20.67 19.02,28.17 30.25,7.95 33.89,-10.22 34.64,-10.75 0.28,-7.82 9.66,-9.53 -15.94,-20.89 -21.72,-9.64 -19.42,-7.96 -37.72,3.47z"/>
   <path class="fil27" d="M1848.91 1963.6c8.12,-56.69 -85.35,-32.27 -38.81,-0.54 8.35,5.69 8.16,5.84 18.65,6.3 39.25,1.72 4.32,0.96 20.16,-5.75z"/>
   <path class="fil15" d="M206.57 2020.62l35.04 6.66c18.95,-29.78 12.02,-14.65 9.52,-43.62 -30.59,9.3 -35.98,8.79 -44.57,36.97z"/>
   <path class="fil27" d="M1583.29 2005.18c31.95,-2.45 33,-5.69 47.75,-28.89 -31.56,-26.99 -41.81,-15.7 -47.75,28.89z"/>
   <path class="fil15" d="M292.95 1945.56c-33.51,20.51 -9.69,1.21 -21.16,25.12 39.58,4.03 42.93,5.41 57.39,-26.44 -9.58,-13.55 4.1,-3.25 -14.39,-7.96l-21.83 9.28z"/>
   <path class="fil27" d="M1528.76 2152.68l30.96 0.17c11.47,-31.16 12.65,-29.59 -11.64,-43.09 -25.26,15.18 -16.35,2.13 -19.32,42.91z"/>
   <path class="fil27" d="M1564.37 2010.17c-0.69,2.57 -6.01,17.5 -6.03,17.78 -1.79,33.04 -2.41,8.9 5.76,24.39 32.39,-4.42 25.83,3.26 32.97,-38.73l-32.7 -3.43z"/>
   <path class="fil27" d="M1548.08 2105.1c28.99,-10.02 24.03,-11.12 26.96,-43.32 -39.03,2.82 -51.98,4.13 -26.96,43.32z"/>
   <path class="fil27" d="M1361.02 1962.41c25.62,5.62 1.75,-4.25 18,12.97 10.21,10.82 7.1,9.73 23.72,21.74l9.26 -27.07c-7.78,5.82 -8.41,0.63 -27.3,-13.21l-23.26 -25.53 -0.43 31.09z"/>
   <path class="fil0" d="M4550.86 674.14c36.69,6.72 33.83,4.77 36.76,-30.65 -43.06,0.83 -31.07,-7.74 -36.76,30.65z"/>
   <path class="fil15" d="M185.15 2102.12l17 -3.6c1.82,-31.8 3.54,-29.42 -8.92,-51.66 -22.69,11.63 -14.76,38.53 -8.08,55.26z"/>
   <path class="fil10" d="M5780.65 654.2c6.48,40.22 34.68,32.12 35.64,-5.79 -27.18,-7.51 -12.71,-13.03 -35.64,5.79z"/>
   <path class="fil34" d="M827.38 1018.03l27.13 0.24c3.62,-37.3 2.69,-35.21 -21.47,-42.69l-5.66 42.45z"/>
   <path class="fil27" d="M1363.01 1770.8l44.21 7.25c-7.9,-31.2 -16.78,-22.69 -47.98,-34.97l3.77 27.72z"/>
   <polygon class="fil35" points="6419.5,808.73 6417.65,808.04 6419.5,811.93 "/>
   <polygon class="fil36" points="1409.47,2020.59 1441.99,2019.14 1428.68,1995.24 1402.74,1997.12 "/>
   <path class="fil37" d="M4870.72 1794.79c23.42,-11.1 11.07,21.05 20.35,-29.06 -45.96,-10.98 -15.21,-6.15 -20.4,7.67l0.05 21.4z"/>
   <path class="fil38" d="M4957.35 1815.18l13.67 1.87c1.33,-1.58 3.61,-3.63 4.14,-4.59 13.99,-24.96 5.46,-13.47 1.36,-21.09 -19.72,14.27 -8.84,5.72 -19.17,23.81z"/>
   <path class="fil39" d="M4736.62 1733.8l-9.4 -1.95c-12,10.35 -0.23,-8.38 -13.35,14.15 -0.59,1.02 -6.86,18.45 -8.22,22.04l30.97 -34.24z"/>
  </g>
 </g>
</svg>
