<?xml version="1.0" encoding="UTF-8"?>
<!DOCTYPE svg PUBLIC "-//W3C//DTD SVG 1.1//EN" "http://www.w3.org/Graphics/SVG/1.1/DTD/svg11.dtd">
<!-- Creator: CorelDRAW 2020 (64-Bit) -->
<svg xmlns="http://www.w3.org/2000/svg" xml:space="preserve" width="97.2352mm" height="72.0926mm" version="1.1" style="shape-rendering:geometricPrecision; text-rendering:geometricPrecision; image-rendering:optimizeQuality; fill-rule:evenodd; clip-rule:evenodd"
viewBox="0 0 8594.71 6372.34"
 xmlns:xlink="http://www.w3.org/1999/xlink"
 xmlns:xodm="http://www.corel.com/coreldraw/odm/2003">
 <defs>
  <style type="text/css">
   <![CDATA[
    .fil4 {fill:#025889}
    .fil52 {fill:#447DA1}
    .fil59 {fill:#477A98}
    .fil39 {fill:#558EAF}
    .fil25 {fill:#6895AF}
    .fil62 {fill:#6C6C6C}
    .fil7 {fill:#6EA5C5}
    .fil56 {fill:#727272}
    .fil48 {fill:#7A7A7A}
    .fil3 {fill:#81B742}
    .fil61 {fill:#838383}
    .fil24 {fill:#8AAEC5}
    .fil64 {fill:#8B8B8B}
    .fil30 {fill:#8DABB8}
    .fil38 {fill:#94BA66}
    .fil16 {fill:#9CC36F}
    .fil32 {fill:#A3C478}
    .fil8 {fill:#A8BDCC}
    .fil54 {fill:#A9C5D7}
    .fil63 {fill:#ACACAC}
    .fil21 {fill:#ACCC87}
    .fil22 {fill:#B0CF8C}
    .fil34 {fill:#BAD898}
    .fil49 {fill:#BFDB9F}
    .fil42 {fill:#C3DBA6}
    .fil60 {fill:#C8D9B5}
    .fil31 {fill:#CB454A}
    .fil0 {fill:#CD262A}
    .fil26 {fill:#CDE7B2}
    .fil1 {fill:#D0227B}
    .fil28 {fill:#D24D53}
    .fil18 {fill:#D2E7B9}
    .fil58 {fill:#D35965}
    .fil13 {fill:#D76B99}
    .fil50 {fill:#D96C71}
    .fil51 {fill:#DBEEC8}
    .fil53 {fill:#DE909C}
    .fil36 {fill:#E25A9A}
    .fil45 {fill:#E47789}
    .fil46 {fill:#E4F2CD}
    .fil44 {fill:#E577AB}
    .fil43 {fill:#E66F74}
    .fil9 {fill:#E890B4}
    .fil20 {fill:#E89498}
    .fil27 {fill:#E9898D}
    .fil23 {fill:#EFABB2}
    .fil6 {fill:#F099C2}
    .fil15 {fill:#F3B2C7}
    .fil12 {fill:#F5AB56}
    .fil37 {fill:#F6A8AB}
    .fil14 {fill:#F6B567}
    .fil33 {fill:#F8BC76}
    .fil2 {fill:#F99E2D}
    .fil41 {fill:#F9B9BA}
    .fil47 {fill:#F9C278}
    .fil29 {fill:#FAC788}
    .fil11 {fill:#FACE97}
    .fil17 {fill:#FAD7B4}
    .fil55 {fill:#FBC8C9}
    .fil10 {fill:#FDD7A8}
    .fil35 {fill:#FDE2BA}
    .fil19 {fill:#FDEBD6}
    .fil40 {fill:#FEE8C8}
    .fil57 {fill:#FEF3DA}
    .fil5 {fill:white}
   ]]>
  </style>
 </defs>
 <g id="Capa_x0020_1">
  <metadata id="CorelCorpID_0Corel-Layer"/>
  <g id="_2766931182960">
   <path class="fil0" d="M381.56 681.41l-2.45 4.26 19.62 32.98c2.06,12.69 14.73,29.18 19.82,40.17 17.36,8.11 6.51,-8.66 16.04,9.52 11.66,0 6.93,-2.03 5.65,13.25l-1.48 -3.71c23.54,16.19 10.21,2.15 17.13,22.12 16.54,2.13 6.86,-3.42 18.14,8.32 16.03,16.68 1.54,2.45 5.26,14.62 22.12,11.35 29.99,18.77 41.64,41.9l3.42 5.3c17.96,5.94 25.95,4.15 31.48,26.61 11.02,3.39 9.33,-8.87 9.33,4.43 10.85,0 7,-2.18 7,10.78l5.16 -2.38c14.01,6.75 18.3,10.07 27.66,18.16 6.65,5.76 4.5,2.7 9.87,9.38 9.94,12.36 0.79,-1.41 6.39,13.18 12.72,3.56 12.72,1.63 22.35,10.39 11.81,10.73 4.98,4.38 13.03,19.77l0.77 0.06c12.88,2.81 17.03,-1.18 18.91,13.73 15.58,4.07 18.4,9.04 29.18,16.52 4.21,2.92 13.56,8.5 16.22,10.76 12.14,10.24 1.87,0.47 11.54,13.46l4.5 4.21c14.11,5.17 15.79,4.38 26.39,12.22 21.51,15.88 2.88,-0.12 14.97,17.26l2.02 0.89 6.23 4.5c14.12,5.64 21.97,2.53 26.8,19.51 22.51,7.82 23.81,5.2 32.23,26.68l0.89 -6.51c22.78,9.8 28.5,15.08 42.75,34l9.3 6.28 52.94 31.79c0.86,0.9 2.29,3.08 2.96,3.86 0.66,0.77 1.83,2.7 2.77,4.04 17.99,1.84 30.44,8.4 47.03,24.58l5.9 7.23c9.38,1.98 4.12,-3.75 19.73,6.52 17.21,11.31 8.03,7.47 12.62,14.05 10.66,1.4 13.62,-0.58 25.24,7.04 28.87,18.98 8.64,5.9 17.7,22.16l17.26 11c31.17,6.81 14.43,2.45 22.38,14.38l-2.3 -2.47c26.1,6.44 12.16,1.2 35.29,16.7 6.59,4.4 7.6,4.08 12.1,7.48 16.8,12.7 4.79,0.57 16.46,16.31l13.97 8.14 52.86 25.29 20.39 17.97c11.15,8.06 19.13,12.3 29.46,18.2l46.32 21.76 15.59 0.42 -2.22 -16.4 -10.5 -17.27c-15.4,-6.59 -14,-8.2 -25.43,-20.06 -17.95,-18.62 -11.49,-8.25 -20.03,-31.26l-11.61 -10.4c-17.61,-11.29 -15.05,-8.32 -23.74,-26.9l-17.53 -17.51c-25.85,-9.02 -6.41,-0.63 -14.12,-12.5l-3.06 -9.19c-16.55,-2.92 -4.25,6.38 -14.69,-5.26 -11.56,-12.91 -0.91,6.56 -8.16,-16.94l1.54 4.14c-23.47,-11.58 -8.8,5.28 -17.36,-19.45l-10.27 -17.42c-24.13,-9.15 -17.8,1.34 -31.79,-27.68l-9.56 -13.19c-28.06,-11.99 -79.36,-64.13 -90.2,-91.86l-31.94 -27.73c-16.97,-10.22 -6.86,0.85 -19.26,-13.95 -9.03,-10.77 -1.93,0.17 -5.08,-14.2 -20.55,-7.8 -18.12,-8.74 -34.8,-24.73 -29.07,-27.9 -19.36,-16.39 -24.67,-34.37 -20.42,-3.86 -13.96,-0.7 -29.04,-22.85l1.77 2.73c-14.37,-3.68 -16.85,0.71 -18.5,-18.78l2.53 1.84c-12.91,-5.75 -11.7,-3.62 -19.61,-11.72 -14.71,-15.04 -5.29,-8.05 -11.83,-21.14l0.88 4.45c-19.13,-10.04 -1.48,2.18 -19.37,-12.68 -0.42,-0.36 -8.03,-8.14 -9.88,-9.82 -16.65,-15.12 -12.18,-5.68 -24.78,-27.16l-9.24 -13.33 -11.89 -5.53c-8.04,-5.69 -8.8,7.68 -6.37,-7.73 -17.48,-6.13 -9.06,0.74 -23.12,-9.54 -22.06,-16.14 -3.76,0.6 -13.73,-18.82l2.41 -4.36 -24.53 -10.08c-18.42,-9.68 -13.99,-6.21 -25.49,-24.6l-2.93 -3.99 -16.7 -7.13 -11.12 -14.2 -9.7 -12.23c-14.54,-5.07 -17.15,-4.42 -27.91,-12 -27.16,-19.14 -7.69,-4.92 -13.82,-19.28 -13.1,-1.63 -5.52,2.43 -12.86,-2.26l-30.1 -18.34 -6.36 -15.05 -12.7 -0.69c-12.57,-3.92 -16.82,-4.07 -27.71,-10.85 -28.51,-17.76 -7.98,-2.93 -19.06,-21.38l-14.63 0.16c-21.51,-3.87 -2.86,3.08 -20.21,-4.89 -13.69,-6.29 -5.14,-0.38 -12.44,-11.96l-0.37 4.16c-67.85,0.09 -79.77,5.3 -81.58,74.12z"/>
   <path class="fil0" d="M8123.84 3568.88l-44.21 24.22c-1.25,1.68 -2.63,3.9 -3.65,5.12 -22.73,27.12 -25.87,19.97 -34.13,20.92l-39.23 27.26c-7.35,18.23 4.86,3.98 -15,17.63 -7.88,5.41 -13.62,7.62 -20.67,12.79 -16.12,11.84 -19.38,18.69 -41.22,30.69l-4.38 -1.94c-7.5,14.84 0.57,5.1 -12.28,18.95 -5.66,6.1 -2.84,2.65 -10.89,8.82 -9.26,7.11 -12.08,9.38 -24.59,14.93 -6.49,19.43 -7.96,15.2 -22.96,29.58 -7.43,7.13 -7.43,8.88 -13.31,13.11 -12.45,8.95 -3.76,4.08 -18.71,7.5 -4.38,10.85 10.87,4.2 -14.93,17.55l-13.83 15.65 -12.08 4.97c-5.44,12.47 -2.67,10.53 -13.12,19.6 -19.7,17.09 -0.65,2.15 -17.42,9.14l-0.11 13.17 -11.22 1.8c-3.48,5.87 -8.2,13.91 -13.13,19.4 -13.72,15.29 -5.67,7.65 -21.65,15.83l-37.65 30.77c-4.11,14.46 2.57,10.53 -17.18,22.16 -9.5,18.48 -2.26,8.63 -20.41,17.31 -4.71,10.4 1.26,5.32 -8.34,5.89 -11.49,22.19 -10.59,23.27 -35.41,37.17l-4.96 2.87c-7.96,19.91 -0.5,11.7 -17.55,28.36 -10.72,10.45 -13.08,10.5 -23.47,15.49l-5.06 15.74c-4.01,21.94 1.89,3.04 -11.78,7.42 -7.72,16.48 -7.96,12.59 -19.78,26.13 -2.65,3.03 -9.07,11.64 -11.95,13.9 -17.54,13.74 -2.98,3.85 -18.36,8.32l-0.17 9.35c-3,17.43 -0.96,1.48 -12.43,4.17l-4.19 9.14c-0.73,1.17 -7.62,11.08 -8.17,11.73 -11.21,13.44 -7.86,10.81 -22.5,17.21 -6.43,9.12 -8.18,11.56 -14.34,18.21 -0.26,0.28 -9.3,9.37 -9.92,9.88 -8.19,6.82 -4.23,3.41 -12.1,8.05 4.61,11.92 8.44,10.26 -2.51,10.26 -8.85,19.06 1.43,1.41 -16.41,9.72l0.34 1.02c0.43,15.07 5.12,13.04 -6.26,13.04 0,14.67 1.66,1.48 -10.35,3.16 -0.56,1.62 -1.57,2.39 -1.85,4.77 -0.37,3.07 -3.08,7.5 -3.64,8.84 -2,4.77 -1.37,1 -4.65,11.09l-8.52 16.86 14.07 -3.25 19.25 -1.9 12.44 -4.68c0,-12.99 -3.76,-10.63 7.54,-10.63l10.93 -2.5c3.64,-16.07 -6.74,-4.05 8.12,-12.46 16.33,-9.25 0.34,-1.51 19.2,-5.37l8.43 2c7.73,-12.96 -2.24,-8.62 17.98,-22.82 17.05,-11.98 8.55,-5.34 28.86,-11.02l72.51 -46.78c14.2,-17.7 30.55,-29.8 51.76,-31.83 5.9,-8.38 -2.61,-2.05 12.73,-14.37 4.63,-3.7 10.56,-6.95 15.65,-10.23 16.49,-10.62 21.41,-14.85 40.89,-18.77 2.55,-11.67 -12.57,-9.96 2.7,-12.73l18.63 -3.74 -1.56 2.6c6.73,-13.57 3.32,-15.65 20.06,-12.23 7.5,-13.64 2.07,-11.27 21.01,-17.56 10.33,-17.5 18.74,-21.55 40.28,-25.91l28.12 -27.52c12.7,-13.02 10.25,-15.74 30.17,-17.75l9.52 0.27c6.4,-21.48 6.74,-14.09 22.67,-16.28 4.75,-11.31 -13.36,-9.11 4.15,-11.76l16.51 -5.53 20.53 -15.03c7.71,-14.33 -8.95,-12.09 7.04,-14.47l17.34 -4.4 2.02 5.37c9.74,-20.98 5.46,-15.75 29.61,-26.59l2.91 0.12c8.58,-15.52 0.05,-3.99 11.14,-15.31 6.5,-6.65 1.3,-1.4 11.37,-5.92l22.32 -13.42 14.07 -19.88c7.36,-12.74 -5.78,-7.6 20.4,-15.07l6.91 -0.92c7.65,-15.66 5.01,-15.52 21.16,-18.35l63.77 -61.79c8.71,-15.03 5.67,-11.96 21.45,-17.81 9.9,-21.08 6.97,-11.67 20.24,-18.4l9.73 -18.05c5.75,-13.17 5.76,-15.86 13.35,-25.21 17.48,-21.57 8.3,-8.84 22.97,-16.97l2.79 -11.49c3.19,-12.28 -0.31,-6.1 6.69,-18.07 6.32,-10.82 5.38,-5.6 12.75,-12.36l-2.44 -51.07c-72.59,-35.22 -41.28,-17.37 -118.47,-6.89z"/>
   <path class="fil1" d="M336 1552.05c-5.34,9.13 1.55,1.67 -7.96,11.1 -0.8,0.8 -9.75,7.35 -11.05,8.33 -9.33,6.92 -11.9,8.63 -22.04,16.38 -14.58,17.68 -14.01,36.04 -11.94,63.22 10.84,7.85 5.65,2.11 14.66,11.94 5.68,6.21 4.7,8.28 6.71,13.02 17.98,5.85 20.19,8.56 32.81,25.93l84.82 32.12c32.27,8.84 336.8,7.87 358.72,-1.33 5.44,-11.22 -9.47,-11.88 44.17,-15.79 17.77,-1.3 35.77,-2.27 53.28,-5.52 61.75,-11.43 251.07,-56.41 288.66,-54.66 6.06,-10.86 -1.94,-4.9 15.45,-10.59 0.54,-0.18 16.85,-2.9 17.47,-3.01 16.11,-2.75 14.89,-3.78 30.03,-2.64 -3.68,-24.83 19.26,-10.85 -19.84,-19.76 -0.86,-0.19 -29.96,-1.02 -34.51,-1.48l-102.3 -17.85c-54.81,-10.85 -56.39,-0.64 -46.85,-14.71 -5.04,0.31 -191.99,-17.86 -213.08,-34.95l-8.62 4.94c-89.87,-0.88 -243.59,-33.82 -359.51,-21.16 -33.72,3.69 -77.62,15.05 -109.06,16.47z"/>
   <path class="fil2" d="M1166.3 497.49c-38.08,75.18 1.53,84.68 1.51,152.09 17.84,15.04 65.51,129.63 71.69,149.95l7.8 20.06c1.55,1.37 3.56,3.01 4.64,4.12l8.06 8.21c1.04,1.26 2.13,2.82 3.09,4.15l46.2 91.03c13.22,6.18 2.86,-3.49 12.6,7.61 2.9,3.31 5.51,8.72 7.44,12.41 30.47,58.34 117.67,172.12 126.07,202.22l15.95 25.93 13.21 5.08 -0.45 13.99c12.58,-5.9 10.5,-9.55 10.5,3.31l9.54 16.71 -0.06 5.56c20.68,12.04 10.6,-1.41 14.15,19.22 8.19,3.01 4.91,-5.06 17.16,8.5 8.96,9.95 7.8,12.29 11.22,27.73l0.64 11.95 1.35 -4.49c17.41,11.22 1.23,-2.49 14.44,10.51 2.58,2.54 9.42,11.54 11.45,14.23 12.12,16.02 11.4,13.54 17.17,35.6l-0.88 1.56c16.46,7.8 3.77,0.35 17.48,8.38 37.39,17.61 8.57,7.05 20.81,-2.32 -5.69,-21.6 -16.21,-43.21 -24.4,-69.22 -9.98,-31.69 -15.2,-44.14 -16.19,-78.83l3.56 -19.88c-1.36,-1.69 -3.32,-6.38 -3.92,-5.19 -0.42,0.84 -14.63,-18.49 -17.37,-50.77l1.73 4.94c-10.26,-9.11 -4.31,0.63 -13.13,-12.64 -2.71,-4.08 -6.12,-13.01 -7.98,-19.34 -5.25,-17.84 -6.38,-26.72 -7.85,-43.2l-2.41 -33.15c-9.59,-7.73 -6.73,3.68 -18.01,-20.82 -4.22,-9.16 -5.42,-19.94 -5.79,-32.34 -17.38,-3.68 -12.43,-14.83 -14.36,-31.66 -3.2,-19.21 -15.01,-56.22 -24.78,-75.6 -19.29,-11.81 -4.25,12.75 -20.17,-26.92 -2.15,-5.37 -5.54,-15.21 -8.58,-22.5 -8.07,-19.3 -21.77,-34.68 -16.15,-56.06 -18.27,-17.93 -46.18,-82.83 -50.65,-106.34l-2.66 -11.91c-17.36,-9.82 -3.62,6.26 -21.36,-18.28 -2.13,-2.94 -9.78,-16.46 -12.6,-21.17 -8.46,-14.19 -14.99,-25.71 -19.91,-37.91l-11.17 -1.54 -1.48 -14.43 -7.15 -16.6 -22.85 -16.24c-21.32,-11.71 -15.37,-5.87 -28.52,-25.81l0.13 -5.93c-39.4,2.36 -0.26,-0.13 -28.4,-3.69 -11.39,-1.45 -8.87,-3.31 -22.75,0.15 -15.29,3.81 -13.34,10.85 -37.62,19.54z"/>
   <path class="fil3" d="M558.84 19.67c-11.82,37.16 -22.73,20.67 -24.57,59.61 -1.2,25.66 7.86,46.94 9.33,73.08l-1.78 9.01c8.72,8.04 4.79,-0.82 16.24,17.73l47.23 102.45c7.26,5.34 0.5,-5.96 14.02,13.08 3.48,4.91 6.39,12.29 11.69,20.76 9.06,14.5 15.06,21.44 21.35,43.1l18.57 31.42c16.94,1.67 17.94,6.58 26.46,17.59 2.1,2.72 7.27,10.21 7.76,12.32 4.89,21.54 1.36,11.57 -4.62,22.11 15.21,3.55 22.18,20.73 30.65,31.25 14.96,7.67 9.48,-0.75 29.45,27.69 1.12,1.6 4.53,6.04 5.75,7.77 7.48,10.62 4.19,4.06 13.1,19.8l0.12 0.54 12.88 6.35 1.23 16.21 0.48 2.42c19.21,12.26 2.25,-1.78 14.45,10.77 1.33,1.35 8,10.02 9.22,11.66 9.12,12.18 8.55,10.24 14.23,25.11 24.55,5.94 -1.03,-6.36 14.96,5.52 0.19,0.13 11.55,13 11.93,13.45 7.96,9.67 12.76,16.69 16.6,30.43l10.13 15.44 9.23 1.17c13.63,2.72 0.56,0.83 5.5,16.24l-0.94 -4.65c17.52,11.62 2.56,-1.1 14.5,11l35.36 44.32c14.5,5.86 2.56,-3.24 8.9,17.05l32.1 36.75c19.03,7.1 10.93,0.8 17.64,17.56l1.85 1.57c12.94,7.54 4.95,1.22 14.68,9.68 0.27,0.24 11.86,12.58 13.05,13.84 9.49,10.05 12.68,13.51 21.71,20.12 23.26,13.59 5.2,4.73 11.54,-0.72l-3.67 -27.33 -5.07 -31.97c-8.26,-8.17 -4.4,1.38 -11.34,-12.54 -4.71,-9.47 -4.07,-11.89 -7.01,-24.86l-10.7 -31.39c-15.65,0 -12.37,-16.09 -15.29,-29.93l-13.03 -33c-16.74,-14.11 -9.15,-3.31 -20.33,-26.84 -7.8,-16.42 -6.54,-17.84 -8.95,-34.43 -4.2,-31.41 -35.59,-76.75 -34.99,-99.95 -20.91,-13.74 -5.84,4.75 -19.84,-26.38 -5.75,-12.8 -6.69,-13.65 -11.93,-30.16l-0.46 4.26c-1.71,-1.34 -4.28,-5.38 -5.07,-4.07 -5.65,9.24 -45.11,-83.42 -46.58,-86.91 -14.67,-34.91 -10.92,1.93 -13.51,-37.65l-9.01 -29.35c-12.96,0 -9.98,3.38 -9.98,-9.08l-4.4 -14.51 0.26 -1.73c-7.16,-5.34 -8.33,-2.77 -12.83,-11.08 -9.2,-16.95 -4.08,-2.91 -4.22,-22.54 -13.25,-6.33 -2.01,3.34 -12.88,-7.58 -4.53,-4.55 -6.29,-8.48 -10.58,-15.56 -6.66,-10.99 -10.27,-15.33 -14.82,-31.12 -16.94,-7.95 -10.2,-4.34 -22.18,-23.42 -7.6,-12.1 -11.66,-17.78 -19.39,-27.14 -15.63,-18.93 -30.35,-35.29 -40.99,-56.68l-6.43 -9.48c-19.27,-9.99 -20.07,-12.13 -34.12,-23.02 -5.95,-4.61 -8.41,-5.82 -15.23,-11.83 -6.03,-5.31 -6.63,-6.71 -11.75,-12.25l-1.07 4.75 -45.49 0.86 -9.06 3.29z"/>
   <path class="fil1" d="M7572.75 4466.69l4.41 -2.3 -114.58 24.94c19.2,16.77 4.25,5.6 25.75,12.6l21.43 8.98c46.57,20.16 230.4,42.31 258.94,60.23l174.74 16.62c23.72,6.84 10.05,4.69 17.81,10.88l169.75 -1.48c1.87,-1.3 4.42,-5.64 5.58,-3.93l21.51 -9.13c12.45,-2.28 24.56,-0.9 36.18,-0.64 33.81,1.48 53.15,-12.16 82.27,-19.3 7.02,-8.2 2.92,-4.46 11.89,-12.39 1.54,-1.36 6.36,-4.99 7.89,-6.16 5.68,-4.35 7.66,-5.58 15.74,-10.57 9.22,-40.57 14.26,-21.49 7.55,-74 -5.89,-4.3 -12.83,-9.4 -17.62,-14.85 -12.81,-14.58 -4.62,-4.55 -12.89,-19.81l-22.82 -4.69c-33.63,-2.53 -51.09,-11.16 -89.53,-12.49 -128.03,-4.4 -158.22,8.54 -264.43,14.52 -120.07,6.77 -263.42,43.16 -339.57,42.98z"/>
   <path class="fil2" d="M7419.55 3452.11c-3.99,9.49 0.51,8.17 -12.55,20.03 -17.38,15.77 -1.81,3.1 -20.76,11.96l-25.93 41.17c-4.04,14.02 -2.55,14.24 -8.64,24.16 -11.97,19.52 -4.28,6.29 -14.09,11.33 -1.27,23.07 -2.87,32.73 -25.31,43.92l-5.14 19.53c-2.77,9.11 -6.87,25.46 -11.11,33.46l-18.06 20.31 2.82 -2.4c-13.59,53.35 -43.33,101.96 -52.11,129.67 -2.21,6.97 -4.82,22.97 -6.61,27 -6.39,14.37 -4.54,10.03 -15.56,17.64l3.95 7.44c-2.04,19.66 -0.49,16.15 -8.07,35.69 -0.18,0.47 -5.29,12.4 -5.7,13.12 -7.21,12.96 -2.89,5.45 -9.54,11.49l-28.36 95.88c-11.12,16.06 1.91,1.33 -14.22,13.28 -0.49,41.47 -32.5,74.47 -25.54,114.38 -3.06,51.15 -21.41,60.23 -27.34,110.71 10.48,-8 13.51,-14.2 30.08,-17.19 5.66,-20.84 -5.56,-7.51 11.87,-15.07 2.86,-15.1 0.99,-11.92 11.57,-26.94 1,-1.41 8.19,-10.45 8.86,-11.05 12.05,-10.85 3.24,-5.86 21.36,-13.16 1.17,-6.59 1.51,-7.26 4.89,-15.09 4.82,-14.99 12.44,-31.1 21.36,-44.09 1.81,-2.65 12.32,-16.38 13.54,-17.9 13.13,-16.53 1.18,-8.99 18.79,-15.39 4.88,-15.46 3.04,-9.95 12.97,-25.87 14.43,-23.13 3.16,-15.79 27.24,-24.33l10.39 -17.83 29.58 -52.76 13.29 -20.12 4.42 -9.03c1.52,-15.91 -0.75,0.83 14.76,-7.58l-5.79 -0.07c5.66,-15.45 8.06,-18.58 14.74,-29.36 2.67,-4.32 4.38,-8.19 7.59,-12.08 13.82,-16.72 2.7,-5.29 17.34,-15.02l3.36 -18.67c4.2,-28.86 10.35,-47.77 34.41,-56.53 2.89,-10.42 4.49,-17.79 10.56,-28.27 16.49,-28.45 4.65,-9.56 19.3,-20.18 2.93,-4.55 11.75,-22.71 13.92,-27.13 5.86,-34.82 21.58,-42.17 27.67,-71.42l11.32 -30.03c16.94,-59.05 52.26,-122.63 -9.52,-170.86 -49.83,-6.35 -37.96,5.06 -72.02,13.23z"/>
   <path class="fil3" d="M7973.03 3044.24c-3.38,10.46 -3.05,8.89 -11.53,15.99 -7.84,15.85 12.69,8.22 -16.76,14.51 -1.55,16.47 -3.14,22.51 -12.16,33.66 -4.95,6.11 -4.98,6.66 -13.11,13.07 -9.62,7.58 -3.34,2.37 -15.43,9.27l-32.89 49.93c-9.64,32.25 -14.74,30.62 -28.21,56.19 -12.98,24.63 -13.13,39.55 -35.99,54.08 -6.26,11.67 -16.9,35.32 -22.41,45.38 -4.84,28.36 -55.57,145.06 -80.05,164.42l2.07 9.66c-1.89,24.95 -20.86,74.12 -40.24,89.22 -0.83,17.63 0.82,14.71 -6.43,34.39 -1.72,4.67 -3.02,8.64 -6.06,12.88 -8.9,12.42 -3.33,4 -12.74,12.34l-4.66 27.45c-3.16,15.19 -4.53,22.88 -10.16,37.77 -0.73,1.94 -4.69,11.18 -5.56,12.65 -5.18,8.85 -7.61,9.98 -9.25,11.79l0.96 13.4c4.55,8.95 -6.28,12.07 10.86,2.79 10.24,-29.08 5.43,-18.1 26.01,-18.31l67.39 -83.23c12.83,-12.63 1.82,-3.98 20.03,-13.44l2.64 1.98 4.72 -17.02c0.89,-1.63 2.23,-5.98 2.78,-4.84l41.99 -51.99c21.04,-21.58 1.08,-10.47 24.56,-15.29 5.78,-20.35 -6.1,-6.03 14.86,-16.92l-4.23 -0.37c6.41,-21.08 18.39,-38.62 41.07,-47.26l-0.18 2.13c7.06,-20.94 3.64,-14.93 18.47,-32.21 3.93,-4.58 5.67,-7.21 9.19,-10.63 12.98,-12.6 4.76,-5.69 15.42,-11.22 3.14,-21.23 1.31,-12.62 14.73,-31.11 17.92,-24.67 4.45,-15.46 24.32,-21.21 4.84,-21.87 4.07,-16.64 16.82,-31.39 8.2,-25.21 28.67,-56.7 51.18,-71.07l1.87 -0.89 3.17 -16.23c6.66,-19.38 41.51,-88.22 57.63,-97.83 9.41,-12.67 14.21,-21.64 10.78,-44.51 5.08,-46.55 14.57,-80.65 -15.91,-108.64 -29.37,-1.69 -33.25,3.33 -60.72,-6.17 -15.57,18.18 -14.08,17.45 -38.84,26.84z"/>
   <path class="fil4" d="M38.5 1043.48c-8.25,11.74 6.35,-4.12 -8.41,11.17 -9.81,10.16 -4.85,4.02 -11.18,8.11 0.51,20.26 -5.78,24.36 -18.92,34.37l6.28 42.07 14.22 3.38 4.99 17.61c6.27,6.7 5.34,5.02 7.72,16.79 17.96,7.65 4.21,-4.84 14.82,14.73l1.47 -1.89 90.34 44.09c24.06,7.52 17.6,0.86 30.76,16.51 24.23,-3.45 102.91,17.84 127.83,24.52 72.88,19.56 356.43,44.78 427.76,45.66l-22.48 -29.58 -4.87 -4.12c-21.43,-0.81 -17.82,-2.98 -26.49,-16.63l-3.3 -1.03c-21.91,-7.96 -12.1,-1.76 -23.02,-17.87l-3.07 3.54c-22.67,-7.01 -40.51,-15.69 -57.52,-37.31l-12.16 -4.02c-18.64,-4.92 -19.68,-6.79 -35.1,-15.58 -3.38,-1.94 -9.57,-4.99 -12.63,-7.45 -9.05,-7.29 -3.78,-3.63 -10.25,-12.93l-1.45 3.11c-16.35,-2.76 -12.48,2.42 -32.1,-10.77 -21.41,-14.37 -10.23,-7.84 -17.27,-21.74 -16.49,-3.08 -19.36,-5.89 -29.91,-12.59l-64.25 -21.93c-26.46,-9.81 -58.89,-20.57 -75.55,-40.49 -18.35,-5.48 -31.5,-11.86 -50.04,-16.9 -16.22,-2.94 -8.74,1.85 -25.66,-6.75 -13.29,-6.76 -5.4,-1.1 -13.47,-12.58l-38.96 -1.99c-23.92,-0.32 -47.4,-5.19 -71.03,-3.58 -19.61,1.33 -14.54,1.64 -30.85,6.87 -23.6,7.57 9.36,6.37 -26.23,5.22z"/>
   <path class="fil4" d="M8389.44 3959.21l-19.29 3.04 -8.76 10.21c-1.41,1.15 -2.98,2.59 -4.56,3.66 -7.91,5.37 -4.45,2.07 -13.97,5.46 -42.49,15.13 -47.67,24.15 -72.74,24.71 -6.01,7.34 3.94,0.7 -9.98,9.83 -1.56,1.02 -6.88,3.59 -8.72,4.43 -9.39,4.22 -17.4,5.59 -25.55,7.33 -16.1,18.44 -52.65,32.27 -73.16,36.99l-31.38 11.38c-14.9,18.32 -26.9,23.6 -46.91,29.53l-44.73 23.41c-17.66,20.61 -33.41,27.79 -58.51,38.25l-9.87 -0.9c-10.38,16.85 9.44,1.68 -14.29,17.62 -7.37,4.94 -9.56,4.16 -19.4,6.74l2.12 5.28c-1.75,1.12 -3.86,1.83 -4.45,4.4 -0.61,2.7 -6.38,6.05 -8.39,6.93l42.02 -1.77c41.85,7.74 228.6,-10.5 273.16,-20.44 41.56,-9.27 83.42,-15.44 119.51,-23.44 36.29,-8.03 95.64,-30.22 124.37,-29.13 4.94,-10.49 -1.76,-6.28 12.03,-14.81 3.22,-2 15.53,-4.77 19.04,-5.62 21.51,-7.23 32.72,-16.77 47.22,-28.41l10.92 -13.21c20.36,-62.48 44.62,-40.59 -6.15,-106.49l-10.13 -13.7 -12.72 -4.29c-67,-1.52 -92.66,9.25 -146.73,13.02z"/>
   <g>
    <path class="fil5" d="M1617.66 5209.84c-19.73,54.92 -139.35,219.02 -175.21,266.8 -33.87,45.13 -59.46,78.72 -94.89,122.47 -85.39,105.45 -527.61,620.48 -606.12,374.35 -33.13,-103.85 19.07,-285.7 52.62,-374.71 73.55,-195.11 216.37,-401.76 440.25,-441.97 134.04,-24.07 266.74,21.99 383.35,53.06zm1303.68 1124.92c23.01,-11.19 22.51,-8.28 49,-11.6 138.34,-17.7 316.31,-109.3 611.91,-140.93 110.53,-11.84 244.16,-6.73 341.14,27.55 76.04,26.87 122.49,55.92 174.02,109.24 46.41,48.02 55.28,94.19 105.82,-11.22 134.69,-280.9 -64.69,-399.32 -366.73,-402.67 -304.9,-3.39 -536.09,93.69 -788.61,182.41 -217.94,76.58 -585.83,178.01 -812.97,65.28 -130.73,-64.89 -177.64,-139.65 -126.05,-326.07 36.58,-132.15 100.44,-229.1 151.36,-333.94 75.75,17.7 173.25,57.35 222.21,-10.18 35.22,-48.54 48.84,-172.41 20.72,-236.75l-32.16 -2.13 -50.45 13.83c-13.45,-19.27 -2.32,-3.7 -0.19,-9.08 14.81,-32.33 122.61,-182.95 148.64,-219.34 86.91,-121.52 247.72,-341.98 254.46,-497.28 7.2,-165.97 -143.49,-252.35 -164.18,-189.23 -10.91,33.28 -0.72,46.27 -35.63,122.17 -20.06,43.59 -38.72,79.45 -59.06,118.81 -39.86,77.12 -88.3,155.04 -132.99,222.7 -42.45,64.24 -271.85,393.56 -285.67,424.97 -77.24,-9.13 -147.28,-46.91 -216.88,-60.89l-16.3 -4.97c0.04,-3.9 2.02,-10.6 2.34,-8.59 0.28,1.7 2.61,-3.22 3.64,-4.99 64.19,-105.3 126.63,-304.37 150.18,-445.04 15.16,-90.56 19.83,-191.27 -7.86,-276.53 -29.96,-92.3 -78.79,-120 -187.31,-104.56l-13.89 10.96 6.65 -19.3c59.81,-211.37 264.31,-442.5 390.56,-594.64 18.85,-22.72 37.92,-39.32 56.79,-61.68 22.17,-26.26 31.99,-37.98 60.81,-64.26 41.96,-38.28 83.01,-86.11 121.96,-128.42l178.4 -190.39c162.12,-184.49 338.64,-402.56 433.1,-679.65 205.97,-604.24 -352.89,-519.54 -369.66,-501.32 -15.69,17.09 24.41,70.4 42.9,137.84 116.83,426.17 -344.57,924.01 -562.26,1199.8 -108.94,138 -330.94,442.78 -396.35,604.79 -19.84,49.17 -34.57,126.15 -55.17,151.52 -41.23,-498.84 507.54,-1353.84 561.43,-1614.75 41.63,-201.5 -67.92,-382.56 -245.89,-453.22 -198.21,-78.69 -431.44,35.51 -554.62,127.06 -241.69,179.64 -545.68,589.74 -503.98,930.9 25.7,210.31 178.16,312.67 368.7,316.32l42.47 -6.13c-13.13,-41.31 -128.02,-72.34 -137.4,-269.88 -5.87,-123.23 32.89,-232.68 71.7,-332.72 94.05,-242.34 306.01,-575.64 549.2,-662.77 147.1,-52.71 224.52,-12.2 190.14,157.29 -19.11,94.25 -69.19,213 -105.48,296.19 -86.92,199.3 -167.01,355.34 -262.8,547.29 -125.35,251.18 -338.91,616.94 -252.61,926.74 29.81,107.01 92.07,188.88 173.7,228.02 167.26,80.19 143.29,-34.63 213.04,30.47 103.88,96.94 -56.52,430.15 -108.63,539.4 -21.01,44.06 -55.72,96.53 -69.57,136.17 -184.48,-15.58 -500.06,-252.9 -886.52,60.31 -154.74,125.41 -361.59,535.67 -224.34,836.37 151.27,331.41 559.96,149.32 744.67,-39.51 189.97,-194.2 218.84,-215.97 389.99,-466.17l113.64 -176.04 209.25 96.01 -72.89 191.69c-66.6,212.68 -58.13,481.51 97.5,624.22 215.96,198.03 522.88,173.66 853.03,120.52z"/>
    <path class="fil5" d="M7570.52 5216.76c29.35,-0.36 55.28,-23.31 91.92,-5.68 105.95,50.94 15.11,422.07 -164.8,492.25 -83.21,32.47 -123.4,4.8 -122.46,-78.34 1.82,-160.7 105.28,-335.36 184.96,-453.13l10.38 44.9zm-1739.27 423.73c6.78,7.16 1.88,1.15 8.96,10.61 0.75,1 3.85,6.51 4.91,8.44 1.72,83.36 47.55,136.48 113.7,155.04 81.1,22.75 150.69,-21.09 199.14,-54.63 71.44,-49.45 213.32,-198.93 251.7,-287.48l6.57 -15.33c1.09,1.62 3.25,3.71 3.62,4.58 0.3,0.71 1.65,3.66 1.91,4.36 0.22,0.6 -0.64,4.89 -0.49,4.02 0.14,-0.93 -1.53,2.48 -2.22,3.76 -20.71,125.04 -26.76,242.43 52.71,314.8 72.53,66.06 195.97,70.76 306.41,37.89 164.59,-48.97 311.24,-240.85 394.69,-377.74 -4.36,158.76 -12.29,234.93 88.8,320.42 80.47,68.05 232.04,75.17 333.15,18.18 88.91,-50.12 148.31,-122.9 196.66,-225.03 48.31,-102.07 78.77,-203.66 68.56,-331.94 141.63,-18.7 85.65,-171.04 13.54,-179.83 -14.58,10.12 -24.86,26.77 -34.58,42.07 -12.91,11.03 15.99,6.36 -17.24,10.27 -0.75,-17.34 -1.32,-9.42 5.8,-20.32 5.07,-53 19.07,-94.58 -0.72,-148.37 -47.43,-128.89 -222.59,-91.54 -328.92,-20.82 -182.39,121.32 -254.65,344.75 -277.2,362.05 -53.78,26.38 -30.95,-16.54 -77.85,53.48 -78.52,117.22 -189.46,273.27 -316.4,335.61 -57.83,28.39 -160.25,41.09 -184.63,-19.84 -40.16,-100.42 89.24,-312.19 130.24,-377.15 36.28,-57.5 184.12,-273.61 258.54,-241.68 40.47,72.32 -73.56,124.29 -40.24,170.93 35.5,49.7 95.26,-10.85 121.89,-83.05 132.48,-359.29 -263.56,-379.65 -538.27,21.7l-87.24 143.25c-80.51,4.53 -67.18,19.71 -106.79,77.69 -36.87,53.98 -215.38,311.43 -277.93,262.7 -16.28,-12.7 -15.58,-30.91 -9.48,-56.08 13.44,-55.41 150.92,-255.39 187.42,-313.28 140.46,-222.82 21.13,-357.44 -83.76,-352.98 -16.15,18.07 -34.14,75.29 -49.83,107.39 -67.8,138.62 -204.23,354.3 -302.07,468.53 -27.16,31.71 -109.66,144.52 -175.14,130.54 -24.85,-93.01 133.47,-339.06 174.22,-401.73 38.32,-58.94 80.2,-120.93 72.82,-213.59 -9.28,-116.74 -114.17,-171.14 -137.53,-141.47l-11.11 22.54c-33.77,96.41 -177.62,337.62 -229.53,409.44 -71,6 -49.05,-14.67 -107.09,77.2 -23.73,37.58 -51.79,73.59 -77.14,107.3 -26.94,35.82 -138.07,188.17 -201.57,157.42 -36.51,-27.75 32.46,-136.94 46.4,-161.23 27.79,-48.39 55.93,-93.65 86.34,-137.48 47.24,-68.1 148.87,-197.27 121.57,-318.04 -12.05,-53.32 -58.37,-101.03 -112.55,-111.47 -110.95,-21.39 -218.02,100.96 -278.43,160 -38.65,37.79 -81.33,107.65 -98.32,120.63l-8.89 0.71c147.56,-220.07 -45.39,-385.1 -86.06,-321.45 -0.8,1.24 -1.79,2.93 -2.55,4.3l-16.51 42.94c-35.05,84.19 -104.75,197.44 -152.13,275.82 -21.34,35.31 -42.6,75.18 -65.81,104.32 -81.71,-0.44 -75.04,23.26 -110.87,74.58 -46.86,67.12 -194.43,281.59 -274.45,269.34 -37.08,-150.31 185.02,-444.59 274.28,-559.26 43.39,-55.77 121.53,-121.66 118.62,-156.94 -29.64,-21.3 -128.37,-10.16 -170.54,-10.2 -94.64,-0.07 -69.97,29.36 -118.23,56.62 -23.03,-43.62 -45.05,-139.89 -187.49,-108.44 -208.98,46.12 -358.23,247.55 -462.14,433.27 -77.33,7.45 -52.03,-2.78 -110.75,80.09 -25.85,36.46 -50.54,71.25 -77.82,106.64 -27.03,35.05 -56.91,70.51 -85.61,98.79 -26.71,26.34 -65.85,73.49 -119.03,56.91 -22.76,-72.32 46.44,-155.93 77.91,-203.41 76.33,-115.17 194.72,-267.43 166.83,-397.22 -13.67,-63.62 -77.92,-134.51 -152.96,-121.25 -48.29,143.56 -139.26,287.19 -215.5,402.36 -42.44,64.11 -85.8,118.74 -131.98,177.65 -21.62,27.59 -50.27,56.45 -73.55,78.02 -14.76,13.68 -73.03,69.5 -97.18,41.03 -36.6,-68.46 141.24,-344.53 172.43,-393.91 36.86,-58.36 82.57,-122.72 74.49,-218.27 -6.03,-71.39 -63.78,-156.55 -128.8,-147.46 -22.73,16.68 -27.21,54.05 -39.78,80.59l-127.22 228.39c-62.73,100.49 -114.07,182.88 -162.45,305.15 -51.96,131.3 -63.01,276.41 68.98,322.25 72.57,25.2 137.18,1.39 188.47,-31.86 67.32,-43.65 101.14,-92.03 126.87,-107.91 4.1,194.08 164.04,228.41 305.28,131.76 60.19,-41.18 96.83,-82.21 144.96,-131.67 26.19,-26.92 94.9,-116.23 113.45,-155.25l6.95 7.06c-3.91,72.77 -28.71,119.08 1.66,196.82 20.22,51.79 60.58,88.56 126.08,95.94 157.29,17.74 247.16,-145.43 272.01,-159.12 7.88,195.56 85.83,252.3 249.7,152.2 75.67,-46.23 202.65,-172.76 244.03,-253.61 9.18,5.24 5.65,-13.75 6.59,12.07 3.8,67.38 -21.91,112.25 9.94,185.95 19.16,44.29 54.82,89.74 118.63,88.36 68.54,-1.48 86.09,-49.39 107.38,-99.32 66.85,-156.84 289.44,-574.51 412.71,-601.7 -6.49,47.78 -52.97,110.22 -77.32,146.74 -359.82,539.72 -18.62,743.14 282.58,394.47 19.31,-22.35 33.34,-38.11 51.37,-60.59 14.87,-18.51 29.13,-43.04 46.69,-58.02 -3.18,58.74 -42.6,238.79 138.08,257.18 134.24,13.67 213.42,-106.52 262.68,-143.71zm-967.11 -392.1l-13.83 21.32c6.91,-41.78 2.32,-14.29 13.83,-21.32zm2810.35 -142.57l-63.44 -1.91c8.09,-22.26 1.19,-6.34 13.33,-13.89 22.7,-15.98 63.98,-78.13 111.26,-51.2 14.13,26 6.33,44.5 -3.13,74.58l-58.02 -7.58zm-3885.47 500.55c-40.75,-96.96 326.65,-651.73 409.52,-580.6 50.75,43.55 -134.88,305.63 -156.85,336.73 -38.39,54.33 -175.07,270.45 -252.67,243.87z"/>
    <path class="fil5" d="M3513.43 3721.17c2.58,60.75 -7.88,127.48 -39.05,165.24 -52.9,64.1 -202.57,74.53 -150.11,-44.89 24.4,-55.59 133.24,-107.17 189.17,-120.34zm-306.33 111.22l12.8 2.6c-9.26,66.59 0.52,123.7 31.87,168.45 21.55,30.74 75,70.14 128.59,80.04 6.32,4.44 -5.61,2.13 14.72,8.39 16.23,4.99 90.19,10.6 112.08,5.04 13.83,-3.52 12,-4.97 15.39,-6.79 41.69,-2.08 85.33,-21.19 115.64,-39.97 35.08,-21.74 59.38,-40.62 86.27,-71.57 43.88,-50.48 85.99,-141.57 84.22,-233.98 16.78,-10.26 6.23,-67.77 4.21,-87.06l58.61 0.19 -5.57 27.08c4.68,88.73 -14.17,141.93 37,213.99 155.85,219.51 482.66,-83.45 494.45,-118.63 11.25,-17.79 -11.99,-7.91 9.48,-13.6 11.17,12.68 8.62,-15.42 9.31,20.83 0.29,15.23 -7.63,17.56 -7.97,18.08 6.86,78.62 18.95,137.35 64.47,175.72 157.62,132.9 401.81,-14.52 518.19,-112.77 90.74,-76.59 157.05,-148.36 233.21,-247.52 26.61,-34.65 188.4,-263.15 174.69,-302.6 -91.84,-31.05 -102.63,54.35 -215.42,182.84 -65.48,74.59 -226.58,263.95 -316.81,295.23 -60.4,20.92 -139.43,4.98 -151.63,-44.73 -20.03,-81.65 97.2,-232.97 130.19,-279.21 127.26,-178.38 302.4,-380.12 447.54,-579.88l260.3 -358.58c136.74,-10.28 451.54,-30.9 533.93,45.89 59.79,-103.28 75.95,-220.09 -83.49,-225.92 -125.62,-4.6 -243.75,22.23 -363.97,30.24 22.12,-134.5 7.5,-166.33 -70.32,-237.18 -29.41,-26.76 -168.76,-124.78 -222.36,-109.25 -17.41,28.03 -19.18,68.65 -30.07,101.59 -10.18,30.8 -101.32,281.56 -130.09,288.98 -64.57,-1.13 -77.7,-2.86 -123.13,-28.11 -13.91,32.83 -19.82,65.22 -4.99,99.26 15.33,35.21 38.41,34.18 68.06,56.5 -61.7,153.21 -421.51,622.79 -535.63,813.61 -65.04,108.76 -121.86,174.09 -195.05,259.44 -117.85,137.43 -259.44,178.05 -229.89,34.13 38.82,-189.06 459.72,-519.16 298.85,-754.28 -22.39,-32.73 -80.13,-88.72 -143.58,-78.92l-92.85 190.32c-116.19,202.87 -222.43,328.43 -317.89,536.02l-113.26 -13.21c-15.95,-200.29 -92.78,-327.3 46.03,-473.29 37.72,-39.67 67.21,-47.26 111.35,-83.97 -0.7,-88.22 -118.17,-190.2 -261.27,-138.47 -91.88,33.22 -165.98,134.84 -206.43,228.28 -22.93,52.99 -35.31,110.15 -39.21,171.6 -8.3,130.75 27.91,104.43 -32,185.29l-142.88 179.95c-27.47,33.7 -130.22,134.12 -181.8,141.95 -84.81,12.9 -72.02,-80.28 -48.25,-135.1 20.96,-48.35 56.01,-97.6 82.77,-134.49 74.14,-102.2 214.33,-290.82 233.64,-411.36 11.57,-72.26 -4.07,-127.27 -37.84,-173.38 -13.24,-18.08 -119.41,-119.35 -149.86,-47.84 -2.1,4.93 -5.49,17.34 -8.2,24.63 -61.94,166.21 -297.64,469.62 -385.6,668.49 -180.59,408.31 145.62,572.89 429.46,287.02zm265.51 -321.67c10.47,-6.97 -12.47,-13.63 12.74,-4.6l3.39 17.92 8.57 62.71 -100.17 39.98c21.74,-36.34 57.08,-77.48 75.48,-116.01z"/>
    <path class="fil5" d="M3375.45 2593.1c-138.49,35.07 -141.14,300.58 28.94,235.94 46.79,-17.78 100.92,-71.69 101.09,-134.76 0.19,-69.85 -55.33,-120.1 -130.03,-101.18z"/>
    <path class="fil5" d="M4506.26 2596.56c-54.2,20.65 -93.2,69.5 -94.7,143.99 -3.44,169.68 236.79,94.22 231.33,-52.98 -2.59,-69.68 -66.68,-117.64 -136.63,-91.01z"/>
    <path class="fil5" d="M4199.99 4755.9c-14.95,112.74 282.08,49.51 303.99,-63.35 7.09,-36.51 -24.95,-57.45 -61.33,-56.41 -69.48,1.97 -104.29,64.69 -153.08,91.87 -36.46,20.32 -56.48,6.32 -89.58,27.89z"/>
   </g>
   <path class="fil6" d="M7572.75 4466.69c76.15,0.18 219.5,-36.21 339.57,-42.98 106.21,-5.98 136.4,-18.92 264.43,-14.52 38.44,1.33 55.9,9.96 89.53,12.49 -45.98,-53.99 -289,-16.77 -359.69,-9.47l-256.62 35.75c-14.14,1.68 -29.83,1.28 -43.43,3.57 -1.42,0.24 -16.14,4.41 -18.59,5.52 -10.7,4.85 -9.85,5.72 -15.21,9.63z"/>
   <path class="fil7" d="M703.7 1291l22.48 29.58c-71.33,-0.88 -354.88,-26.1 -427.76,-45.66 -24.92,-6.68 -103.6,-27.97 -127.83,-24.52 12.57,10.57 41.39,16.09 57.23,20.3 22.16,5.91 48.83,12.15 71.74,15.44 113.98,16.37 351.95,58.25 452.31,41.85 -2.58,-22.57 -26.13,-30.85 -48.16,-37z"/>
   <path class="fil8" d="M7958.93 4205.74c-5.72,3.68 -1.72,3.99 -13.58,6.9 -32.02,7.89 -34.37,-3.17 -38.61,-5.67l23 -10.8 -2.12 -5.28c-21.93,4.18 -33.64,10.32 -31.04,34.04 50.59,2.93 231.95,-20.19 303.52,-22.77 30.76,-1.11 248.93,-42.1 275.88,-69.45 -28.73,-1.09 -88.07,21.1 -124.37,29.13 -36.09,8 -77.95,14.17 -119.51,23.44 -44.57,9.94 -231.31,28.19 -273.16,20.44z"/>
   <path class="fil6" d="M336 1552.05c31.44,-1.41 75.34,-12.78 109.06,-16.47 115.92,-12.66 269.65,20.28 359.51,21.16l-49.92 -18.19c-100.39,-6.29 -364,-37.36 -418.65,13.5z"/>
   <path class="fil6" d="M7768.69 4571.13c-28.54,-17.92 -212.37,-40.07 -258.94,-60.23 -9.25,-1.42 -39.5,-2.91 -39.97,-3.04 -45.59,-12.68 -7.49,5.01 -24.27,-22.22 3.77,-0.02 25.11,0.44 27.6,-0.05 25.63,-5.05 17.47,-6.58 25.02,-11.63l-74.27 3.54c-7.79,36.47 28.85,34.34 60.97,39.88 61.64,10.64 224.26,65.52 283.87,53.75z"/>
   <path class="fil9" d="M780.72 1732.75c67.21,-4.83 351.98,-50.82 386.11,-75.96 -37.58,-1.75 -226.91,43.23 -288.66,54.66 -17.51,3.24 -35.52,4.22 -53.28,5.52 -53.64,3.91 -38.73,4.57 -44.17,15.79z"/>
   <path class="fil10" d="M7419.55 3452.11c34.06,-8.17 22.19,-19.58 72.02,-13.23 61.78,48.23 26.46,111.81 9.52,170.86l3.11 19.3 14.64 -32.6c4.87,-14.11 6.74,-21.9 10.39,-36.92 5.93,-24.24 15.75,-55.97 5.88,-87 -14.69,-46.1 -90.89,-78.69 -115.56,-20.41z"/>
   <path class="fil11" d="M1455.42 1149.35c-8.41,-30.1 -95.6,-143.88 -126.07,-202.22 -1.94,-3.69 -4.54,-9.1 -7.44,-12.41 -9.75,-11.1 0.62,-1.43 -12.6,-7.61 8.67,46.34 48.46,79.73 64.95,113.2 11.78,23.93 52.34,89.3 81.17,109.04z"/>
   <path class="fil12" d="M1608.29 1353.12l19.86 36.3 -0.7 0.81c6.7,4.81 11.24,2.55 16.01,8.75l6.43 -12.08 -44.96 -161.29c-9.9,-29.88 -1.25,-13.7 -16.42,-22.86 0.99,34.68 6.21,47.14 16.19,78.83 8.19,26.01 18.7,47.62 24.4,69.22 -12.24,9.37 16.58,19.92 -20.81,2.32z"/>
   <path class="fil13" d="M1229.77 1640.55l21.5 -17.87c-20.35,-3.29 -5.4,-2.15 -12.71,-9.35 -66.6,-0.91 -152.13,-32.9 -212.29,-26.57 -9.55,14.07 -7.96,3.85 46.85,14.71l102.3 17.85c4.55,0.46 33.65,1.28 34.51,1.48 39.1,8.91 16.17,-5.07 19.84,19.76z"/>
   <path class="fil14" d="M7071.95 4257.29l-1.53 30.72 15.54 3.75 17.65 -25.31c5.93,-18.81 -0.67,-5.21 7.21,-17.03 7.58,-11.36 3.39,-3.39 13.4,-11.23l-2.45 -3.48c-16.56,3 -19.6,9.19 -30.08,17.19 5.93,-50.48 24.28,-59.56 27.34,-110.71 -9.8,6.13 -10.67,-1.82 -19.06,28.15 -4.67,16.73 -1.69,12.74 -8.17,28.64 -8.37,20.57 -12.37,39.55 -19.86,59.31z"/>
   <path class="fil15" d="M1026.27 1586.75c-24.66,-21.59 -190.9,-38.34 -213.08,-34.95 21.09,17.09 208.05,35.26 213.08,34.95z"/>
   <path class="fil16" d="M8088.51 3132.21c15.33,-10.59 4.15,5.5 13.24,-12.38 13.97,-27.48 4.94,-96.11 -23.42,-107.62l-52.92 -0.29c-21.83,4.07 -6.38,1.47 -13.53,5.49 27.47,9.5 31.35,4.48 60.72,6.17 30.48,27.99 20.99,62.09 15.91,108.64z"/>
   <path class="fil17" d="M7206.52 3849.91c11.01,-7.61 9.17,-3.27 15.56,-17.64 1.79,-4.03 4.4,-20.03 6.61,-27 8.78,-27.71 38.51,-76.32 52.11,-129.67 -22.5,15.79 -17.47,13.22 -26.78,39.74 -5.49,15.64 -10.19,25.58 -16.66,40.7 -13.06,30.54 -27.26,55.87 -30.83,93.87z"/>
   <path class="fil18" d="M7704.49 3500.75c24.48,-19.37 75.2,-136.07 80.05,-164.42 -17.09,15.71 -31.99,51.28 -42.87,76.11 -15.29,34.9 -26.07,43.02 -37.18,88.31z"/>
   <path class="fil10" d="M1239.5 799.53c-6.18,-20.32 -53.85,-134.9 -71.69,-149.95 4.92,34.87 12.67,50.21 29.12,80.97 20.42,38.18 14.78,55.05 42.57,68.97z"/>
   <path class="fil19" d="M1254.94 487.42c28,8.9 18.33,-4.15 28.52,25.81l22.85 16.24 15.81 18.2 4 14.36c1.5,0.69 3.9,-0.14 4.58,1.94l13.29 8.66c1,0.74 2.86,2.51 4.26,3.8 -15.97,-44.21 -5.14,-31.37 -35.1,-60.74 -11.08,-10.85 -9.78,-11.49 -23.4,-22.97 -21.25,-17.9 -8.99,-18.07 -34.68,-11.23l-0.13 5.93z"/>
   <path class="fil16" d="M908.17 445.76c-4.42,-30.11 -16.15,-42.15 -26.62,-67.36 -3.55,-4.45 -5.16,-6.04 -10.04,-14.57 -0.79,-1.38 -1.87,-2.77 -2.44,-6 -0.58,-3.31 -1.42,-4.2 -2.14,-6.28 -3.16,-10.2 -0.67,-7.84 -5.76,-16.46 -10.05,-17.02 -8.81,-11.5 -18.16,-17.95 2.6,39.57 -1.16,2.73 13.51,37.65 1.47,3.48 40.93,96.14 46.58,86.91 0.8,-1.31 3.37,2.73 5.07,4.07z"/>
   <path class="fil20" d="M381.56 681.41c1.8,-68.81 13.73,-74.03 81.58,-74.12 -7.73,-7.94 -2.11,-7.08 -17.93,-10.98 -34.28,-8.44 -65.84,18.23 -72.32,43.92 -11.68,46.33 5.79,38.15 8.68,41.17z"/>
   <path class="fil21" d="M532.82 33.55c-4.96,24.32 -10.07,29.06 -8.93,59.54 0.27,7.06 1.7,23.41 3.05,30.13 7.13,35.44 1.71,18.45 16.66,29.13 -1.48,-26.15 -10.54,-47.42 -9.33,-73.08 1.84,-38.94 12.75,-22.45 24.57,-59.61 -1.82,0.91 -4.2,1.98 -5.52,2.65l-20.51 11.23z"/>
   <path class="fil22" d="M605.29 281.55l-47.23 -102.45c-11.45,-18.55 -7.51,-9.69 -16.24,-17.73 4.93,29.2 35.52,107.62 63.46,120.19z"/>
   <path class="fil23" d="M8123.84 3568.88c77.19,-10.47 45.88,-28.33 118.47,6.89 -11.63,-23.1 -24.48,-33.24 -52.53,-32.78 -11.71,0.19 -23.65,3.08 -34.83,6.27 -22.99,6.58 -18.44,4.13 -31.11,19.61z"/>
   <path class="fil24" d="M170.59 1250.41c-13.16,-15.65 -6.7,-8.99 -30.76,-16.51l-90.34 -44.09c8.76,13.9 4.99,12.45 20.61,22.5 7.85,5.06 18.67,9.25 30.18,15.26 24.54,12.84 44.05,22.53 70.32,22.84z"/>
   <path class="fil22" d="M764.54 174.59c-6.12,-25.59 -17.68,-37.56 -33.83,-58.2 -6.51,-8.33 -12.97,-16.91 -19.99,-25.78 -14.59,-18.48 -8.19,-13.42 -28.74,-23.26 10.63,21.38 25.36,37.74 40.99,56.68 7.73,9.36 11.79,15.04 19.39,27.14 11.98,19.08 5.24,15.48 22.18,23.42z"/>
   <path class="fil25" d="M38.5 1043.48c35.6,1.15 2.63,2.34 26.23,-5.22 16.31,-5.23 11.24,-5.54 30.85,-6.87 23.64,-1.61 47.11,3.26 71.03,3.58 -21.63,-18.03 -113.32,-25.33 -128.11,8.51z"/>
   <path class="fil10" d="M1433.3 757.64c2.14,-37.3 -1.2,-18.32 -17.55,-54.22l-18.93 -39.36c-1.15,-1.42 -2.63,-3 -3.81,-4.29 -1.34,-1.46 -3.69,-3.04 -4.89,-4.23 -1.29,-1.27 -3.62,-2.87 -5.47,-4.24 4.46,23.51 32.38,88.41 50.65,106.34z"/>
   <path class="fil22" d="M7622.55 3780.97l-25.58 13.1c6.14,-25.44 -6.72,-11.58 15.45,-31.76l-0.96 -13.4c-18.31,11.07 -33.29,49.65 -33.67,71.49 28.78,-4.91 34.15,-14.68 44.76,-39.43z"/>
   <path class="fil26" d="M7806.95 3290.95c22.86,-14.53 23.02,-29.45 35.99,-54.08 13.47,-25.57 18.57,-23.95 28.21,-56.19l-21.92 22.61c-16.72,26.57 -35.41,59.38 -42.29,87.66z"/>
   <path class="fil22" d="M7649.3 3746.79c17.59,-4.02 7.52,2.23 24.08,-14.5 7.25,-7.32 14.87,-16.5 21.72,-24.63 14.11,-16.73 32.22,-33.34 41.62,-57.53 -18.21,9.47 -7.2,0.81 -20.03,13.44l-67.39 83.23z"/>
   <path class="fil24" d="M8565.17 4070.67l11.45 -10.71c18.77,-8.94 20.88,-34.12 15.58,-61.86 -5.27,-27.6 -20.37,-39.13 -43.31,-47.62l10.13 13.7c50.77,65.9 26.51,44.01 6.15,106.49z"/>
   <path class="fil27" d="M1147.47 1173.2c-14.24,-23.41 -66.03,-75.27 -90.2,-91.86 10.85,27.74 62.14,79.88 90.2,91.86z"/>
   <path class="fil10" d="M1309.3 927.11l-46.2 -91.03c-0.96,-1.33 -2.05,-2.88 -3.09,-4.15l-8.06 -8.21c-1.08,-1.1 -3.09,-2.75 -4.64,-4.12 2.4,20.55 15.65,44.18 24.71,59.35l21.8 37.2c15.19,20.59 0.08,4.87 15.49,10.96z"/>
   <path class="fil6" d="M1229.77 1640.55c-15.14,-1.14 -13.91,-0.11 -30.03,2.64 -0.62,0.11 -16.93,2.83 -17.47,3.01 -17.4,5.69 -9.39,-0.27 -15.45,10.59 20.26,3.82 33.9,-2.33 56,-7.71 24.31,-5.91 34.04,-5.06 41.02,-28.26l-25.29 -7.5c7.31,7.2 -7.64,6.06 12.71,9.35l-21.5 17.87z"/>
   <polygon class="fil28" points="7317.82,4308.19 7292.86,4333.19 7313.5,4340.71 7348.74,4322.65 7345.63,4310.38 7331.55,4313.63 7340.08,4296.77 7326.91,4299.56 "/>
   <path class="fil29" d="M1166.3 497.49c24.28,-8.7 22.33,-15.73 37.62,-19.54 13.88,-3.46 11.36,-1.6 22.75,-0.15 28.14,3.56 -11,6.05 28.4,3.69 -11.7,-13.76 -17.38,-21.39 -46.44,-17.38 -11.27,1.56 -17.76,3.8 -26.26,10.44 -21.03,16.44 -9,9.33 -16.07,22.94z"/>
   <path class="fil22" d="M8020.09 3274.56c1.76,-1.32 9.34,-6.57 10.9,-7.65 1.65,-1.13 4.08,-2.78 5.75,-3.92 1.68,-1.16 3.92,-2.59 5.84,-3.95 6.11,-29.5 26.53,-42.21 35.14,-82.32 -16.12,9.61 -50.98,78.45 -57.63,97.83z"/>
   <path class="fil30" d="M8389.44 3959.21c54.07,-3.77 79.73,-14.54 146.73,-13.02 -10.58,-7.64 -13.07,-12.03 -36.75,-13.72l-109.98 26.74z"/>
   <path class="fil31" d="M1350.4 1430.07l1.65 12.79 21.29 7.99c16.33,6.74 12.17,4.95 26.44,12.72 6.65,-7.01 3.01,0.59 5.68,-12.93 -17.86,-5 -5.78,4.8 -17.78,-15.06l-0.25 -0.53 -17.4 -19.19 -6.28 -1.76 2.22 16.4 -15.59 -0.42z"/>
   <path class="fil29" d="M1478.21 863.12l-35.53 -93.99c-11.69,-18.36 -1.63,-3.09 -9.37,-11.48 -5.62,21.37 8.08,36.76 16.15,56.06 3.04,7.28 6.43,17.13 8.58,22.5 15.92,39.67 0.88,15.11 20.17,26.92z"/>
   <path class="fil17" d="M7327.48 3935.1l-13.29 20.12 -29.58 52.76c20.48,-10.84 2.4,8.85 21.71,-18.24 5.73,-8.02 7.12,-13.28 12.25,-20.39 10.85,-15 20.66,-27.97 28.09,-50.86 -15.51,8.41 -13.24,-8.33 -14.76,7.58l-4.42 9.03z"/>
   <path class="fil29" d="M7144.58 4026.81c16.13,-11.95 3.1,2.78 14.22,-13.28l28.36 -95.88c-16.03,11 -16.39,27.51 -24.15,47.19 -8.33,21.14 -14.49,39.58 -18.43,61.96z"/>
   <path class="fil32" d="M7744.08 3635.07l11.99 -1.93c15.95,-12.23 49.68,-54.31 57.33,-70.2 -23.49,4.82 -3.53,-6.28 -24.56,15.29l-41.99 51.99c-0.55,-1.14 -1.88,3.22 -2.78,4.84z"/>
   <path class="fil33" d="M7180.32 4153.39c16.2,-9.64 2.92,3.86 18.01,-13.84 5.47,-6.43 7.65,-13.06 12.63,-20.46 14.17,-21.11 17.68,-14.96 23.05,-43.07 -17.61,6.4 -5.67,-1.14 -18.79,15.39 -1.22,1.52 -11.73,15.25 -13.54,17.9 -8.92,12.98 -16.54,29.1 -21.36,44.09z"/>
   <path class="fil34" d="M7666.32 3599.63c19.38,-15.11 38.35,-64.27 40.24,-89.22 -9.85,8.49 -6.64,2.92 -14.5,17.14 -2.9,5.27 -5.8,15.06 -9.7,23.34 -11.14,23.65 -16.05,20.01 -16.04,48.75z"/>
   <path class="fil35" d="M7489.77 3639.76c-6.09,29.25 -21.81,36.6 -27.67,71.42 22.93,-16.08 40.37,-50.06 42.1,-82.14 -11.27,15 -1.89,1.77 -14.43,10.72z"/>
   <path class="fil36" d="M7498.13 4473.95c-7.56,5.06 0.61,6.59 -25.02,11.63 -2.48,0.49 -23.83,0.04 -27.6,0.05 16.79,27.23 -21.32,9.54 24.27,22.22 0.47,0.13 30.72,1.62 39.97,3.04l-21.43 -8.98c-21.5,-7 -6.55,4.17 -25.75,-12.6l114.58 -24.94 -79.03 9.56z"/>
   <path class="fil26" d="M1071.2 876.67c10.65,25.25 3.31,18.89 25.65,26.66 9.09,-15.12 9.5,-25.81 -9.06,-57.69 -14.2,-24.4 -0.75,-4.36 -13.38,-15.7l17.47 57.86 -20.68 -11.13z"/>
   <path class="fil21" d="M652.34 358.5c-6.28,-21.66 -12.29,-28.59 -21.35,-43.1 -5.29,-8.48 -8.2,-15.86 -11.69,-20.76 -13.51,-19.04 -6.76,-7.74 -14.02,-13.08 1.71,26.72 20.96,61.71 47.05,76.94z"/>
   <path class="fil20" d="M7925.74 3707.52c21.83,-11.99 25.09,-18.85 41.22,-30.69 7.04,-5.17 12.78,-7.38 20.67,-12.79 19.86,-13.66 7.65,0.59 15,-17.63 -22.53,4.17 -25.3,10.45 -42.75,23.11 -6.15,4.48 -13.32,8.59 -18.43,13.68 -18.94,18.87 -8.31,8.79 -15.71,24.32z"/>
   <path class="fil11" d="M1380 639.39l-31.74 -62.95c-1.41,-1.29 -3.26,-3.06 -4.26,-3.8l-13.29 -8.66c-0.68,-2.09 -3.08,-1.26 -4.58,-1.94 4.92,12.2 11.46,23.72 19.91,37.91 2.81,4.71 10.47,18.23 12.6,21.17 17.75,24.54 4,8.46 21.36,18.28z"/>
   <path class="fil9" d="M8312.06 4535.02c22.43,-12.46 28.34,-29.43 22.49,-55.8 -6.5,-29.34 -10.75,-15.75 -14.94,-18.2 6.71,52.51 1.67,33.43 -7.55,74z"/>
   <path class="fil37" d="M7602.64 4162.38c23.89,-3.23 19.01,-5.6 37.04,-16.1 6.05,-3.52 13.43,-5.76 17.68,-8.39 19.61,-12.14 12.03,4.23 14.56,-18.88 -19.48,3.92 -24.4,8.15 -40.89,18.77 -5.09,3.28 -11.02,6.52 -15.65,10.23 -15.34,12.32 -6.83,5.99 -12.73,14.37z"/>
   <path class="fil23" d="M1373.35 1450.85c12.83,20.23 26.99,29.88 53.05,30.95 -0.86,-13.25 4.85,-8.81 -4.13,-21.58 -8.39,-11.94 -6.76,-5.78 -16.8,-9.59 -2.67,13.52 0.96,5.92 -5.68,12.93 -14.27,-7.77 -10.1,-5.98 -26.44,-12.72z"/>
   <path class="fil32" d="M1059.25 851l1.75 14.12c4.58,10.69 1.32,6.11 10.2,11.55l20.68 11.13 -17.47 -57.86c2.77,-10.2 4.1,-6.98 -7.28,-6.98l3.67 27.33c-6.35,5.44 11.71,14.31 -11.54,0.72z"/>
   <path class="fil38" d="M7612.43 3762.31c-22.17,20.18 -9.31,6.32 -15.45,31.76l25.58 -13.1 26.75 -34.18c-20.59,0.21 -15.78,-10.77 -26.01,18.31 -17.15,9.27 -6.31,6.16 -10.86,-2.79z"/>
   <path class="fil33" d="M1572.52 1131.86c-3.01,-22.91 -9.51,-59.28 -28.96,-75.18 1.47,16.48 2.6,25.36 7.85,43.2 1.87,6.33 5.27,15.26 7.98,19.34 8.81,13.27 2.86,3.53 13.13,12.64z"/>
   <path class="fil6" d="M7961.24 4598.63c-7.76,-6.19 5.9,-4.04 -17.81,-10.88l-174.74 -16.62 192.55 27.5z"/>
   <path class="fil21" d="M7963.88 3362.75c1.81,-1.61 4.54,-5.74 5.82,-4.34 1.24,1.35 4,-3.11 5.54,-4.34 1.48,-1.2 3.66,-2.72 5.25,-4.35 14.91,-18.57 27.22,-33.01 34.56,-58.04 -22.5,14.36 -42.98,45.86 -51.18,71.07z"/>
   <path class="fil34" d="M958.22 751.47c-6.34,-20.29 5.6,-11.19 -8.9,-17.05l-35.36 -44.32c-11.93,-12.11 3.02,0.62 -14.5,-11 12.82,37.43 43.95,62.73 58.75,72.37z"/>
   <path class="fil39" d="M370.3 1113.68l-2.52 -12.67c-25.24,-7.98 -37.83,-21.42 -73.03,-27.83 16.65,19.92 49.08,30.68 75.55,40.49z"/>
   <path class="fil39" d="M8152.72 4064.87c20.52,-4.72 57.07,-18.55 73.16,-36.99 -23.55,-3.68 -59.73,19.42 -73.16,36.99z"/>
   <path class="fil14" d="M7383.91 3843.28c14.33,-9.15 3.74,0.69 14.03,-10.67 0.35,-0.39 7.55,-10.63 8.39,-11.87 7.28,-10.7 10.77,-16.74 11.99,-33.99 -24.06,8.76 -30.21,27.67 -34.41,56.53z"/>
   <path class="fil40" d="M7085.96 4291.75l-15.54 -3.75 1.53 -30.72 -8.37 10.93c-9.56,19 -11.15,30.65 -0.08,46.82 2.67,-1.56 10.93,-5.8 12.78,-7.85 1.03,-1.16 2.56,-3.08 3.54,-4.33l6.13 -11.11z"/>
   <path class="fil41" d="M1265.06 1390.99c-5.82,-9.52 -3.56,-9.14 -10.83,-18.85l-52.86 -25.29c9.17,17.8 -2.24,3.32 9.27,15.65 5.55,5.96 9.9,7.97 15.65,11.18 13.03,7.27 25.33,12.11 38.76,17.32z"/>
   <path class="fil11" d="M7234.01 4076.02c19.85,-5.49 -1.81,15.04 22.39,-16.15 15.58,-20.07 11.98,-12.45 17.82,-34.06 -24.09,8.55 -12.82,1.2 -27.24,24.33 -9.93,15.92 -8.09,10.41 -12.97,25.87z"/>
   <path class="fil21" d="M7904.04 3130.75c12.09,-6.9 5.82,-1.7 15.43,-9.27 8.13,-6.41 8.16,-6.97 13.11,-13.07 9.02,-11.15 10.62,-17.19 12.16,-33.66 -19.23,11.63 -33.92,36.72 -40.7,56z"/>
   <path class="fil8" d="M434.55 1135.61c-5.29,-5.5 -4.99,-6.8 -12.22,-12.16 -6.94,-5.15 -8.66,-5.41 -17.25,-9.79 -21.31,-10.89 -14.29,-9.46 -37.31,-12.64l2.52 12.67 64.25 21.93z"/>
   <path class="fil10" d="M7340.87 3918.42c17.55,-5.77 9.8,2.87 24.98,-20.02 9.62,-14.5 10.42,-19.26 14.7,-36.44 -14.65,9.72 -3.53,-1.71 -17.34,15.02 -3.22,3.89 -4.92,7.76 -7.59,12.08 -6.68,10.78 -9.09,13.91 -14.74,29.36z"/>
   <path class="fil42" d="M675.55 57.87c-11.12,-26.71 -33.44,-43.59 -61.1,-47.09 5.12,5.54 5.72,6.94 11.75,12.25 6.81,6.01 9.28,7.21 15.23,11.83 14.05,10.89 14.85,13.03 34.12,23.02z"/>
   <path class="fil16" d="M700.51 441.94c5.98,-10.54 9.51,-0.57 4.62,-22.11 -0.49,-2.11 -5.66,-9.6 -7.76,-12.32 -8.51,-11.01 -9.51,-15.92 -26.46,-17.59 9.52,23.32 18.26,27.69 29.59,52.02z"/>
   <path class="fil43" d="M7474.85 4134.91l-5.64 12.21c15.38,-4.47 0.82,5.43 18.36,-8.32 2.88,-2.26 9.3,-10.87 11.95,-13.9 11.83,-13.54 12.07,-9.64 19.78,-26.13 -19.99,3.93 -2.96,-9.48 -25.23,14.2 -8.15,8.66 -11.57,14.87 -19.23,21.95z"/>
   <path class="fil44" d="M8131 4597.14c9.25,0.37 30.49,2.3 39.61,0.9 33.81,-5.17 16.21,-5.32 23.65,-14.6 -11.62,-0.27 -23.73,-1.64 -36.18,0.64l-21.51 9.13c-1.16,-1.71 -3.71,2.63 -5.58,3.93z"/>
   <path class="fil11" d="M1591.68 1343.18c-5.77,-22.06 -5.06,-19.59 -17.17,-35.6 -2.02,-2.69 -8.87,-11.69 -11.45,-14.23 -13.21,-13 2.97,0.71 -14.44,-10.51 6.93,25.92 22.59,44.46 43.06,60.34z"/>
   <path class="fil10" d="M7133.65 4219.63c10.96,-5.48 1.96,1.7 12.1,-7.48 1.75,-1.58 6.81,-7.5 9.2,-10.21 14.58,-16.64 11.83,-10.15 20.48,-33.46 -18.12,7.3 -9.31,2.31 -21.36,13.16 -0.66,0.6 -7.86,9.63 -8.86,11.05 -10.58,15.02 -8.72,11.84 -11.57,26.94z"/>
   <path class="fil27" d="M1187.4 1338.71c-11.67,-15.74 0.34,-3.61 -16.46,-16.31 -4.5,-3.39 -5.52,-3.08 -12.1,-7.48 -23.13,-15.49 -9.19,-10.25 -35.29,-16.7 9.41,12.81 0.19,3.61 11.41,13.68 2.67,2.4 14.15,10.39 16.03,11.64 17.22,11.46 14.78,9.54 36.41,15.16z"/>
   <path class="fil22" d="M7611.46 3748.91c1.64,-1.81 4.07,-2.94 9.25,-11.79 0.87,-1.47 4.83,-10.71 5.56,-12.65 5.62,-14.89 7,-22.58 10.16,-37.77 -22.13,12.12 -3.15,-2.36 -14.4,13.79 -1.87,2.69 -5.7,10.26 -7.08,13.86 -6.68,17.41 -5.05,15.7 -3.49,34.56z"/>
   <path class="fil22" d="M1004.68 659.26c-2.67,-15.04 -3.24,-23.04 -9.14,-36.5 -3.19,-7.29 -3.09,-7.59 -7.29,-12.95 -7.55,-9.63 -4.97,-5.29 -12.84,-11.83 2.4,16.59 1.14,18.01 8.95,34.43 11.18,23.54 3.59,12.74 20.33,26.84z"/>
   <path class="fil29" d="M7187.16 3917.66c6.65,-6.04 2.32,1.47 9.54,-11.49 0.41,-0.72 5.52,-12.65 5.7,-13.12 7.58,-19.54 6.03,-16.03 8.07,-35.69 -10,7.78 -4.85,0.2 -12.77,11.47 -0.27,0.39 -7.11,13.74 -7.18,13.93 -5.95,16.5 -4.41,19.66 -3.36,34.9z"/>
   <path class="fil42" d="M1061 865.12l-1.75 -14.12c-9.02,-6.61 -12.22,-10.07 -21.71,-20.12 -1.18,-1.26 -12.77,-13.6 -13.05,-13.84 -9.73,-8.46 -1.74,-2.14 -14.68,-9.68 9.55,21.93 7,14.11 20.76,30.22 5.32,6.23 7.64,10.77 11.42,14.44 14.85,14.43 1.56,3.91 19,13.09z"/>
   <path class="fil45" d="M7818.61 3798.47c14.96,-3.41 6.26,1.45 18.71,-7.5 5.88,-4.23 5.88,-5.98 13.31,-13.11 15,-14.38 16.47,-10.16 22.96,-29.58 -15.09,7.48 -14.13,7.51 -30.13,22.23 -13.09,12.04 -16.1,11.28 -24.85,27.96z"/>
   <path class="fil26" d="M802.82 228.84c-3.85,-21.93 -2.46,-11.53 -14.73,-31.01 -2.5,-3.97 -4.49,-9.38 -6.97,-12.3 -11.35,-13.31 -1.52,-5.75 -16.57,-10.94 4.55,15.8 8.16,20.14 14.82,31.12 4.29,7.08 6.05,11 10.58,15.56 10.87,10.92 -0.37,1.25 12.88,7.58z"/>
   <path class="fil46" d="M940.41 498.04c-3.92,-24.97 -7.82,-47.22 -31.78,-56.53 5.24,16.51 6.19,17.36 11.93,30.16 14,31.12 -1.07,12.63 19.84,26.38z"/>
   <path class="fil21" d="M875.55 650.9c-3.84,-13.74 -8.64,-20.76 -16.6,-30.43 -0.38,-0.45 -11.75,-13.32 -11.93,-13.45 -15.99,-11.87 9.59,0.42 -14.96,-5.52 5.68,14.08 9.62,17.1 18.03,27.83 1.48,1.87 7.47,10.09 8.43,11.01 17.9,17.1 0.21,2.94 17.02,10.55z"/>
   <path class="fil20" d="M867.72 900.87c-7.07,-16.73 -6.68,-18.08 -21.45,-30.64 -10.39,-8.86 -1.82,-2.51 -11.23,-8.36 -18.29,-11.35 -4.65,-3.08 -21.34,-10.66 12.6,21.48 8.12,12.04 24.78,27.16 1.85,1.68 9.46,9.46 9.88,9.82 17.89,14.86 0.24,2.63 19.37,12.68z"/>
   <path class="fil21" d="M757.39 518.44c2.4,1.26 19.45,8.57 22.06,10.01 -8.91,-15.74 -5.62,-9.17 -13.1,-19.8 -1.22,-1.73 -4.62,-6.17 -5.75,-7.77 -19.97,-28.44 -14.5,-20.02 -29.45,-27.69 10.68,28.14 18.02,22.15 26.23,45.26z"/>
   <path class="fil42" d="M7908 3446.46c19.33,-13.14 33.01,-32.93 39.05,-52.33 -19.86,5.75 -6.4,-3.46 -24.32,21.21 -13.43,18.49 -11.6,9.88 -14.73,31.11z"/>
   <path class="fil17" d="M1541.15 1023.54c-2.4,-17.78 -5.92,-47.52 -23.8,-53.16 0.37,12.4 1.57,23.18 5.79,32.34 11.29,24.49 8.42,13.08 18.01,20.82z"/>
   <path class="fil24" d="M7971.19 4167.45c25.1,-10.46 40.85,-17.63 58.51,-38.25 -25.17,6.28 -9.42,0.63 -32.28,12.91 -22.81,12.27 -15.95,3.91 -26.23,25.33z"/>
   <path class="fil27" d="M1353.27 1396.82c-5.4,-21.36 5.32,1.53 -4.93,-14.12 -3.01,-4.59 -8.38,-9.25 -12.68,-13.62 -12.81,-13.04 -9.94,-12.33 -27.84,-23.59 8.54,23.02 2.08,12.65 20.03,31.26 11.43,11.86 10.03,13.47 25.43,20.06z"/>
   <path class="fil32" d="M7824.03 3545.65c21.43,-10.44 32.47,-23.84 41.07,-47.26 -22.67,8.64 -34.66,26.18 -41.07,47.26z"/>
   <path class="fil22" d="M567.9 16.38l45.49 -0.86c-5.4,-21.43 -16.73,-14.41 -39.38,-14.41l-6.11 15.27z"/>
   <path class="fil47" d="M7418.32 3786.76c15.61,-4.19 3,11.46 18.54,-14.2 7.76,-12.81 8.2,-20.14 11.31,-34.24 -14.65,10.62 -2.8,-8.27 -19.3,20.18 -6.07,10.47 -7.67,17.85 -10.56,28.27z"/>
   <path class="fil29" d="M1649.89 1386.91l-6.43 12.08c-4.76,-6.21 -9.31,-3.94 -16.01,-8.75 9.83,27.05 3.77,21.7 30.78,28.82 0.24,-4.38 1.16,-11.86 0.15,-15.15 -4.39,-14.35 -2.73,-8.78 -8.49,-17z"/>
   <path class="fil25" d="M8270.13 4006.29c25.07,-0.57 30.25,-9.58 72.74,-24.71 9.52,-3.39 6.05,-0.1 13.97,-5.46 1.58,-1.07 3.15,-2.51 4.56,-3.66l8.76 -10.21 -100.02 44.05z"/>
   <path class="fil23" d="M7873.59 3748.28c12.51,-5.55 15.33,-7.82 24.59,-14.93 8.05,-6.17 5.23,-2.72 10.89,-8.82 12.85,-13.85 4.78,-4.11 12.28,-18.95 -13,5.29 -18.64,9.46 -27.85,16.66 -1.11,0.87 -10.52,8.15 -10.77,8.42 -11.82,13.14 -4.24,0.44 -9.14,17.62z"/>
   <path class="fil25" d="M513.83 1180.71c-13.13,-19.78 -27.71,-21.98 -49.38,-32.51 7.04,13.9 -4.14,7.36 17.27,21.74 19.62,13.2 15.75,8.02 32.1,10.77z"/>
   <path class="fil34" d="M7641.09 3659.24c9.4,-8.34 3.84,0.08 12.74,-12.34 3.04,-4.23 4.34,-8.21 6.06,-12.88 7.25,-19.68 5.6,-16.77 6.43,-34.39 -14.54,14.19 -20.74,36.44 -25.23,59.61z"/>
   <path class="fil24" d="M642.96 1254.9c-8.14,-13.41 1.16,-3.89 -9.59,-13.12 -0.66,-0.57 -10.51,-6.64 -12.18,-7.65 -15.26,-9.28 -16.51,-10.92 -35.75,-16.54 17.02,21.62 34.85,30.3 57.52,37.31z"/>
   <path class="fil20" d="M520.92 864.84c-11.65,-23.12 -19.52,-30.55 -41.64,-41.9 3.46,18.79 -6.6,5.83 14.12,24.41 9.85,8.81 12.68,10.69 27.52,17.48z"/>
   <path class="fil11" d="M7277.97 3677.99l18.06 -20.31c4.24,-8.01 8.34,-24.35 11.11,-33.46 -16.85,11.49 -2.06,-11.1 -19.15,19.16 -7.36,13.05 -7.61,20.03 -10.02,34.61z"/>
   <path class="fil35" d="M1592.07 1182.88c-0.05,-33.7 1.17,-37 -21.28,-55.96 2.74,32.28 16.94,51.61 17.37,50.77 0.59,-1.19 2.55,3.5 3.92,5.19z"/>
   <path class="fil41" d="M576.6 667.8c14.87,5.25 7.27,0.15 17.59,6.89 9.36,6.12 6.63,5.3 12.51,11.45 7.35,4.69 -0.24,0.64 12.86,2.26 -7.87,-23.14 1.77,-7.17 -18.77,-20.33 -7.92,-5.06 -17.38,-10.78 -30.54,-15.33l6.36 15.05z"/>
   <path class="fil20" d="M557.54 652.06c-9.94,-15.14 8.05,-3.94 -19.29,-20.93 -7.38,-4.6 -17.57,-7.8 -27.48,-11.31 11.08,18.45 -9.46,3.62 19.06,21.38 10.89,6.79 15.14,6.93 27.71,10.85z"/>
   <path class="fil42" d="M7864.92 3500.52c17.67,-13.07 36.54,-34.22 43.08,-54.06 -10.66,5.52 -2.43,-1.39 -15.42,11.22 -3.52,3.42 -5.26,6.05 -9.19,10.63 -14.83,17.28 -11.41,11.27 -18.47,32.21z"/>
   <path class="fil20" d="M1010.91 1225.54l-5.9 -7.23c-16.59,-16.18 -29.05,-22.74 -47.03,-24.58 4.24,5.21 -1.92,1.02 9.1,10.38 2.94,2.5 8.67,6.36 11.58,8.29 16.28,10.83 14.87,11.26 32.25,13.14z"/>
   <path class="fil41" d="M7431.53 4274.83c25.6,-8.95 31.89,-14.28 46.84,-33.84 -20.31,5.68 -11.81,-0.95 -28.86,11.02 -20.22,14.2 -10.25,9.86 -17.98,22.82z"/>
   <path class="fil48" d="M7674.48 5105.81c-15.67,-11.97 -2.85,-4.89 -24.89,-8.62 -8.23,-1.39 -9.1,-0.47 -17.35,-2.41l-7.87 -4.76c-12.14,7.55 -5.24,-8.37 -13.33,13.89l63.44 1.91z"/>
   <path class="fil27" d="M7536.15 4075.6c10.39,-4.99 12.75,-5.05 23.47,-15.49 17.05,-16.65 9.59,-8.44 17.55,-28.36 -20.89,12.28 -35.18,23.83 -41.02,43.85z"/>
   <path class="fil7" d="M573.27 1213.56c-5.54,-7.22 -2.95,-6.32 -10.99,-12.87 -0.79,-0.65 -11.22,-7.21 -12.49,-7.92 -10.46,-5.86 -22.08,-10.67 -34.51,-15.18 6.47,9.3 1.2,5.64 10.25,12.93 3.06,2.47 9.25,5.52 12.63,7.45 15.42,8.79 16.46,10.66 35.1,15.58z"/>
   <path class="fil20" d="M733.23 1035.01c-9.68,-12.99 0.59,-3.23 -11.54,-13.46 -2.66,-2.25 -12.01,-7.84 -16.22,-10.76 -10.77,-7.48 -13.59,-12.45 -29.18,-16.52 5.19,8.85 -0.41,3.31 8.04,11.82 0.92,0.92 11.65,9.26 14.73,11.45 13.17,9.37 15.75,11.46 34.17,17.47z"/>
   <path class="fil43" d="M621.23 950.31c-5.6,-14.59 3.55,-0.82 -6.39,-13.18 -5.37,-6.68 -3.23,-3.62 -9.87,-9.38 -9.36,-8.09 -13.65,-11.4 -27.66,-18.16 8.11,16.08 2.02,11.23 19.45,26.23 8.49,7.29 11.86,9.82 24.47,14.49z"/>
   <path class="fil17" d="M1628.15 1389.43l-19.86 -36.3c-13.72,-8.03 -1.03,-0.57 -17.48,-8.38 12.74,27.9 15.05,34.95 37.35,44.68z"/>
   <path class="fil27" d="M1000.98 1025.45l-59.47 -59.1c5.31,17.98 -4.4,6.47 24.67,34.37 16.68,15.99 14.25,16.93 34.8,24.73z"/>
   <path class="fil37" d="M7663.47 3946.36l37.65 -30.77 7.74 -15.49 -26.56 19.31c-26.26,19.79 -18.98,7.31 -18.84,26.94z"/>
   <path class="fil49" d="M832.06 601.5c-5.68,-14.87 -5.11,-12.93 -14.23,-25.11 -1.22,-1.64 -7.89,-10.31 -9.22,-11.66 -12.21,-12.54 4.76,1.49 -14.45,-10.77 7.05,22.88 20.57,39.96 37.9,47.54z"/>
   <path class="fil29" d="M7312.28 3604.68c22.43,-11.19 24.03,-20.85 25.31,-43.92 -1.31,0.95 -3.42,0.72 -3.92,2.85 -1.04,4.39 -12.47,0.8 -21.38,41.08z"/>
   <path class="fil23" d="M7773.02 4049.44c21.88,2.69 1.42,9.83 24.71,-7.56 1.63,-1.21 5.81,-5.44 7.23,-6.97 8.24,-8.84 2.62,-2.61 10.51,-14.25l-14.33 1.26 -28.12 27.52z"/>
   <path class="fil20" d="M7550.88 4194.2c16.17,-5.08 16.31,-4.12 31.3,-13.33 2.54,-1.56 8.82,-5.76 11.26,-7.9 6.94,-6.1 5.82,-6.23 9.2,-10.6 -21.21,2.03 -37.57,14.13 -51.76,31.83z"/>
   <path class="fil39" d="M8225.88 4027.88c8.15,-1.74 16.17,-3.11 25.55,-7.33 1.85,-0.84 7.17,-3.41 8.72,-4.43 13.92,-9.13 3.97,-2.49 9.98,-9.83 -10.7,0.53 -15.88,-0.85 -28.13,4.5 -32.33,14.11 -9.99,3.44 -16.13,17.09z"/>
   <path class="fil20" d="M1352.05 1442.86l-1.65 -12.79 -46.32 -21.76c13.67,19.45 25.01,25.16 47.97,34.55z"/>
   <path class="fil23" d="M957.97 1193.73c-0.94,-1.33 -2.1,-3.27 -2.77,-4.04 -0.67,-0.78 -2.1,-2.96 -2.96,-3.86l-52.94 -31.79c12.28,20.17 6.85,12.92 26.98,25.54 2.4,1.49 9.83,6.48 12.1,7.62 15.18,7.64 4.3,3.9 19.59,6.53z"/>
   <path class="fil27" d="M8186.19 3710.94c22.82,-10.84 23.92,-17.81 36.32,-42.18 -14.67,8.13 -5.49,-4.6 -22.97,16.97 -7.58,9.35 -7.59,12.04 -13.35,25.21z"/>
   <path class="fil29" d="M1520.45 1254.46l26.18 20.91c-3.42,-15.44 -2.25,-17.78 -11.22,-27.73 -12.24,-13.56 -8.97,-5.49 -17.16,-8.5l2.19 15.32z"/>
   <path class="fil18" d="M7963.88 3362.75c-12.75,14.74 -11.98,9.52 -16.82,31.39 20.85,-9.34 25.97,-26.15 33.44,-44.42 -1.59,1.63 -3.77,3.15 -5.25,4.35 -1.54,1.23 -4.3,5.69 -5.54,4.34 -1.28,-1.4 -4.01,2.73 -5.82,4.34z"/>
   <path class="fil6" d="M294.95 1587.86c10.15,-7.75 12.72,-9.46 22.04,-16.38 1.3,-0.97 10.24,-7.52 11.05,-8.33 9.5,-9.43 2.62,-1.97 7.96,-11.1 -13.22,2.18 -8.05,-2.65 -23,8.6 -18.52,13.95 -11.04,9.75 -18.05,27.21z"/>
   <path class="fil27" d="M7732.74 4075.35c13.88,-2.47 9.45,1.9 24.93,-7.82 15.99,-10.05 10.62,-9.33 15.35,-18.08 -21.54,4.36 -29.95,8.41 -40.28,25.91z"/>
   <path class="fil50" d="M7708.87 3900.1l-7.74 15.49c15.98,-8.19 7.93,-0.54 21.65,-15.83 4.92,-5.49 9.64,-13.53 13.13,-19.4 -16.52,2.02 -16,-3.16 -27.03,19.75z"/>
   <path class="fil51" d="M532.82 33.55l20.51 -11.23c1.32,-0.67 3.69,-1.74 5.52,-2.65l9.06 -3.29 6.11 -15.27c-23.93,5.78 -27.27,10.37 -41.19,32.44z"/>
   <path class="fil45" d="M786.19 824.63l-3.08 -12.9c-19.45,-7.07 -8.64,-6.75 -33.77,-15.46 9.97,19.42 -8.34,2.68 13.73,18.82 14.06,10.28 5.64,3.4 23.12,9.54z"/>
   <path class="fil37" d="M7385.4 4234.86c7.87,-4.64 3.91,-1.23 12.1,-8.05 0.62,-0.51 9.66,-9.6 9.92,-9.88 6.16,-6.65 7.91,-9.09 14.34,-18.21 -20.69,4.67 -1.18,-9.04 -22.25,10.52 -9.01,8.38 -10.43,12.49 -14.11,25.62z"/>
   <path class="fil20" d="M890.01 1147.76c-14.25,-18.92 -19.97,-24.2 -42.75,-34 6.73,11.54 -1.42,7.8 16.99,21.82 10.7,8.15 11.39,7.01 25.76,12.18z"/>
   <path class="fil20" d="M779.1 1068.69c-12.09,-17.39 6.54,-1.38 -14.97,-17.26 -10.61,-7.83 -12.29,-7.04 -26.39,-12.22 12.85,20.07 -10.39,-0.46 13.95,17.82 9.26,6.97 15.14,7.48 27.42,11.66z"/>
   <path class="fil50" d="M1086.2 1275.31c-9.06,-16.26 11.16,-3.18 -17.7,-22.16 -11.61,-7.63 -14.58,-5.65 -25.24,-7.04 0.9,1.33 2.26,1.84 2.76,3.93 0.47,2.07 2.22,3.07 2.9,3.73l37.28 21.54z"/>
   <path class="fil34" d="M7976.28 3030.19l-3.24 14.05c24.76,-9.39 23.26,-8.65 38.84,-26.84 -33.75,1.02 -6.21,6.56 -35.6,12.79z"/>
   <path class="fil50" d="M8041.85 3619.14c8.26,-0.95 11.39,6.2 34.13,-20.92 1.03,-1.22 2.4,-3.44 3.65,-5.12 -17.4,5.48 -9.05,0.34 -22.68,9.02 -19.15,12.21 -10.86,9.86 -15.1,17.02z"/>
   <path class="fil52" d="M7958.93 4205.74l-42.02 1.77c2.01,-0.88 7.78,-4.23 8.39,-6.93 0.58,-2.57 2.7,-3.28 4.45,-4.4l-23 10.8c4.24,2.49 6.59,13.56 38.61,5.67 11.85,-2.92 7.86,-3.23 13.58,-6.9z"/>
   <path class="fil20" d="M898.27 929.29c-4.49,-8.96 0.36,-8.54 -11.59,-20.75 -10.6,-10.84 -3.36,-4.3 -19.85,-12.11 6.54,13.09 -2.88,6.11 11.83,21.14 7.91,8.1 6.71,5.98 19.61,11.72z"/>
   <path class="fil46" d="M7945.72 3065.44l15.79 -5.22c8.48,-7.1 8.15,-5.53 11.53,-15.99l3.24 -14.05c-7.68,6.06 -10.03,6.97 -16.13,13.52 -17.95,19.3 12.95,-18.69 -6.03,7.2 -6.43,8.79 -2.18,3.46 -8.4,14.53z"/>
   <path class="fil45" d="M8070.99 3827l14.68 -9.64c13.73,-8.18 16.41,-12.98 25.9,-22.23 3.72,-3.63 10.53,-9.48 13.39,-12.98 14.99,-18.23 3.14,-0.52 9.8,-16.94l-63.77 61.79z"/>
   <path class="fil27" d="M7421.76 4198.72c14.65,-6.4 11.3,-3.77 22.5,-17.21 0.55,-0.65 7.43,-10.56 8.17,-11.73l4.19 -9.14c-19.82,9.72 -27.75,20.27 -34.86,38.08z"/>
   <path class="fil20" d="M7747.23 3865.38c16.77,-6.99 -2.28,7.96 17.42,-9.14 10.45,-9.07 7.67,-7.12 13.12,-19.6 -11.15,3.96 -1.92,-5.29 -18.19,8.26 -15.68,13.06 -7.92,7.12 -12.35,20.47z"/>
   <path class="fil53" d="M7299.41 4354.08l14.1 -13.36 -20.65 -7.52 -5.51 3.72c-3.11,28.16 -5.29,11.83 12.06,17.17z"/>
   <path class="fil54" d="M7927.62 4190.9c9.85,-2.57 12.03,-1.79 19.4,-6.74 23.73,-15.94 3.92,-0.77 14.29,-17.62 -17.09,1.16 -12.77,1.28 -22.58,8.75 -10.59,8.05 -6.07,6.87 -11.11,15.6z"/>
   <path class="fil29" d="M7386.23 3484.1c18.95,-8.86 3.39,3.81 20.76,-11.96 13.06,-11.86 8.57,-10.54 12.55,-20.03 -20.83,6.84 -21.53,11.32 -33.31,31.99z"/>
   <path class="fil15" d="M8276.53 4564.15c12.37,-3.24 18.73,-2.58 27.51,-10.4 16.21,-14.47 5.67,-2.73 8.02,-18.72 -8.08,4.99 -10.06,6.22 -15.74,10.57 -1.53,1.18 -6.36,4.8 -7.89,6.16 -8.97,7.93 -4.87,4.19 -11.89,12.39z"/>
   <path class="fil27" d="M656.61 980.48c-8.05,-15.39 -1.22,-9.04 -13.03,-19.77 -9.63,-8.77 -9.63,-6.83 -22.35,-10.39 4.71,9.78 -0.78,5.88 10.6,15.64 6.36,5.46 17.02,10.43 24.78,14.53z"/>
   <path class="fil7" d="M8074.43 4105.79c20.01,-5.93 32.01,-11.21 46.91,-29.53 -12.06,4.23 -16.28,4.76 -27.08,11.39 -1.79,1.1 -6.36,4.27 -7.94,5.57 -8.32,6.88 -5.41,5.3 -11.89,12.57z"/>
   <path class="fil41" d="M727.23 781.84l24.53 10.08c-4.81,-17.14 13.8,-13.99 -9.15,-14.06l-25.05 -13.59c3.8,6.02 5.58,11.8 9.67,17.58z"/>
   <path class="fil44" d="M337.19 1701.96c-12.62,-17.37 -14.83,-20.07 -32.81,-25.93 6.48,23.14 8.8,19.56 32.81,25.93z"/>
   <path class="fil20" d="M8002.62 3646.4l39.23 -27.26c-17.09,-0.91 -8.19,-5.99 -26.08,7.25 -20.05,14.84 -9.56,11.34 -13.15,20.01z"/>
   <path class="fil39" d="M-0.01 1097.13c13.13,-10.01 19.43,-14.11 18.92,-34.37 -14.99,5.7 -2.16,-11.3 -14.35,13.32 -4,8.06 -3.52,14.31 -4.57,21.05z"/>
   <path class="fil37" d="M1188.81 1214.06c-15.87,-24.19 -8.56,-19.83 -31.79,-27.68 13.99,29.02 7.66,18.53 31.79,27.68z"/>
   <path class="fil46" d="M783.81 546.38l-4.23 -17.4 -0.12 -0.54c-2.61,-1.43 -19.67,-8.74 -22.06,-10.01 10.58,26 4.69,19.3 26.42,27.94z"/>
   <path class="fil51" d="M8020.09 3274.56l-3.17 16.23c22.72,-9.6 16.48,-6.97 25.66,-31.74 -1.93,1.36 -4.16,2.79 -5.84,3.95 -1.66,1.13 -4.09,2.78 -5.75,3.92 -1.56,1.08 -9.14,6.33 -10.9,7.65z"/>
   <path class="fil55" d="M7299.41 4354.08c-17.35,-5.34 -15.17,11 -12.06,-17.17 -19.01,13.9 -12.41,-7 -10.91,22.92 42.35,10.59 10.6,1.83 22.96,-5.75z"/>
   <path class="fil29" d="M1517.35 970.38c0.79,-26.67 2.9,-21.08 -14.36,-31.66 1.94,16.83 -3.01,27.98 14.36,31.66z"/>
   <path class="fil20" d="M7582.13 4028.88c24.82,-13.9 23.92,-14.98 35.41,-37.17l-12.56 10.01c-16.85,9.25 -13.47,7.32 -22.85,27.16z"/>
   <path class="fil56" d="M4397.38 3780.18c20.84,-3.19 10.76,-0.64 10.82,25.32 0.34,-0.52 8.26,-2.86 7.97,-18.08 -0.69,-36.25 1.87,-8.16 -9.31,-20.83 -21.48,5.69 1.77,-4.19 -9.48,13.6z"/>
   <path class="fil18" d="M819.87 262.46l-3.43 -17.88c-11.1,-31.43 -6.09,-8.51 -13.62,-15.73 0.13,19.63 -4.99,5.59 4.22,22.54 4.51,8.31 5.67,5.74 12.83,11.08z"/>
   <path class="fil9" d="M8319.61 4461.02c-4.51,-21.17 -6.2,-22.35 -30.5,-34.66 8.26,15.26 0.08,5.22 12.89,19.81 4.79,5.45 11.73,10.55 17.62,14.85z"/>
   <path class="fil23" d="M8049.83 3845.35c13.29,-3.17 6.43,2.21 18.91,-6.97 12.57,-9.25 10.09,-10.56 16.94,-21.02l-14.68 9.64c-16.15,2.83 -13.51,2.69 -21.16,18.35z"/>
   <path class="fil30" d="M244.71 1056.29c-8.91,-9.79 2.12,-5 -12.82,-12.43 -6.97,-3.46 -18.69,-5.32 -26.31,-6.9 8.07,11.47 0.19,5.82 13.47,12.58 16.92,8.6 9.44,3.81 25.66,6.75z"/>
   <path class="fil57" d="M1547.27 1287.33l-0.64 -11.95 -26.18 -20.91c6.67,22.58 5.9,21.34 26.82,32.86z"/>
   <path class="fil20" d="M846.37 1120.27c-8.41,-21.48 -9.71,-18.85 -32.23,-26.68 7.72,17.67 11.04,16.54 32.23,26.68z"/>
   <path class="fil18" d="M1062.05 790.98c-0.93,-24.64 -1.47,-24.12 -18.35,-37.41 2.93,12.98 2.3,15.4 7.01,24.86 6.94,13.92 3.08,4.38 11.34,12.54z"/>
   <path class="fil41" d="M7931.1 3942.33c20.42,-7.97 21.59,-4.92 29.61,-26.59 -24.15,10.84 -19.87,5.61 -29.61,26.59z"/>
   <path class="fil43" d="M1043.26 1246.11c-4.6,-6.58 4.59,-2.73 -12.62,-14.05 -15.61,-10.27 -10.35,-4.54 -19.73,-6.52 10.55,18.82 12.59,17.4 32.35,20.57z"/>
   <path class="fil27" d="M555.82 896.76c-5.52,-22.47 -13.51,-20.67 -31.48,-26.61 12.5,17.04 13.5,19.03 31.48,26.61z"/>
   <path class="fil29" d="M7337.58 3560.76c9.81,-5.04 2.12,8.19 14.09,-11.33 6.09,-9.92 4.6,-10.14 8.64,-24.16 -15.77,13.62 -17.89,14.68 -22.73,35.49z"/>
   <path class="fil14" d="M1283.46 513.23c-10.19,-29.96 -0.52,-16.91 -28.52,-25.81 13.15,19.94 7.2,14.1 28.52,25.81z"/>
   <path class="fil24" d="M8475.97 4132.72c3.63,-0.53 1.25,4.84 14.62,-3.52 25.13,-15.69 4.19,-0.76 16.45,-16.91 -3.51,0.85 -15.82,3.62 -19.04,5.62 -13.79,8.53 -7.09,4.31 -12.03,14.81z"/>
   <path class="fil37" d="M7326.91 4299.56l13.16 -2.78c3.28,-10.09 2.65,-6.32 4.65,-11.09 0.56,-1.33 3.27,-5.77 3.64,-8.84 0.27,-2.39 1.29,-3.16 1.85,-4.77 -20.29,8.69 -16.44,6.89 -23.3,27.49z"/>
   <path class="fil43" d="M479.28 822.95c-3.72,-12.17 10.77,2.06 -5.26,-14.62 -11.28,-11.74 -1.6,-6.19 -18.14,-8.32 12.45,25.24 5.17,15.31 23.4,22.94z"/>
   <path class="fil58" d="M7801.14 4021.92l14.33 -1.26 6.57 1.91c4.27,-6.53 5.36,-11.57 9.27,-18.39 -19.91,2.01 -17.47,4.73 -30.17,17.75z"/>
   <path class="fil42" d="M1033 722.19c1.94,-21.74 -3.15,-19.75 -15.29,-29.93 2.92,13.84 -0.36,29.93 15.29,29.93z"/>
   <path class="fil27" d="M661.29 719.69l-41.73 -31.28c6.13,14.35 -13.34,0.14 13.82,19.28 10.76,7.58 13.36,6.93 27.91,12z"/>
   <path class="fil27" d="M496.15 619.98c-11.45,-18.29 -13.92,-13.95 -32.64,-16.85 7.3,11.58 -1.26,5.67 12.44,11.96 17.35,7.97 -1.31,1.02 20.21,4.89z"/>
   <path class="fil20" d="M941.51 966.35c-10.97,-20.16 -8.2,-15.79 -29.04,-22.85 15.08,22.15 8.62,18.99 29.04,22.85z"/>
   <path class="fil20" d="M7395.78 4290.66c21,-2.42 17.11,-2.44 27.32,-17.83 -18.85,3.85 -2.87,-3.88 -19.2,5.37 -14.86,8.41 -4.48,-3.61 -8.12,12.46z"/>
   <path class="fil45" d="M1025.33 1053.6c-8.44,-15.96 -0.06,-6.76 -8.94,-17.29 -10.82,-12.83 0.27,-3.44 -15.41,-10.86 3.16,14.37 -3.95,3.43 5.08,14.2 12.4,14.8 2.29,3.73 19.26,13.95z"/>
   <path class="fil45" d="M1237.76 1268.99c-1.94,-16.41 -8.73,-15 -22.85,-22.2 7.25,23.5 -3.4,4.04 8.16,16.94 10.44,11.64 -1.86,2.34 14.69,5.26z"/>
   <path class="fil41" d="M7604.98 4001.72l12.56 -10.01c9.6,-0.57 3.62,4.52 8.34,-5.89l7.81 -13.81c-21.82,10.23 -19.73,7.17 -28.71,29.7z"/>
   <path class="fil48" d="M2420.38 5248.51c-2.14,5.37 -13.27,-10.19 0.19,9.08l50.45 -13.83 -50.64 4.76z"/>
   <path class="fil35" d="M7103.61 4266.45c18.84,-5.65 16.03,-10.97 20.61,-28.26 -10.01,7.83 -5.82,-0.13 -13.4,11.23 -7.88,11.83 -1.28,-1.78 -7.21,17.03z"/>
   <path class="fil48" d="M2921.34 6334.76c5.51,-0.38 22.01,-0.7 28.43,-2.05 20.44,-4.29 17.32,-7.54 20.57,-9.55 -26.48,3.31 -25.99,0.41 -49,11.6z"/>
   <path class="fil45" d="M7671.91 4119.01l13.12 -3.87c19.24,-2 -1.16,0.67 8.21,-12.6l-18.63 3.74c-15.27,2.77 -0.15,1.06 -2.7,12.73z"/>
   <path class="fil50" d="M914.25 946.23c0,-14.05 4.32,-11.98 -6.73,-11.98 0,-14.34 1.98,-0.8 -11.77,-6.81 1.65,19.49 4.13,15.11 18.5,18.78z"/>
   <path class="fil41" d="M8008.44 3881.22c25.89,-8.91 1.33,5.72 16.65,-7.8 17.1,-15.09 5.57,-6.96 9.99,-16.06l-12.57 3.99 -14.07 19.88z"/>
   <path class="fil29" d="M1504.17 1214.37l-9.54 -16.71c0,-12.85 2.08,-9.21 -10.5,-3.31l4.45 13.1c2.4,15.94 0.12,-0.97 15.59,6.91z"/>
   <path class="fil37" d="M8225.3 3657.27c12.83,-9.54 4.86,4.02 13.84,-11.76 5.09,-8.95 3.68,-8.6 5.6,-18.67 -7.37,6.76 -6.43,1.54 -12.75,12.36 -7,11.97 -3.5,5.79 -6.69,18.07z"/>
   <polygon class="fil59" points="13.7,1159.53 25.47,1160.18 20.49,1142.57 6.27,1139.19 "/>
   <path class="fil43" d="M698.8 753.25c-7.51,-21.36 -11.08,-16.11 -27.82,-21.33l11.12 14.2 16.7 7.13z"/>
   <path class="fil9" d="M304.37 1676.03c-2.01,-4.74 -1.03,-6.81 -6.71,-13.02 -9.01,-9.83 -3.82,-4.09 -14.66,-11.94 2.78,15.72 0.11,10.31 7.5,17.89 11.4,11.72 -2.77,1.34 13.87,7.07z"/>
   <path class="fil50" d="M7519.31 4098.77c13.67,-4.38 7.77,14.51 11.78,-7.42l5.06 -15.74c-11.15,5.36 -4.52,-3.17 -11.76,8.06 -5.83,9.05 -2.59,2.48 -5.08,15.11z"/>
   <path class="fil27" d="M1296.2 1335.09c-8.03,-19.5 0.32,-14.4 -23.74,-26.9 8.69,18.58 6.13,15.61 23.74,26.9z"/>
   <path class="fil43" d="M7904.69 3955.84c16.31,-5.82 2.38,3.12 12.15,-5.08 10.72,-9 4.73,-2.78 12.23,-13.79l-17.34 4.4c-16,2.38 0.66,0.14 -7.04,14.47z"/>
   <path class="fil37" d="M7711.73 4092.91c23.52,-0.34 17.79,-5.91 21.01,-17.56 -18.94,6.29 -13.51,3.92 -21.01,17.56z"/>
   <path class="fil23" d="M7963.62 3915.87l16.83 -6.43c15.61,-2.47 -0.87,-0.29 5.67,-14.8 -10.07,4.53 -4.87,-0.72 -11.37,5.92 -11.08,11.32 -2.55,-0.21 -11.14,15.31z"/>
   <path class="fil43" d="M727.23 781.84c-4.09,-5.78 -5.87,-11.56 -9.67,-17.58 -5.87,-10.09 2.65,-0.85 -15.82,-7.02 11.5,18.39 7.07,14.92 25.49,24.6z"/>
   <path class="fil34" d="M900.4 683.75c-4.94,-15.41 8.13,-13.51 -5.5,-16.24l-9.23 -1.17 0.13 13.08 14.59 4.32z"/>
   <path class="fil23" d="M572.15 911.97c0,-12.97 3.85,-10.78 -7,-10.78 0,-13.3 1.7,-1.03 -9.33,-4.43l-0.07 12.17 16.4 3.04z"/>
   <path class="fil27" d="M1216.45 1250.93c0.76,-15.87 5.69,-13.78 -6.16,-13.78l-11.2 -5.67c8.56,24.72 -6.11,7.87 17.36,19.45z"/>
   <path class="fil8" d="M669.04 1269.23c0.84,-13.96 4.92,-11.63 -6.88,-11.63l-16.14 -6.24c10.92,16.11 1.1,9.92 23.02,17.87z"/>
   <path class="fil30" d="M698.83 1286.88c-1.37,-1.63 -2.96,-6.43 -3.97,-4.97 -1,1.43 -3.08,-3.59 -4.45,-4.38 -11.89,-6.83 -2.06,-3.19 -18.08,-7.28 8.67,13.65 5.06,15.81 26.49,16.63z"/>
   <path class="fil50" d="M7646.29 3968.52c19.76,-11.63 13.07,-7.7 17.18,-22.16 -20.2,11.73 -13.21,-3.51 -17.18,22.16z"/>
   <path class="fil27" d="M398.73 718.65l-19.62 -32.98c0.13,21.36 -2.88,10.36 4.72,21.45 9.59,14.02 -1.36,1.27 14.9,11.53z"/>
   <path class="fil20" d="M8134.76 3765.21c14.4,-3.07 12.45,7.27 21.45,-17.81 -15.78,5.85 -12.75,2.78 -21.45,17.81z"/>
   <path class="fil27" d="M7350.21 4272.07c12.01,-1.69 10.35,11.51 10.35,-3.16 11.38,0 6.69,2.03 6.26,-13.04 -23.46,12.27 -8.09,-4.02 -16.61,16.2z"/>
   <path class="fil24" d="M33.19 1176.97c-2.38,-11.77 -1.45,-10.09 -7.72,-16.79l-11.77 -0.65c11.08,20.03 2.41,10.61 19.49,17.44z"/>
   <polygon class="fil8" points="8554.26,4083.88 8572.71,4079.2 8576.62,4059.96 8565.17,4070.67 "/>
   <path class="fil26" d="M1007.97 805.79c-6.72,-16.76 1.39,-10.47 -17.64,-17.56 2.7,19.32 2.37,14.27 17.64,17.56z"/>
   <polygon class="fil10" points="1484.13,1194.36 1484.58,1180.36 1471.37,1175.28 1473.4,1192.35 "/>
   <path class="fil29" d="M1518.26 1239.14c-3.55,-20.63 6.53,-7.18 -14.15,-19.22l2.72 15.07c2.78,13.37 0.99,0.45 11.43,4.15z"/>
   <path class="fil41" d="M7822.04 4022.57c19.76,-7.57 16.07,-2.48 18.79,-18.13l-9.52 -0.27c-3.92,6.82 -5,11.86 -9.27,18.39z"/>
   <path class="fil42" d="M7739.36 3652.09c19.06,-8.39 9.47,3.68 16.71,-18.95l-11.99 1.93 -4.72 17.02z"/>
   <path class="fil20" d="M1254.93 1290.69l-3.45 -13.22c-8.64,-9.19 -3.72,-3.62 -13.73,-8.47l3.06 9.19c7.71,11.87 -11.74,3.48 14.12,12.5z"/>
   <path class="fil37" d="M7345.63 4310.38l3.11 12.27c20.24,-6.14 5.55,5.99 16.14,-14.17l-19.25 1.9z"/>
   <path class="fil45" d="M799.63 1087.83l14.51 5.76c-4.83,-16.98 -12.68,-13.87 -26.8,-19.51l12.29 13.74z"/>
   <path class="fil60" d="M7813.41 3562.94c15.62,4.4 12.41,-4.38 14.86,-16.92 -20.96,10.89 -9.08,-3.43 -14.86,16.92z"/>
   <path class="fil25" d="M18.91 1062.76c6.33,-4.08 1.37,2.06 11.18,-8.11 14.76,-15.29 0.17,0.57 8.41,-11.17 -19.42,-0.89 -8.03,-4.73 -13.16,6.49 -12.93,5.99 -2.96,-1.5 -6.43,12.79z"/>
   <polygon class="fil16" points="783.81,546.38 793.68,551.54 792.45,535.33 779.57,528.98 "/>
   <path class="fil61" d="M7838.96 5092.66c-14.02,1.51 -9.88,4.45 -11.44,-10.05 -7.12,10.9 -6.55,2.98 -5.8,20.32 33.23,-3.91 4.33,0.76 17.24,-10.27z"/>
   <path class="fil23" d="M7777.77 3836.65l12.08 -4.97 1.94 -12.21c-12.68,0.56 -10.65,-3.31 -10.65,6.97 -14.59,0 -1.42,-1.68 -3.37,10.21z"/>
   <path class="fil33" d="M7489.77 3639.76c12.54,-8.95 3.16,4.28 14.43,-10.72l-3.11 -19.3 -11.32 30.03z"/>
   <path class="fil27" d="M455.89 800.01c-6.92,-19.98 6.41,-5.93 -17.13,-22.12 -0.43,15.11 -5.14,13.13 6.05,13.13l11.08 8.99z"/>
   <path class="fil27" d="M440.24 781.6c1.28,-15.28 6.01,-13.25 -5.65,-13.25 -9.54,-18.18 1.32,-1.41 -16.04,-9.52l21.69 22.77z"/>
   <path class="fil45" d="M1125.84 1300.69c-7.95,-11.93 8.79,-7.57 -22.38,-14.38 12.67,18.96 -0.57,8.45 22.38,14.38z"/>
   <path class="fil50" d="M7633.69 3972.02l-7.81 13.81c18.15,-8.68 10.91,1.18 20.41,-17.31 -14.84,0.57 -6.95,-6.34 -12.6,3.5z"/>
   <path class="fil10" d="M7121.78 4234.71c17.65,4.98 12.3,-4.96 11.87,-15.07 -17.43,7.56 -6.21,-5.77 -11.87,15.07z"/>
   <path class="fil20" d="M676.29 994.27c-1.87,-14.91 -6.03,-10.92 -18.91,-13.73 11.67,19.78 -0.13,10.66 18.91,13.73z"/>
   <path class="fil62" d="M3488.73 3524.04l-3.39 -17.92c-25.21,-9.03 -2.27,-2.37 -12.74,4.6 5.14,4.07 11.47,8.74 16.12,13.32z"/>
   <path class="fil45" d="M7803.69 3816.02c25.8,-13.36 10.55,-6.71 14.93,-17.55l-13.78 4.65 -1.15 12.91z"/>
   <path class="fil20" d="M8156.22 3747.4c17.87,-6.68 5.98,7.16 20.24,-18.4 -13.27,6.74 -10.34,-2.68 -20.24,18.4z"/>
   <path class="fil41" d="M7313.5 4340.71c21,-1.84 20.88,-0.15 35.23,-18.07l-35.23 18.07z"/>
   <path class="fil22" d="M7944.75 3074.74c29.45,-6.29 8.92,1.33 16.76,-14.51l-15.79 5.22 -0.97 9.3z"/>
   <path class="fil20" d="M7366.48 4254.85c17.85,-8.32 7.57,9.33 16.41,-9.72 10.95,0 7.12,1.66 2.51,-10.26l-18.92 19.99z"/>
   <path class="fil41" d="M804.46 837.88l-21.34 -26.15 3.08 12.9c-2.43,15.41 -1.67,2.03 6.37,7.73l11.89 5.53z"/>
   <polygon class="fil47" points="1326.12,562.03 1322.13,547.67 1313.46,546.07 1314.95,560.5 "/>
   <path class="fil23" d="M7292.86 4333.19l24.96 -25c-18.35,8.97 -16.83,0.34 -24.96,25z"/>
   <path class="fil41" d="M7458.12 4153.55l11.09 -6.43 5.64 -12.21c-13.11,0 -11.02,-3.95 -11.02,6.74l-5.71 11.91z"/>
   <path class="fil50" d="M7735.9 3880.35l11.22 -1.8 0.11 -13.17c-18.97,7.27 -8.23,-2.62 -11.33,14.97z"/>
   <path class="fil50" d="M8022.52 3861.34l12.57 -3.99 7.83 -11.08c-26.18,7.47 -13.04,2.33 -20.4,15.07z"/>
   <path class="fil43" d="M7456.62 4160.64c11.46,-2.69 9.43,13.26 12.43,-4.17l0.17 -9.35 -11.09 6.43 -1.5 7.09z"/>
   <path class="fil27" d="M7840.83 4004.44l22.67 -16.28c-15.93,2.19 -16.27,-5.2 -22.67,16.28z"/>
   <path class="fil20" d="M1405.47 1450.64c1.94,-10.21 4.41,-8.07 -5.37,-8.07l-12.4 -6.99c11.99,19.86 -0.09,10.06 17.78,15.06z"/>
   <path class="fil23" d="M8035.08 3857.36l10.07 -0.37c15.93,-2.92 1.04,-0.91 4.68,-11.63l-6.91 0.92 -7.83 11.08z"/>
   <path class="fil61" d="M6409.65 5472.46l9.38 1.39c0.69,-1.27 2.36,-4.68 2.22,-3.76 -0.14,0.87 0.72,-3.42 0.49,-4.02 -0.26,-0.7 -1.61,-3.65 -1.91,-4.36 -0.36,-0.87 -2.53,-2.96 -3.62,-4.58l-6.57 15.33z"/>
   <path class="fil48" d="M1929.07 5170.41c-11.47,-10.94 -3.05,-3.87 -10.32,-18.55 -1.03,1.78 -3.36,6.69 -3.64,4.99 -0.33,-2.01 -2.31,4.69 -2.34,8.59l16.3 4.97z"/>
   <path class="fil63" d="M48.01 1191.7c-10.62,-19.57 3.14,-7.08 -14.82,-14.73l0.19 9.48 14.64 5.24z"/>
   <path class="fil27" d="M7863.5 3988.16l20.66 -17.29 -16.51 5.53c-17.5,2.64 0.6,0.45 -4.15,11.76z"/>
   <path class="fil20" d="M7691.68 4105.14l20.06 -12.23c-16.73,-3.41 -13.33,-1.33 -20.06,12.23z"/>
   <path class="fil26" d="M834 287.78l-14.38 -23.59 4.4 14.51c0,12.45 -2.98,9.08 9.98,9.08z"/>
   <polygon class="fil64" points="1873.76,4325.73 1866.53,4317.4 1859.88,4336.69 "/>
   <path class="fil20" d="M1387.45 1435.05l-4.34 -13.19c-2.54,-13.6 -0.53,0.24 -13.06,-6l17.4 19.19z"/>
   <polygon class="fil23" points="799.63,1087.83 787.34,1074.08 781.11,1069.58 784.54,1081.76 "/>
   <path class="fil37" d="M7377.31 4303.79l18.46 -13.13 -10.93 2.5c-11.3,0 -7.54,-2.36 -7.54,10.63z"/>
   <path class="fil43" d="M7791.79 3819.47l-1.94 12.21 13.83 -15.65c-14.67,0.92 -7.31,-6.64 -11.9,3.45z"/>
   <path class="fil43" d="M1363.78 1414.1l0.48 -10.62c-3.07,-19.13 -0.53,-0.74 -10.98,-6.66l10.5 17.27z"/>
   <path class="fil49" d="M885.68 666.34l-10.13 -15.44 -1.26 10.13c2.41,15.03 0.51,1.36 11.39,5.31z"/>
   <path class="fil50" d="M1265.06 1390.99l9.56 -0.88 -20.39 -17.97c7.27,9.71 5,9.33 10.83,18.85z"/>
   <path class="fil58" d="M606.7 686.14c-5.88,-6.14 -3.15,-5.33 -12.51,-11.45 -10.32,-6.74 -2.72,-1.64 -17.59,-6.89l30.1 18.34z"/>
   <polygon class="fil10" points="1313.46,546.07 1322.13,547.67 1306.31,529.47 "/>
   <path class="fil60" d="M881.55 378.4l-14.62 -26.85c0.72,2.09 1.56,2.97 2.14,6.28 0.57,3.24 1.65,4.62 2.44,6 4.88,8.53 6.49,10.11 10.04,14.57z"/>
   <polygon class="fil33" points="7314.19,3955.22 7327.48,3935.1 "/>
  </g>
 </g>
</svg>
